<svg id="Layer_1" data-name="Layer 1" xmlns="http://www.w3.org/2000/svg" viewBox="0 0 324.24 360"><defs><style>.cls-1{fill:#fff;stroke:#000;stroke-miterlimit:10;stroke-width:6px;}</style></defs><polygon class="cls-1" points="263.24 122.98 164.48 65.96 65.71 122.98 65.71 237.02 164.48 294.04 263.24 237.02 263.24 122.98"/><path d="M138.22,200.17c-6.32,4.34-10.38,10.32-11,15.72L70.33,133.08c-2.65-3.86-1.64-8.11,2-10.61L76.28,117,67,106.6l-4.72,3.19c-10.93,7.51-13.16,21.46-5.5,32.61l15.15,22c-21.05-8.93-47.84-3.88-55.43-3,5.57,5.84,41.39,40.44,72,27.18l14.62,21.28c-21-8.93-47.84-3.88-55.43-3,5.58,5.84,41.42,40.48,72,27.18l14.65,21.32c-21-9-47.84-3.87-55.46-3.07,5.71,5.94,42.45,41.52,73.37,26.58,10.87,8.75,25.55,8.95,38.31.19,14.54-10,19-30.54,9-45.07L182.3,208.75C171.5,193,153.48,189.69,138.22,200.17ZM186,243.32c5.33,7.75,3.94,17.63-4.07,23.13-7.76,5.33-17.73,3.26-23.06-4.49l-18-26.19c-4.68-7.83-2.76-17,4.74-22.17,8-5.5,17.58-3.47,23.06,4.5Z"/></svg>