<svg id="Layer_1" data-name="Layer 1" xmlns="http://www.w3.org/2000/svg" viewBox="0 0 316.75 493.53"><defs><style>.cls-1{fill:#123012;}.cls-2{fill:#1c4819;}.cls-3{fill:#27541c;}.cls-4{fill:#405d36;}.cls-5{fill:#1b391c;}.cls-6{fill:#264723;}.cls-7{fill:#7d915f;}.cls-8{fill:#33512c;}.cls-9{fill:#c3beab;}.cls-10{fill:#526b44;}.cls-11{fill:#e4e2dd;}.cls-12{fill:#deded6;}.cls-13{fill:#d3d2c5;}.cls-14{fill:#ecebe9;}.cls-15{fill:#eae9e5;}.cls-16{fill:#dad8d0;}</style></defs><path class="cls-1" d="M266.12,485.61c-1.46-1.57-3.29-2-5.2-2.39-.12-.11-.22-.31-.35-.34-10.73-2.32-8.2-4.24-14,5.55-1,1.68-1.89,3.4-2.83,5.1h-33c-.54-3,2.26-4,4.18-5.79-5.14-1-5-1-5.23-6-.26-4.66.85-9.31-1.44-14-1.31-2.71,1.71-4.08,4.5-4.16,1.91,4.05,3.61,8.23,5.85,12.08.76,1.31.75,5,3.64,3.31a4.83,4.83,0,0,0,1.8-6.5,30.09,30.09,0,0,0-5.31-7,9.33,9.33,0,0,1-2.9-8l10.88,1.28c.28,1.33.71,2.29,2.06.77l4,.09c.35,1.76-1,4.07,1.9,5,2.34.74,4,.51,5.42-1.72a4.77,4.77,0,0,1,4.69-2.29A3.34,3.34,0,0,0,248,461.6c-1.07,1.51-.21,2.75.5,4.06,1.09,2,2.33,4.08,2.37,6.42.08,6.06,3.74,7.3,8.79,6.87,4.85,3.78,8.89.21,13.14-1.45A16.79,16.79,0,0,1,284,482.73a7.37,7.37,0,0,0,6.81,2.42c-2.93-6.57-10.39-7.92-13.41-13.9,2.56-1.95,4.54,0,7,2.08,0-3.88-1.92-6.29-3.6-8.79a6.91,6.91,0,0,0-2.12-5c-1.41-3.18-1.88-8.73-6.74-6.48-3.41,1.58-.9,6.05.35,9.16.54,1.37,1.06,2.75,1.59,4.12-1.36,1.55-1.64-.18-2.31-.76a20.52,20.52,0,0,1-6.38-9.52c-.91-2.47-2.17-3.07-4.42-1.94l-3.16.61c-1.4-.38-2.55.36-3.73.88l-9,2-5.31-1.15,1-1.89c5.18-1.11,10.51-1.72,15.28-4.27l3.47,0c1.73-.17,4.67,1.36,4.81-1.21.18-3.05-.59-6.73-5.24-6.57l-.23-2.75c0-1.47.67-3.12-1.08-4.14l-.28.15.43-2.21,1.08-1.07c1,.64,2,1.28,2.93,1.93l1.09.1c0,.7,0,1.41,0,2.11.39,3.61,2.35,6.65,3.61,9.95,1,2.58,2.94,1.75,4.45,1.1,2-.88.31-2.13-.17-3.08-.88-1.74-2-3.39-3-5.07,0-4.46-2.77-7.68-5.13-11.07.11-2-.07-4.24,3.05-3.9l.05,0a1.89,1.89,0,0,0,1.06,1.88c5.28,6.58,12.14,11.51,18.13,17.35.82.79,1.95,1.27,2,2.61-2.5.29-5.12-.42-8.32.89,5,3.26,9.82,1.87,14.4,2,2.07,0,4.13,0,6.19-.09,1.11-.06,2.39-.23,1.62-2l1.05-14.73c1.83-4.32.67-8.85.81-13.27.22-6.8.06-13.61.06-20.56.44.21.79.26.85.42.55,1.61-.47,4.71,1.75,4.55,2.59-.18,1.33-3.24,1.33-4.95,0-11.88.74-23.78-1.65-36,4.06,1.74,1.77,5.42,3.38,7.56q1.62,28.74,3.23,57.47c0,3.55.09,7.1.13,10.65a7.44,7.44,0,0,0-.41.91c-1.53,4.48-1.37,5.13,2,8.28,1.43,1.34,1.65,2.71.35,4.33a11.71,11.71,0,0,1-10,4.51l-2,0,0-.19-1.26-.71c-1.57.91-4.06-3.95-5,.79-2.42,1.52.27,2.39.58,3.43.76,2.59,2.82,4.74,2.66,7.68-3.22,1.05-1.82,3.24-1.34,5.25.31,1.3,2.58,3-.62,3.73l-.36-1.21c-.86.68,0,.87.34,1.22l.21,7.1.11,2.09a26.22,26.22,0,0,1,.69,7.8h-22A53.64,53.64,0,0,1,266.12,485.61Zm15.27-31.34a3.59,3.59,0,0,0-.33.25c.2.37.43.72.65,1.07-.06,2.89,2.27,4.7,3.27,7.12.46,1.12,1.41,2,2.74,1.09a2,2,0,0,0,.45-3.05c-1.85-2-3.27-4.66-6.31-5.29Z"/><path class="cls-2" d="M303.75,28.7a10.09,10.09,0,0,0-2.8.8q-15.12,9.55-30.18,19.22c1.55,3.94,2.56,7.83-.87,11.43-1,1-1.07,1.91.6,2.56,3.65,1.41,2.38,2.82-.19,3.95-1.81.79-3.7,1.38-5.56,2l-13.83,7-3.16,3c0,1.84,2.46,2.65,2,4.69l1.69-.15,1.31-.73a5.2,5.2,0,0,1,0-.88c-.08-2.79.34-4.89,3.9-3,1.17.62,2.39,1.26,3.79.69a9,9,0,0,1,9,1.27c6.06,4.34,12.89,4.54,19.89,4.1,6.51-.41,7.36-1.37,7.45-7.67.07-4.36,0-8.52-2.75-12.35-1.24-1.71-2.18-4.18,1.13-5.73,4.91-2.3,11.49-.41,15-6,3.48,3.15,4.47-1.16,6.56-2.19v-17a11,11,0,0,1-2.22-.52c.24-4.58-2.29-1.73-3.85-1.49C307.75,32.16,304.22,33.91,303.75,28.7Z"/><path class="cls-3" d="M316.75,50.72c-2.09,1-3.08,5.34-6.56,2.19-3.54,5.63-10.12,3.74-15,6-3.31,1.55-2.37,4-1.13,5.73,2.77,3.83,2.82,8,2.75,12.35-.09,6.3-.94,7.26-7.45,7.67-7,.44-13.83.24-19.89-4.1a9,9,0,0,0-9-1.27c-1.4.57-2.62-.07-3.79-.69-3.56-1.88-4,.22-3.9,3,6.85,4.14,15.17,2.14,22.32,5.13a54.8,54.8,0,0,1-20.59,1.6c-2,.12-4,.52-6-.15L246,89l-.07,2.51,1.75,1.54c.54,0,.79.22.76.75l.23.23c.54,0,.8.23.76.77l.24.25c.53,0,.78.21.73.75l.26.3.77.7.25.2c.53,0,.78.19.65.74l5.38,5.14a2.54,2.54,0,0,1,2.4,1.6.61.61,0,0,1,.63.32c9.33,4.38,18.72,4,28.15.31l1-.37a10.79,10.79,0,0,1,4.94-2.92l1.29-1a2.93,2.93,0,0,1,2.69-2.1l0,0a2.14,2.14,0,0,1,2-1.91l.05,0a1.9,1.9,0,0,1,1.95-1.84.57.57,0,0,1,.51-.48c.38-.4.77-.79,1.16-1.18l.84-.82,1.18-1.16,1.8-1.86,8.43-11.73Z"/><path class="cls-4" d="M316.75,238.64c-4.36,2.3-7.75,5.83-11.45,9-1.89,1.61-3.67,3.28-6.32,3.45.37,1.89-1.82,2.16-2.25,3.55,1.4,2.47,1.08,2.74-3.7,3.12l-1.24,1c.71,3-3.77,4.55-2.07,7.78l3,0,3-.94c-.23-3.64,2.88-3.2,4.95-4,.42-1.29-2.25-3.41,1-3.93,5.57.09,5.86.6,3.33,5.37a8.74,8.74,0,0,1-3.14,3.69c-.28,2.3-.48,4.66-3.46,5.16a8,8,0,0,1,2.14,4.86c.24,5.29.69,10.56.83,15.84.32,12.05.5,24.1.73,36.15,2.78.44.78,3.43,2.39,4.65.66-17-1.56-33.89.2-50.74-1.36-1.52-1-3.17,0-4.85v4.85l2,.17c1.88-1.79,0-3.36-.4-4.94-.34-1.39-1.26-2.52-1.28-4.17,0-2.58.47-4.17,3.43-4.08,2.55.07,5.25-.17,5.27,3.54a26.72,26.72,0,0,1-.23,5.45c-.7,3.48.12,6.17,3.24,8v-40c-3.22,1.83-4.29,5.37-6.38,8.09-1.2,1.58-2.39,2.52-4.05,1.12-2.25-1.92.42-2.41,1.28-3.09a5.93,5.93,0,0,0,2.19-3.11,10.13,10.13,0,0,1,7-7Z"/><path class="cls-5" d="M143.83,493.53h49c.05-2.94-1.27-4.67-4.29-5-2.35-.24-4.85-.61-5.5-3.31-.71-2.92,1.7-4.24,3.51-6,2.61-2.49,6.61-2.1,9-4.75.63-.69.8-2,2.08-1.61,1.45.45,1,1.85,1.19,2.95.41,3.08-.57,6.66,3,8.67a111,111,0,0,0-1.12-19.78c-5.6,2.63-10.41,6.92-16.75,8a24.44,24.44,0,0,1-11.11,5.74c-.41.5-.73,1.35-1.24,1.47-8.73,2.2-16.09,7.59-24.56,10.36C145.3,490.86,143.87,491.45,143.83,493.53Z"/><path class="cls-5" d="M298.73,467.55c-3.22,1.05-1.82,3.24-1.34,5.25.31,1.3,2.58,3-.62,3.73h0l.21,7.1,3.79-.11c-.08-2.4.14-5.62,2.83-5.43,4.52.32,5.87-2.94,8-5.38,1.51-1.72,2.56-3.87,5.17-4.18v-30h-5a7.44,7.44,0,0,0-.41.91c-1.53,4.48-1.37,5.13,2,8.28,1.43,1.34,1.65,2.71.35,4.33a11.71,11.71,0,0,1-10,4.51l-.72,2,.13,1.93a1.28,1.28,0,0,1-.14,2.09l-.15.25c-.08,3.12-.27,6.2-3.42,8C298.32,469.83,298.93,468.61,298.73,467.55Z"/><path class="cls-6" d="M201.79,484.53c-3.55-2-2.57-5.59-3-8.67-.15-1.1.26-2.5-1.19-2.95-1.28-.39-1.45.92-2.08,1.61-2.4,2.65-6.4,2.26-9,4.75-1.81,1.73-4.22,3.05-3.51,6,.65,2.7,3.15,3.07,5.5,3.31,3,.31,4.34,2,4.29,5h12c0-1,0-2,0-3C200.85,490,202.05,486.9,201.79,484.53Z"/><path class="cls-7" d="M316.75,369.58a1.47,1.47,0,0,0-.85-.14c-2.47,0-2.38-2.27-2.93-3.6-8.11-19.68-18.47-38.24-28.28-57.07-1.08-2-.85-4.69-3-6.19.58,2.67-.73,5.61,1.19,8.07,1.31.61,1.65,1.81,2.17,3.06,2.27,5.43,4.39,10.94,7.7,15.87,3.93,3.45,5.11,8.43,7.21,12.91a129.53,129.53,0,0,1,8.78,20.58c2.24,6.45,5.41,12.64,6,19.6,1.49,1.3-1.28,4.38,2.05,4.91Z"/><path class="cls-8" d="M143.83,493.53c0-2.08,1.47-2.67,3.18-3.23,8.47-2.77,15.83-8.16,24.56-10.36.51-.12.83-1,1.24-1.47,0-1.31,0-2.61,0-3.92-.71-1-1.4-.91-2.08,0,.34,3.14-1.84,3-3.91,3-2.46,2.31-5.74,3.52-8,3-1.09,0-2.23.13-3-.94h-1.92c-.21,1-.71,2-1.86,1.87-3.06-.23-4.25,1.76-5.21,4.11.82,1.63.94,2.82-1.45,3a15.51,15.51,0,0,1-9.55-2c-.32,2.5-2.6,2.79-4.3,3.51s-3,1.39-2.69,3.46Z"/><path class="cls-5" d="M204.79,490.53v3h6c-.54-3,2.26-4,4.18-5.79-5.14-1-5-1-5.23-6-.26-4.66.85-9.31-1.44-14-1.31-2.71,1.71-4.08,4.5-4.16,0-1,0-2,0-3l-3.06-.11-4.86,2.2-1,1C203.12,472.63,205.51,481.53,204.79,490.53Z"/><path class="cls-5" d="M309.59,286.17a8.82,8.82,0,0,0,7.16,1.45v-1c-3.12-1.86-3.94-4.55-3.24-8a26.72,26.72,0,0,0,.23-5.45c0-3.71-2.72-3.47-5.27-3.54-3-.09-3.46,1.5-3.43,4.08,0,1.65.94,2.78,1.28,4.17.39,1.58,2.28,3.15.4,4.93,0,.31,0,.62.07.92C308.51,283.64,308.77,285.22,309.59,286.17Z"/><path class="cls-6" d="M316.75,468.54c-2.61.31-3.66,2.46-5.17,4.18-2.13,2.44-3.48,5.7-8,5.38-2.69-.19-2.91,3-2.83,5.43l0,0c3.88-1.82,2.73,1.26,2.94,3l.2,3c2.48-.28,3.36-2,4.48-4,2.24-4,3.94-8.59,8.36-11Z"/><path class="cls-6" d="M128.83,493.53c-.26-2.07,1-2.75,2.69-3.46s4-1,4.3-3.51l-8,0c-2.79,1.17-2.87,1.09-3-2.93,0-1.95.28-4-2.06-5.07-1.62.3-1.85,1-.78,2.28s.89,2.62-.43,3.8c-2.68,2.42-2.81,5.65-2.74,8.93Z"/><path class="cls-5" d="M316.75,474.54c-4.42,2.42-6.12,7-8.36,11-1.12,2-2,3.76-4.48,4l-.15,3.94h5c2-3.08,4.26-5.89,8-7Z"/><path class="cls-4" d="M118.84,493.53c-.07-3.28.06-6.51,2.74-8.93,1.32-1.18,1.56-2.45.43-3.8s-.84-2,.78-2.28c0-1.33,0-2.66,0-4v-1.91a3.34,3.34,0,0,1-2.46-1.61l-1.31,1.63a6.26,6.26,0,0,1-.86,4l-.37,1.87a2.5,2.5,0,0,1-.75,2.65c-.16.89-.31,1.78-.47,2.66-.59,3.23-1.17,6.46-1.76,9.68Z"/><path class="cls-8" d="M303.75,28.7c.47,5.21,4,3.46,6.93,3,1.56-.24,4.09-3.09,3.85,1.49a11,11,0,0,0,2.22.52v-7c-1.55-1.17-2.86-2.77-5.06-2.73-1.56,3-3.76,4.8-7.36,4.15A.64.64,0,0,0,303.75,28.7Z"/><path class="cls-6" d="M316.75,242.64a10.13,10.13,0,0,0-7,7,5.93,5.93,0,0,1-2.19,3.11c-.86.68-3.53,1.17-1.28,3.09,1.66,1.4,2.85.46,4.05-1.12,2.09-2.72,3.16-6.26,6.38-8.09Z"/><path class="cls-4" d="M303.76,493.53l.15-3.94c-.06-1-.13-2-.2-3-1.08-.05-2.2.05-2.95-1l-3.69.16a26.22,26.22,0,0,1,.69,7.8Z"/><path class="cls-6" d="M316.75,427.56a11.19,11.19,0,0,1-5.11.33c0,3.55.09,7.1.13,10.65h5v-2c-1.74-.3-3.28-1.46-3.21-3s2.08-.73,3.21-1Z"/><path class="cls-8" d="M316.75,486.53c-3.74,1.11-6,3.92-8,7h1C316.75,493.53,316.75,493.53,316.75,486.53Z"/><path class="cls-9" d="M316.75,77.71l-8.43,11.73c2.66.39,3-2.18,4.33-3.44s2-3.1,4.1-3.29Z"/><path class="cls-8" d="M316.75,432.56c-1.13.29-3.13-.64-3.21,1s1.47,2.68,3.21,3Z"/><path class="cls-6" d="M96.76,364.56c4.1-7.11,9.44-13.84,7-22.95a2.5,2.5,0,0,1-.65-2.71l-.38-1.29c-3.09.81-6.82.13-8.83,3.5-1.53,2.56-2.83,5.25-4.26,7.87-1,1.86-1.9,4.86-4.23,4.2-2.49-.69-3.73-3.47-3.56-6.36.08-1.32.3-2.63.39-3.95.44-6.46,6.14-9.94,8.61-15.25-3.76.24-7.09,2.86-11.05,2-.31,0-.63,0-.95,0,.43,4-4.33,1.43-5,4,1.62,1.32.61,2.64,0,4-1.74,4-3.47,8.08-5.2,12.12-3.53,8.25-8.17,15.76-14.81,21.91,0,.66,0,1.31,0,2,4.42-1.3,6.39-5.36,9.82-9.43l-.81,4.44c3.08.44,6-.71,9-1,2.15-5.76,4-11.69,8.26-17.05,1.91,5.7-.43,10.33-.22,15.05,5.21,2.44,5.32,2.81,1.76,6.72-.91,1-1.86,1.89-1.22,3.46s-.76,1.75-1.5,2.65c-4.33,5.29-10.73,4.45-16.22,6.2-3,1-6,1.74-8.69-1.17-1.26-1.37-2.74-1.06-3.14,1.13.67.43.55.75-.12,1l-.88.92c.21,1.18-.31,2.9,1.93,2.54a20.52,20.52,0,0,1,2.9-.44c2.15,0,4.58.14,5.74,2,1.39,2.28-1.41,3.2-2.25,4.8-.95,1.8-4,2.44-3,5.3,13.65-8.14,26.59-17.18,36.65-29.75-3.37-1.46-6.11-3-1.55-6.43A3.42,3.42,0,0,0,91.48,363c.64-1.93,2-3.69,3.85-3.09,2.63.83-.25,3.12.52,4.65h0C96.15,364.56,96.45,364.55,96.76,364.56Z"/><path class="cls-5" d="M53.87,371.61c6.64-6.15,11.28-13.66,14.81-21.91,1.73-4,3.46-8.09,5.2-12.12.58-1.35,1.59-2.67,0-4-3.89,2.9-8.82,1.65-13.14,3.32-5.7,2.21-11.87,3.19-17.84,4.69h0c-1.32,1.78-2,4.3-5,4.05-1.14,3.48-5.78.31-7,3.67,4.68.4,5.24,1.44,2.64,5.15a23.49,23.49,0,0,1-3,3.33c-3.68,3.58-7.41,7.1-11.12,10.65,2.89.35,5.73-1.61,8.7-.09.72.37,1.37-.56,1.92-1.21,5.71-6.75,12.82-12.17,18.11-19.31a4.69,4.69,0,0,1,3.66-2.26c.12-.62.14-1.33.95-1.43.17,0,.56.37.54.53-.11.81-.82.83-1.43.95-.3.75-.38,1.75-.92,2.22-6.12,5.32-9,13.25-15.18,18.54-1.13,1-.91,2.39-.74,3.72,7.8-5.49,12.94-13.71,20.13-20-.22,6.3-3.57,11.22-5.79,16.55,3.22-1.56,5.07-1.1,4.48,3A14.08,14.08,0,0,0,53.87,371.61Z"/><path class="cls-3" d="M125,290.63c-2,9.94,1.91,17.35,9.91,23,2-.13,2.42-1.71,3.19-3.23,1.22-2.4,3.51-5.15,6-4.19,3.65,1.39,7.57.76,11,2.4,3.09,1.46,5.6,1,8-1.52,1.22-1.29,2.84-3.19,4.65-.46h3c2.62-4.92.7-8.67-4.62-7.58-4.67,1-5.28-1.48-6.37-4.41-2.08.36-3.44-1.08-5-2-2,2.36-3,2.86-8.39,4.12-.91.21-1.21,1-1.75,1.59-3.5,4-3.9-2.35-6.66-2.13-1.62.12-.8-1.91-.17-3.13a30.94,30.94,0,0,1,9.89-10.73c2.42-1.74,4.89-3.36,7.16-6.81-8.8,3.25-16,6.83-21.3,13.54-.91,1.15-1.53,1.12-1.76-.44C129.24,288.18,128.5,294,125,290.63Z"/><path class="cls-2" d="M53.87,371.61a14.08,14.08,0,0,1,0-1.95c.59-4.13-1.26-4.59-4.48-3-2.88,5-6.38,9.57-8.53,14.95,2,.91,1.89,2.29,1,4s-2.2,3.69-2,6h0l5,1,1.86-1.13c.5-2,1.25-3.83,3.13-4.95l.88-.92.12-1c.4-2.19,1.88-2.5,3.14-1.13,2.69,2.91,5.65,2.15,8.69,1.17,5.49-1.75,11.89-.91,16.22-6.2.74-.9,2.14-1.09,1.5-2.65s.31-2.46,1.22-3.46c3.56-3.91,3.45-4.28-1.77-6.72A16.53,16.53,0,0,0,77,371.83c-.28,1.08-.14,2.53-1.78,2.51A3.1,3.1,0,0,1,72.29,372a23,23,0,0,1-.45-4.41c-3,.3-5.89,1.45-9,1a64.8,64.8,0,0,1-2,7.07c-1,2.65-3.23,3.92-6.17,3.94-2.16,0-3-1-2.87-3-.76-1.4.53-.78,1-1l1-2Z"/><path class="cls-6" d="M7.89,346.59c-1.08.41-.17,1.18-.29,1.77.46.77.9,1.53,1.34,2.29,1.67-.56,2.36-2,5.29-1a11.89,11.89,0,0,0,12.7-4c-1.7-2.83,1.71-3,2.55-4.42s2.25-2.51,2.47-4.57c.57-5.18,2.28-5.85,6.59-3,5.74,3.82,5.87,3.86,8.59-2.59,1.48-3.51,3.45-4.17,6.5-2,1.07.75,2.07,1.89,3.5.67.9-.77,1.75-1.6,1.53-2.94-.31-1.88-1.94-2.19-3.36-2.46-2.28-.43-4.75-.06-6.67-1.8l-3.37-.39a2.18,2.18,0,0,1-.37.49,12.17,12.17,0,0,1-3.06,6.95c.21.85,1.41,2.09.19,2.47-1.63.52-2.36-1.23-3.16-2.41l-2,0c-6.95,0-7.57-.72-6-6.8-2.16.08-4,1.09-6,1.89a39,39,0,0,1-6,10.35c-2.74,3.34-4.53,8.74-10,9.53h0C9.06,345.49,9,346.31,7.89,346.59Z"/><path class="cls-1" d="M126.84,344.5a2.39,2.39,0,0,0-2.39-.73l-4.53-1.84c1.31-1.71.79-2.38-1.16-3.32-4.35-2.09-9.71-2.34-12.85-6.74l38.92,14.67,3.8,1.63,2.19,1.44c-.21.69-1.61,1.15-.95,1.82,1.58,1.61,3.44,1.09,5.18,0l10,4.54c.48,3.73,2.11,5.43,5.89,3.35l4.81,1.27v0c3.85,3.5,9.06,4.78,13.06,8a7.28,7.28,0,0,0-1,4.12l-2.89-.6c1.49,2.14,2.67,3.78,5.24,3.48l.37-.05c.08.63.17,1.25.25,1.88-2.22.7-2.94,3.1-4.77,4.24l-2.11-.13-1.09-1-1.06.06a4.17,4.17,0,0,1,0-.5c1.23-10.79,1.06-11-9.84-14.6L159.82,359Zm17,4.79c.11,0,.21-.15.31-.23l-.66.06C143.62,349.18,143.74,349.31,143.85,349.29Zm-15.15-6a1.24,1.24,0,0,0,.36-.11c0-.11-.07-.3-.11-.3a1.3,1.3,0,0,0-.37.11C128.62,343.12,128.66,343.31,128.7,343.31Z"/><path class="cls-6" d="M35.06,370.1c-.17-1.33-.39-2.74.74-3.72,6.14-5.29,9.06-13.22,15.18-18.54.54-.47.62-1.47.92-2.22l-.06-.05a4.69,4.69,0,0,0-3.66,2.26c-5.29,7.14-12.4,12.56-18.11,19.31-.55.65-1.2,1.58-1.92,1.21-3-1.52-5.81.44-8.7.09a20.26,20.26,0,0,0-4.93,5.06c1.5.1,2.42,1.12,1.22,2.12-2.94,2.45-2.63,6.44-4.83,9.16,3.4.49,6.84-1.68,10.23.13Z"/><path class="cls-4" d="M80.83,279.58c-4.57,0-9,.44-13,2.95q-.48,6-1,12.07c2.05-.34,3.89-1,5-3-.12-2.95,1.66-5.1,3-8.3,1.12,2.1,2.68,3.37,3.13,4.39,1.28,2.85,5.1,2.56,5.87,5.65,1.32,5.24,5.29,9.66,4.76,15.53-.08.93,1.07,1.6,2.16,1.75,0-5.24,0-10.48.07-15.71,0-1.67-.68-3.8,2-4.31.29-1.35-1.73-2.74.1-4.05q-2.23-3.9-4.48-7.8c-2.14.47-1.37,2.34-1.68,3.64-.71,2.94-2,5.22-5.49,5.36-.63-2-.7-3.75.83-5.49C83.49,280.72,82.27,280,80.83,279.58Z"/><path class="cls-4" d="M134,268.11c-.66.94-1.33,1.87-2,2.81-3.1,5.58-6.44,11.08-6.77,17.72,3-.14,5.12-1.66,6.8-4.17,1.42-2.14,2.92-4.42,5.85-4.84h0c2.13-6.22,6.07-10.75,12.38-12.94a3.37,3.37,0,0,0,2.65-3.11c-4.44.93-8.92,1.72-13.05,3.86,3.43-5.22,6.58-10.53,13.49-12-1.62-.91-3.4-.87-3.48-2.83l-2.1-.94-.93,1c.16,1.37.09,2.63-1.5,3.19l-.87.89-2.15,2.08c-.54.59-1.09,1.17-1.64,1.76l-1.8,2-2.89,3C135.29,266.49,134.63,267.3,134,268.11Z"/><path class="cls-8" d="M167.81,306.62c-1.81-2.73-3.43-.83-4.65.46-2.39,2.51-4.9,3-8,1.52-3.44-1.64-7.36-1-11-2.4-2.51-1-4.8,1.79-6,4.19-.77,1.52-1.15,3.1-3.19,3.23a28.2,28.2,0,0,0,5.64,6.39,9.3,9.3,0,0,0,1.06-2.71c.15-2.5.85-4.29,3.79-3.55,2.79.71,3.52,2.46,2.47,5.21a34.72,34.72,0,0,0-1.13,5.23l.61.3a2.49,2.49,0,0,1,1.32-2.19c3.81-7.07,11.9-7.82,17.67-12,.52-.38,1-.76,1.55-1.15Z"/><path class="cls-8" d="M90.87,327.62c-2.47,5.31-8.17,8.79-8.61,15.25-.09,1.32-.31,2.63-.39,3.95-.17,2.89,1.07,5.67,3.56,6.36,2.33.66,3.22-2.34,4.23-4.2,1.43-2.62,2.73-5.31,4.26-7.87,2-3.37,5.74-2.69,8.83-3.5,0-.7,0-1.39.07-2.09a18.2,18.2,0,0,0-5.93-6.81c-1.87.76-3.91,1.46-.54,3.15,1.54.77,3.31,1.71.92,3.44-1.08.79-2,2.92-3.6,1.78a4.43,4.43,0,0,1-1.55-4.44C92.54,330.65,93.4,328.79,90.87,327.62Z"/><path class="cls-8" d="M39.87,391.57c-.2-2.28,1-4.1,2-6s1-3.11-1-4a73,73,0,0,0-8.31,23.09c-.79,4.64,2.8,4.55,4.76,4.19,2.88-.53,6.23-.66,8.53-3.1-1.52-1.81-3.36-3.47-3-6.2l2-7-5-1-.39.2Z"/><path class="cls-8" d="M90.79,310.65c-1.09-.15-2.24-.82-2.16-1.75.53-5.87-3.44-10.29-4.76-15.53-.77-3.09-4.59-2.8-5.87-5.65-.45-1-2-2.29-3.13-4.39-1.33,3.2-3.11,5.35-3,8.3a22,22,0,0,0,3.37.64c5.24.17,5.83.83,4.83,6.07a7.56,7.56,0,0,0,.78,5.26c0,.33,0,.66,0,1,5.15,2.44,4.6,7.72,6,12l4,4,1.38-7.88A2.24,2.24,0,0,1,90.79,310.65Z"/><path class="cls-10" d="M56.89,288.7c-11.48,6.9-21.79,15.13-29.82,26-.31,1.84-2.08,3.46-.66,5.89a9.87,9.87,0,0,1,5.49-4.1c1-3,3.75-4.15,6-5.88,0-1.69.23-3.22,2-4l1.94-1c.59-3.75,3.24-5.91,6.08-7.93l2-1a2.09,2.09,0,0,1,2-1h0C52.42,292.5,55.89,291.49,56.89,288.7Z"/><path class="cls-4" d="M42.9,399.56c-.41,2.73,1.43,4.39,3,6.2l9.32-5c-1-2.86,2.07-3.5,3-5.3.84-1.6,3.64-2.52,2.25-4.8-1.16-1.91-3.59-2-5.74-2a20.52,20.52,0,0,0-2.9.44c-2.24.36-1.72-1.36-1.93-2.54-1.88,1.12-2.63,2.95-3.13,4.95,3.57.08,3.79,2.36,2.63,4.73S47.31,402.83,42.9,399.56Z"/><path class="cls-8" d="M49.87,296.66l-2,1c1.12,3.9-3,5.1-4.06,7.9a10.32,10.32,0,0,0,7.64-3.66c3.92-4.55,9-7.49,15.39-7.32l1-12.07-8.95,5.3c0,4.67-2.49,7.15-7,7.8h0C51.65,296.84,51.43,298.06,49.87,296.66Z"/><path class="cls-10" d="M24.9,324.68l-2-.23c-8,4.4-11.28,12.06-14,20.11,5.47-.79,7.26-6.19,10-9.53A39,39,0,0,0,24.9,324.68Z"/><path class="cls-4" d="M90.83,320.6l-4-4c0,1.67,0,3.33-.05,5,1.58,2.88,1.13,4.71-2.51,5-2,.16-4,.46-4.49,3,4,.88,7.29-1.74,11.05-2,2.53,1.17,1.67,3,1.25,5a4.43,4.43,0,0,0,1.55,4.44c1.65,1.14,2.52-1,3.6-1.78,2.39-1.73.62-2.67-.92-3.44-3.37-1.69-1.33-2.39.54-3.15a1.08,1.08,0,0,0,0-.64C93.61,326.6,90.53,325,90.83,320.6Z"/><path class="cls-6" d="M96.9,328.07a1.08,1.08,0,0,1,0,.64,18.2,18.2,0,0,1,5.93,6.81c5.73,2.05,11.14,5,17.1,6.41,1.31-1.71.79-2.38-1.16-3.32-4.35-2.09-9.71-2.34-12.85-6.74Z"/><path class="cls-10" d="M90.79,310.65a2.24,2.24,0,0,0,1.42,2.07,21.3,21.3,0,0,0,3.48-9.18c-1.81-4.11-.15-9-2.85-12.91-2.66.51-2,2.64-2,4.31C90.78,300.17,90.8,305.41,90.79,310.65Z"/><path class="cls-4" d="M10.91,384.78c2.2-2.72,1.89-6.71,4.83-9.16,1.2-1,.28-2-1.22-2.12-1.06.79-2.16,1.43-3.57,1-.94,3.11-3.71,4.44-6,6.21,2.22,2.5,5.68,4.94.39,7.81-.14,2.21.44,4.08,2.52,5.22.09-2.61.29-5.18,2.24-7.21Z"/><path class="cls-8" d="M5.31,388.49c5.29-2.87,1.83-5.31-.39-7.81-1.27-4.94,1.11-9.36,2-14C4.1,368,3.43,371.51.58,372.77Q3,380.63,5.31,388.49Z"/><path class="cls-7" d="M.58,372.77c2.85-1.26,3.52-4.79,6.34-6.08l2.19-3c-.65-3,1.57-4.87,2.78-7.15-3.29-1.12-4.21,2.8-6.79,3.18l0,.08c0,1.56-.44,2.95-2,3.7C3.21,366.86-1.63,368.87.58,372.77Z"/><path class="cls-8" d="M95.85,364.59c-.77-1.53,2.11-3.82-.52-4.65-1.89-.6-3.21,1.16-3.85,3.09a3.42,3.42,0,0,1-1.21,1.54c-4.56,3.39-1.82,5,1.55,6.43,2.71-1.33,3.76-3.93,4.94-6.44-.31,0-.61,0-.91,0l-.38.21Z"/><path class="cls-4" d="M146.78,324.19a34.72,34.72,0,0,1,1.13-5.23c1.05-2.75.32-4.5-2.47-5.21-2.94-.74-3.64,1.05-3.79,3.55a9.3,9.3,0,0,1-1.06,2.71l-.06.34.25.22c1.88.1,4.22-.58,3.48,2.94a4.71,4.71,0,0,0,1.45,4.06A5.27,5.27,0,0,0,146.78,324.19Z"/><path class="cls-7" d="M80.83,279.58c1.44.43,2.66,1.14,1.29,2.71-1.53,1.74-1.46,3.51-.83,5.49,3.53-.14,4.78-2.42,5.49-5.36.31-1.3-.46-3.17,1.68-3.64-.38-.81-.06-2.82-.83-2.37C85.45,277.71,82.18,276.68,80.83,279.58Z"/><path class="cls-8" d="M10.07,386.5c-2,2-2.15,4.6-2.24,7.21,1,1.58,2.53,3.68,4.07,2.65,2.12-1.44,4.4-3.52,4-6.78C13.11,390.21,11.8,388,10.07,386.5Z"/><path class="cls-7" d="M10.07,386.5c1.73,1.45,3,3.71,5.87,3.08a7.83,7.83,0,0,0,5.2-4.67c-3.39-1.81-6.83.36-10.23-.13Z"/><path class="cls-8" d="M137.84,279.63c-2.93.42-4.43,2.7-5.85,4.84-1.68,2.51-3.77,4-6.8,4.17l-.15,2c3.46,3.36,4.2-2.45,6.79-2C132.72,284.89,137.12,283.49,137.84,279.63Z"/><path class="cls-8" d="M92.84,290.63c2.7,3.91,1,8.8,2.85,12.91,1.2-6,1.37-11.82-2.75-17C91.11,287.89,93.13,289.28,92.84,290.63Z"/><path class="cls-5" d="M8.94,350.65c-.44-.76-.88-1.52-1.34-2.29-.39.28-.77.57-1.14.86A1.06,1.06,0,0,1,6,350.61c-1,3-1.95,6-2.93,8.95l2,.26,0-.08C5.62,356.39,9,354.26,8.94,350.65Z"/><path class="cls-4" d="M51.88,295.63c4.51-.65,7-3.13,7-7.8-1-.39-1.52.14-2,.87C55.89,291.49,52.42,292.5,51.88,295.63Z"/><path class="cls-3" d="M145.71,327.57a4.71,4.71,0,0,1-1.45-4.06c.74-3.52-1.6-2.84-3.48-2.94a25.1,25.1,0,0,1,2.35,7.53C145.53,329.43,145.53,329.43,145.71,327.57Z"/><path class="cls-5" d="M150.82,349.61c-.21.69-1.61,1.15-.95,1.82,1.58,1.61,3.44,1.09,5.18,0l-2.3-1.63Z"/><path class="cls-4" d="M5.06,359.82l-2-.26c0,1.32,0,2.64,0,4C4.62,362.77,5,361.38,5.06,359.82Z"/><path class="cls-10" d="M7.89,346.59c1.15-.28,1.17-1.1,1-2Z"/><path class="cls-8" d="M103.13,338.9a2.5,2.5,0,0,0,.65,2.71A2.88,2.88,0,0,0,103.13,338.9Z"/><path class="cls-6" d="M126.84,344.5a2.39,2.39,0,0,0-2.39-.73A1.85,1.85,0,0,0,126.84,344.5Z"/><path class="cls-10" d="M6,350.61a1.06,1.06,0,0,0,.48-1.39Z"/><path class="cls-11" d="M21.89,321.6l-.22-.36.2.37Z"/><path class="cls-11" d="M23.88,317.61l-.2-.37.2.37Z"/><path class="cls-2" d="M218.8,131.68a3.94,3.94,0,0,0-5-.27,17.67,17.67,0,0,1-9-2.19c.57-3.38,1.31-6.74-4.27-4.69-1.84.68-3.66.25-3.81-2.44-.17-3.06-2-4.39-5-4.35-6.36.07-10.21-4.23-13.15-8.75-3.79-5.84-9.53-8.67-15-12.08a5.51,5.51,0,0,1-.75-.33c-1.17-3.29-3.72-4.14-6.88-3.91-.5-2.08-2.46-3.56-2.4-5.87,1.55-2.47.6-3.63-2.05-3.89l.08.06c-.3-4.37.5-8.76-1.63-13.07-2-4.08-.77-5.41,4.7-6.49,6.79,6.38,14.92,6,23.26,4.65l6.91.33c-4.52,3.47-9.83,1.92-14.83,2.38-1.77.16-4.42-1.18-5,1.77-.45,2.41,2,2.81,3.54,3.52,11,5.09,22.67,5,34.78,3.74-7.82,0-8.42-6.36-10.59-11.24,3.65-1.42,7.66,2,11.2-.84a.85.85,0,0,0,.3.73c3.59.42,6.67,1.43,7.69,5.55.56,2.26,2.38,2.81,4.61,2.75,3.62-.09,7.07-1.27,10.75-1.14,3.29.12.75-2.84,1.64-4.11,3.25,3.84,4.76,8.7,7.5,12.85.63,1,.74,2.23,2.17,2.42l.36,2.58c.06,1.3-.38,3,.26,3.83,4.31,5.64,3.47,12.14,3.51,18.52l-.75,2.38a.63.63,0,0,1-.25.61,1.16,1.16,0,0,0-.54,1.5c-.18.83-.35,1.66-.52,2.5l-.16.36-1,1.57-.71,1.32C233.22,127.33,227,131.61,218.8,131.68ZM213,87.47c-1,3.3-2.39,6.52-2.4,10.1,0,1.26-1,2.66.49,3.56a4.09,4.09,0,0,0,4.7-.14c5.81-4.35,11.56-8.77,17.31-13.19,1.26-1,2.35-2.54,1.36-3.85-1.49-2-2-5.17-5.36-5.23-1.33,0-2.66,0-4,0C217.58,78.71,215.19,80.42,213,87.47Z"/><path class="cls-7" d="M226.88,1.22c-4.43-1.07-8.67.86-13,.85l-6.91,2a2.69,2.69,0,0,1-3.13.64l-4.56.18L194.9,6.3a1.08,1.08,0,0,1-1.25.94.65.65,0,0,1-.51.14c-.45,1.12-.91,2.24-1.37,3.36a1.06,1.06,0,0,1-.94,1.29c-.32.06-.77.3-1,.17C184.22,8,179.62,11.72,175,14.34s-10,4.5-14.26,8c-1,.79-2.74,1.31-2.11,2.93.51,1.31,2.13,1.58,3.44,1.54a159.45,159.45,0,0,1,26.73,1.92c.61-.39,1.22-.78,1.84-1.16-.28-3-3.51-2-5-3.52,2.23-1.87,4.74-1.22,7.09-1.38,2.59-1.2,5.34-.95,8.07-.85l2.95,0c-1.37-5.89,1.78-9.75,5.89-13.19,1.11-4.43,5.21-3.68,8.25-4.82S224.48,4.08,226.88,1.22Z"/><path class="cls-3" d="M192.13,30.71a46.62,46.62,0,0,1,2,4.56c.91,2.95-.74,5.12-2.58,7.1s-3.66.83-5.81.06c-11.56-4.15-23.13-8.25-33.65-14.76l.08.13L150.91,27a.57.57,0,0,1-.38.73c0,.66.05,1.31.07,2,.73,4,5.61,7.44,1.34,12.06-.47.51-.3,2,.08,2.85,1.15,2.47.46,4.78-.24,7.13.84-.12,1.35-.78,2-1.18,3.12-1.93,6.25-6.06,9.83-4.4,5.62,2.6,11.64,4,17.21,6.63,5.44-.29,10.5,2.48,16,2,0-2.16-.11-4.28,1.41-6.16.86-1.07,1.05-3.4.27-3.69-5.11-1.91-2.71-6.11-3.33-9.42C194.79,33.61,194.56,31.37,192.13,30.71Z"/><path class="cls-2" d="M192.13,30.71c2.43.66,2.66,2.9,3,4.74.62,3.31-1.78,7.51,3.33,9.42.78.29.59,2.62-.27,3.69-1.52,1.88-1.41,4-1.41,6.16a73.9,73.9,0,0,1,16,2c3.16.15,6.54-.8,9.21,1.83-2.23-8.11-7.43-14.91-10.11-22.82-2.2-2.2-2.94-5.66-6.07-7.06-2,1.57-3.94.51-5.92.08l-9.26-1.21-1.83,1.16Z"/><path class="cls-6" d="M151.28,226.61c-.11-1-.29-1.94-.43-2.92,4.05-4.3,10.48-6,13-12,2.68-.23,5.68.26,7-3,1.32.22,2.61-1.62,3.95-.06.56,1.07,4.14,1.58.5,3.44-1.7.87-2.28,2.77-2.49,4.66h0c-3.86-.26-5.13,3.07-8.37,5.8,4.18.23,5.15-3,7.37-3.8.43,1,1.31,2.21.17,3.16-3.1,2.61-1.31,3.85,1.94,4.73l-5.09,4.09c-5.4-1.33-6.24-.77-10,7.53-.85,1.89-1.43,3.72-4,3.46,1.24-3.25,2.63-6.44,3-9.94,2.57-.76,3.15-2.87,4.64-6.09-3.06,1.64-4.5,2.76-4.73,5a42.65,42.65,0,0,0-8,14.06l-4.69,1q0-3.51,0-7C148.27,237.36,151.72,230.65,151.28,226.61Zm12.68-2.7a1.25,1.25,0,0,0-.37.15s.07.22.11.33l.38-.14Z"/><path class="cls-7" d="M250.61,148.68l.24,1.88c.3,1.11.68,2.2.89,3.33,2.39,12.68,3.74,25.55,6.74,38.13l.55-3.43c1.3.72.57,3.13,2.65,3l-.43-6.85a26.81,26.81,0,0,1-1.63-8,3.55,3.55,0,0,1-.8-3.09l-1.29-11c-1.13-3.59-3.13-7.11-.77-10.95a146.16,146.16,0,0,0-5.07-24.86c-.31,1,.69,4.36-2.05,1.11-.38-.45-1.55-.24-2.35-.33l-.46,1.05a.73.73,0,0,1,.09.75,19.18,19.18,0,0,1,1.88,9.25l.15,1.71A17.07,17.07,0,0,1,250.61,148.68Z"/><path class="cls-7" d="M159.83,102.7a2.82,2.82,0,0,1,.36.88c2.87,5.41,6.94,9.92,10.93,14.49a4.8,4.8,0,0,1,3.08,2.43c1.55.07,2.49,1.24,3.64,2a4,4,0,0,1,3.48,1.91l.27-.13.28.12a5.5,5.5,0,0,1,4.48,2l2.46.22,1.05-.49c-2.39-2.16-5-4-7.26-6.38-5.67-5.86-9.59-13.27-16.32-18.18a8.18,8.18,0,0,1-2.67-4.69,5.51,5.51,0,0,1-.75-.33c-2.48.08-4.24-2.33-6.81-2C157.22,97.33,159.8,99.42,159.83,102.7Z"/><path class="cls-4" d="M193,180.18c-5.85,2.45-9.57,8.37-16.18,9.72-2,.41-2.55,2.79-3.06,4.72,1,1.68,3.94.79,4.46,3.68l-10.62,1.27c-2.8,1.26-4.59,3.66-6.57,5.83l2.84.27a45,45,0,0,0,16.68-6c2-1.27,4.4-2.46,4-5.11-.5-3.21-3.63-1.13-5.37-2-.22-.11-.3-.47-.65-1,9.56-3.78,17.49-11.09,28.26-12.07,1-.1,2-1.15,3-1.76l0-2.47c-5.08-.22-9.72,1.92-14.61,2.69A2.27,2.27,0,0,1,193,180.18Z"/><path class="cls-4" d="M163.61,96.91a8.18,8.18,0,0,0,2.67,4.69c6.73,4.91,10.65,12.32,16.32,18.18,2.28,2.36,4.87,4.22,7.26,6.38l3.6.87,1.39.58h0a3.08,3.08,0,0,1,3,.87l3.95,1.18,2,.15,1.06-.6c.57-3.38,1.31-6.74-4.27-4.69-1.84.68-3.66.25-3.81-2.44-.17-3.06-2-4.39-5-4.35-6.36.07-10.21-4.23-13.15-8.75C174.85,103.15,169.11,100.32,163.61,96.91Z"/><path class="cls-8" d="M209.82,175.16c0,.83,0,1.65,0,2.47,1.57-.18,2.18,1.61,3.92,1.62,5.33.05,6.05,1.7,3.2,6.4-.42,2.81.54,5.7-.93,8.51-1,2,1.07,1.19,1.88,1.51l2.84-4.29a.64.64,0,0,1,.32-.71l4.76-9,.63-2c0-.69,0-1.38.05-2.07l-2.78-2.52a15.58,15.58,0,0,0-8.84-.53c-.58,1-1.24,1.12-2,.18Z"/><path class="cls-10" d="M163.9,205.67l-2.84-.27a53.57,53.57,0,0,0-11.25,11.25L147,222.21a3.14,3.14,0,0,1-.71,2.61c0,1,0,1.91,0,2.87,2.76.08,1.93-4,4.6-4,4.05-4.3,10.48-6,13-12,.91-4.37-3.33.34-3.54-2.45.28-1.56,1.85-1.51,3.31-1.64Z"/><path class="cls-8" d="M168.86,230.64c-5.41-1.33-6.25-.77-10,7.53-.85,1.89-1.43,3.72-4,3.46a26.75,26.75,0,0,1-2.75,4.38c-2.37,2.52-2.15.12-2.31-1.38l-4.69,1a5.61,5.61,0,0,0,.55,4.17.7.7,0,0,1,.2.78l-.12,1.09.36.89a2.19,2.19,0,0,1,.7.18l.93-1a2.17,2.17,0,0,1,2-1c.9-.9,1.69-2.16,3.21-1l.82,0c0-4.93,5.09-2.79,7-5-1-1.23-1.27-3.8.16-3.16,3.75,1.67,3-1.57,3.7-2.74,1.33-2.08,2.37-4.34,4.16-6.1Z"/><path class="cls-4" d="M151.78,51.71c.7-2.35,1.39-4.66.24-7.13-.38-.82-.55-2.34-.08-2.85,4.27-4.62-.61-8.1-1.34-12.06l-1.37.76-.12.37-.53,2.06c-.19.62-.39,1.24-.59,1.86-.13,2.05.07,4.17-1.16,6l-.38,4,.36,5c1.69-.09,2.61,1.35,3.92,2Z"/><path class="cls-8" d="M150.85,223.69c-2.67,0-1.84,4.08-4.6,4l-.39,1.95c.11.1.35.28.33.3a7.5,7.5,0,0,1-.49.66c-.28,1-.57,2-.85,3.05l-.1,1-.06,4,.46-.11c3.12-1.22,6.57-7.93,6.13-12C151.17,225.63,151,224.67,150.85,223.69Z"/><path class="cls-10" d="M247.29,127.63c.8.09,2-.12,2.35.33,2.74,3.25,1.74-.09,2.05-1.11-.12-.72-.25-1.44-.37-2.15-.11-.43-.23-.85-.34-1.28-.48-2.72-.45-5.57-2-8l-.24,4.32.18.34-.16-.36c-1.67.25-2-1.66-3.21-2.06l-.61,1a.35.35,0,0,1,.09.58C245.8,122.05,246.55,124.84,247.29,127.63Z"/><path class="cls-10" d="M167.63,199.57l10.62-1.27c-.52-2.89-3.48-2-4.46-3.68A15.51,15.51,0,0,0,167.63,199.57Z"/><path class="cls-10" d="M150.73,51.73c-1.31-.66-2.23-2.1-3.92-2l-.52,1.05.75,2.59,3.76.45C150.78,53.11,150.75,52.42,150.73,51.73Z"/><path class="cls-11" d="M194.9,6.3l4.34-1.4C197.65,4.9,195.79,4.09,194.9,6.3Z"/><path class="cls-4" d="M212.83,174.76c.75.94,1.41.78,2-.18A1.57,1.57,0,0,0,212.83,174.76Z"/><path class="cls-12" d="M193.14,7.38a.65.65,0,0,0,.51-.14l-.24-1.37C192.53,6.23,193.15,6.86,193.14,7.38Z"/><path class="cls-4" d="M152.52,27.21a1,1,0,0,0-.4.59l-.08-.13A.48.48,0,0,0,152.52,27.21Z"/><path class="cls-10" d="M145.26,250.43a2,2,0,0,0,.6.13.7.7,0,0,0-.2-.78A1.34,1.34,0,0,0,145.26,250.43Z"/><path class="cls-12" d="M190.83,12a1.06,1.06,0,0,0,.94-1.29Z"/><path class="cls-12" d="M240.56,119.05l-1,1.57A1.52,1.52,0,0,0,240.56,119.05Z"/><path class="cls-3" d="M244.57,114c.34,1.2.68,2.4,1,3.6,1.25.4,1.54,2.31,3.21,2.06l0,0,.24-4.32c-.48-8-4.17-15.38-4.85-23.35-1.32-1.66-3.54-1.58-5.15-2.68.06,1.3-.38,3,.26,3.83,4.31,5.64,3.47,12.14,3.51,18.52C244.17,111.86,244.91,112.52,244.57,114Z"/><path class="cls-7" d="M239,89.35c1.61,1.1,3.83,1,5.15,2.68l1.76-.5c0-.84,0-1.67.07-2.51a9.75,9.75,0,0,1-2.82-.58c-1.92-1.06-2.24-3.15-2.19-5,.07-2.3,1.89-.79,3-.94a3.29,3.29,0,0,1,1.8-3.85v-2.6l-3.86.77-1.38,2.75a11.41,11.41,0,0,0-1.86,7.2Z"/><path class="cls-9" d="M288.88,105.13c-9.43,3.68-18.82,4.07-28.15-.31,2.7,5.13,8,4.05,12.25,4.47C278.5,109.83,284.53,110.08,288.88,105.13Z"/><path class="cls-4" d="M259.62,176.78a26.81,26.81,0,0,0,1.63,8l1.5-.08c-.14-1.62-.28-3.24-.43-4.85L260,169.5a1.14,1.14,0,0,1-.2-.91c-.09-.65-.18-1.3-.28-2-.95-.9-.82-2-.66-3.16a.74.74,0,0,0-.13-.79l-1.21,0,1.29,11C259.91,174.5,259.76,175.65,259.62,176.78Z"/><path class="cls-10" d="M257.53,162.66l1.21,0c0-3.79-1-7.37-2-11C254.4,155.55,256.4,159.07,257.53,162.66Z"/><path class="cls-9" d="M294.82,101.84a10.79,10.79,0,0,0-4.94,2.92C292.16,104.86,294.33,104.77,294.82,101.84Z"/><path class="cls-9" d="M298.8,98.76a2.93,2.93,0,0,0-2.69,2.1C297.53,100.84,298.72,100.51,298.8,98.76Z"/><path class="cls-9" d="M300.83,96.83a2.14,2.14,0,0,0-2,1.91A1.75,1.75,0,0,0,300.83,96.83Z"/><path class="cls-9" d="M260.1,104.5a2.54,2.54,0,0,0-2.4-1.6A1.77,1.77,0,0,0,260.1,104.5Z"/><path class="cls-9" d="M302.83,94.94a1.9,1.9,0,0,0-1.95,1.84A1.76,1.76,0,0,0,302.83,94.94Z"/><path class="cls-10" d="M258.87,163.48c-.16,1.13-.29,2.26.66,3.16A4,4,0,0,0,258.87,163.48Z"/><path class="cls-9" d="M252.32,97.76c.13-.55-.12-.77-.65-.74Z"/><path class="cls-9" d="M251.42,96.82l-.77-.7Z"/><path class="cls-9" d="M250.39,95.82c.05-.54-.2-.79-.73-.75Z"/><path class="cls-9" d="M249.42,94.82c0-.54-.22-.8-.76-.77Z"/><path class="cls-7" d="M251,123.42c.11.43.23.85.34,1.28C251.21,124.27,251.09,123.85,251,123.42Z"/><path class="cls-9" d="M306.52,91.3l-1.18,1.16A1.1,1.1,0,0,0,306.52,91.3Z"/><path class="cls-9" d="M248.43,93.82c0-.53-.22-.78-.76-.75Z"/><path class="cls-10" d="M259.81,168.59a1.14,1.14,0,0,0,.2.91C259.94,169.19,259.88,168.89,259.81,168.59Z"/><path class="cls-9" d="M304.5,93.28c-.39.39-.78.78-1.16,1.18A1.08,1.08,0,0,0,304.5,93.28Z"/><path class="cls-7" d="M293,449.41c2.07,0,4.13,0,6.19-.09,1.11-.06,2.39-.23,1.62-2-3.34.32-4.38-2.09-4.88-4.57-2.61-13-5.18-26-6.27-39.19-1.5-3.49-1.38-7.28-2-10.93l-3,0-.27,4.95q.35,5.87.7,11.73c1.31,2.27.83,4.75.85,7.17h0l.42,1.11c.74,5.09,1.54,10.17,2.2,15.27.24,1.85,1.66,4.36-.08,5.44-1.57,1-2.85-1.75-4.48-2.46-1.05-.45-2.12-.87-3.17-1.31,1,4,4.33,5.9,7.2,8.21,1.64,1.33,3.58,2.39,3.74,4.84Z"/><path class="cls-6" d="M314.7,382.67c-.56-7-3.73-13.15-6-19.6A129.53,129.53,0,0,0,300,342.49l-1.62.2c1.42,3.87,3.85,7.68,4.08,11.62.76,12.71.7,25.47.95,38.2l.09,2.08c.29.81.26,1.5-.73,1.78-3.39,2.7-1.53,6.81-2.74,10.09,2.69,7.51,1.33,15.3,1.66,23l.24,3.2c1.83-4.32.67-8.85.81-13.27.22-6.8.06-13.61.06-20.56.44.21.79.26.85.42.55,1.61-.47,4.71,1.75,4.55,2.59-.18,1.33-3.24,1.33-4.95,0-11.88.74-23.78-1.65-36,4.06,1.74,1.77,5.42,3.38,7.56,2.64,1.88,2.4,5.16,3.74,7.67C313,379.64,312.75,381.76,314.7,382.67Z"/><path class="cls-8" d="M301.88,432.63l-.24-3.2c-1.58,3.52-.14,7.41-1.63,12.33-1.43-5.18-2.85-9.08-3.2-13.3-2-10.21-3-20.56-4.19-30.87-3.49.78-.54,4.7-2.94,6,1.09,13.22,3.66,26.21,6.27,39.19.5,2.48,1.54,4.89,4.88,4.57Z"/><path class="cls-6" d="M273.88,466.33c-1.36,1.55-1.64-.18-2.31-.76-1.05,1.94-1.8,3.82,1,5,.74.12,1.77,0,1.64,1.12,0,.36-.94.61-1.45.91v4.91A16.79,16.79,0,0,1,284,482.73a7.37,7.37,0,0,0,6.81,2.42c-2.93-6.57-10.39-7.92-13.41-13.9,2.56-1.95,4.54,0,7,2.08,0-3.88-1.92-6.29-3.6-8.79l-2.8-1c.54,1.49,1.59,3.11-.12,4.39C275.91,469.36,275.15,467.05,273.88,466.33Z"/><path class="cls-8" d="M272.57,470.56c-2.8-1.17-2.05-3.05-1-5a20.52,20.52,0,0,1-6.38-9.52c-.91-2.47-2.17-3.07-4.42-1.94,1.35,5.43,2.9,10.73,6.41,15.3,1.25,1.62,2.53,4,1.26,6-1.35,2.16-3.87.95-5.92.93a4.63,4.63,0,0,0-2.9,2.64c4.85,3.78,8.89.21,13.14-1.45v-4.91C272.7,471.91,272.63,471.24,272.57,470.56Z"/><path class="cls-10" d="M291.71,447.58c-.16-2.45-2.1-3.51-3.74-4.84-2.87-2.31-6.19-4.26-7.2-8.21l-2.7-2.46-2.5-1.59c-3.49-2.24-6.28-5-7.71-9.09-.64-1.85-1.31-4.08-3.66-4.83-3,1.42-1.14,3.27-.45,5a5.33,5.33,0,0,1,1.93,3l.05,0a1.88,1.88,0,0,1,1.06,1.88c5.28,6.58,12.14,11.51,18.13,17.35.82.79,1.95,1.27,2,2.61Z"/><path class="cls-10" d="M239.56,456.47l1-1.89-2.51-.28-19.31-1.51c-.17,2-3.73,1.92-2.87,4.59l0,0,10.88,1.28a1.9,1.9,0,0,1,2.06.77l4,.09C235.24,459,236.88,456.56,239.56,456.47Z"/><path class="cls-6" d="M212.8,460.54c0,1,0,2,0,3,1.91,4.05,3.61,8.23,5.85,12.08.76,1.31.75,5,3.64,3.31a4.83,4.83,0,0,0,1.8-6.5,30.09,30.09,0,0,0-5.31-7,9.33,9.33,0,0,1-2.9-8l0,0C214,457.63,213.47,459.15,212.8,460.54Z"/><path class="cls-3" d="M238.05,454.3l2.51.28c5.18-1.11,10.51-1.72,15.28-4.27a12.6,12.6,0,0,0-2.1-5.77c-3.72-.28-7-.19-9,4.07a6.62,6.62,0,0,1-5.51,3.73C238.84,453,238.44,453.64,238.05,454.3Z"/><path class="cls-7" d="M262.52,476.31c2.05,0,4.57,1.23,5.92-.93,1.27-2,0-4.35-1.26-6-3.51-4.57-5.06-9.87-6.41-15.3l-3.16.61c.68,4.77,1.78,9.48,4.74,13.35C264.58,471,265,473.51,262.52,476.31Z"/><path class="cls-7" d="M253.74,444.54a12.6,12.6,0,0,1,2.1,5.77l3.47,0c2.78-2.75-1.19-5.14-.43-7.78-.08-.92-.16-1.84-.23-2.75-1.55-1.07-1.25-2.62-1.08-4.14l-.28.15c-1.31-.41-1.82-1.1-.84-2.34-.08-.59-.17-1.18-.24-1.77-2.19-1-1.84-3.31-2.57-5.06a5.79,5.79,0,0,0-.82-.12c-.43,4,1,7.76,1.57,11.62.23,1.43,1.25,3.48-1.69,3.47C253.05,442.58,253.4,443.56,253.74,444.54Z"/><path class="cls-5" d="M239.56,456.47c-2.68.09-4.32,2.48-6.77,3.07.35,1.76-1,4.07,1.9,5,2.34.74,4,.51,5.42-1.72a4.77,4.77,0,0,1,4.69-2.29c0-1,0-1.94.07-2.91Z"/><path class="cls-4" d="M298.73,467.55c.2,1.06-.41,2.28.72,3.32,3.15-1.83,3.34-4.91,3.42-8-3.23-1.25-4.08-5.24-7.38-6.4-2.42,1.52.27,2.39.58,3.43C296.83,462.46,298.89,464.61,298.73,467.55Z"/><path class="cls-8" d="M244.87,457.62c0,1,0,1.94-.07,2.91A3.34,3.34,0,0,0,248,461.6c3.24-.75,4.21-3.73,5.92-6Z"/><path class="cls-5" d="M291.71,447.58l-4.77-1.09c-2.5.29-5.12-.42-8.32.89,5,3.26,9.82,1.87,14.4,2Z"/><path class="cls-8" d="M281.71,455.59c-.06,2.89,2.27,4.7,3.27,7.12.46,1.12,1.41,2,2.74,1.09a2,2,0,0,0,.45-3.05c-1.85-2-3.27-4.66-6.31-5.29Z"/><path class="cls-7" d="M295.49,456.44c3.3,1.16,4.15,5.15,7.38,6.4l.14-.25.15-2.09c0-.64-.08-1.29-.13-1.93l-1.24-2,0-.19-1.26-.71C298.94,456.56,296.45,451.7,295.49,456.44Z"/><path class="cls-5" d="M258.88,442.55c-.76,2.64,3.21,5,.43,7.78,1.73-.17,4.67,1.36,4.81-1.21C264.3,446.07,263.53,442.39,258.88,442.55Z"/><path class="cls-6" d="M264.65,436.83a6.84,6.84,0,0,0,3.11,2.74c0-4.46-2.77-7.68-5.13-11.07l-1.84.05c0,1,0,2,0,3l0,0,1,1.05,0,1.85,1.09.1A1.85,1.85,0,0,1,264.65,436.83Z"/><path class="cls-8" d="M260.79,428.55l1.84-.05c.11-2-.07-4.24,3.05-3.9a5.33,5.33,0,0,0-1.93-3C261.65,423.43,259.33,425.19,260.79,428.55Z"/><path class="cls-10" d="M275.45,459.85l2.55,3.66,2.8,1a6.91,6.91,0,0,0-2.12-5l-2.5-.41Z"/><path class="cls-6" d="M297.07,485.73l3.69-.16c0-.67,0-1.35,0-2l0,0-3.79.11C297,484.34,297,485,297.07,485.73Z"/><path class="cls-8" d="M261.73,434.46l0-1.85-1-1.05,0,0-2-.05c0,.34,0,.67,0,1C259.78,433.17,260.76,433.81,261.73,434.46Z"/><path class="cls-8" d="M256.45,433.47c-1,1.24-.47,1.93.84,2.34.14-.74.29-1.48.43-2.21Z"/><path class="cls-8" d="M264.65,436.83a1.85,1.85,0,0,0-1.83-2.27c0,.7,0,1.41,0,2.11Z"/><path class="cls-5" d="M257.57,435.66c-.17,1.52-.47,3.07,1.08,4.14C258.64,438.33,259.32,436.68,257.57,435.66Z"/><path class="cls-5" d="M228.83,459.45a1.9,1.9,0,0,0-2.06-.77C227.05,460,227.48,461,228.83,459.45Z"/><path class="cls-5" d="M256.45,433.47l1.27.13,1.08-1.07c0-.33,0-.66,0-1l0,0-2.6.15Z"/><path class="cls-4" d="M301.79,456.55l1.24,2,.72-2Z"/><path class="cls-8" d="M266.79,426.53a1.88,1.88,0,0,0-1.06-1.88A1.89,1.89,0,0,0,266.79,426.53Z"/><path class="cls-8" d="M281.86,455.46l-.47-1.19a3.59,3.59,0,0,0-.33.25c.2.37.43.72.65,1.07Z"/><path class="cls-5" d="M296.77,476.53l-.36-1.21c-.86.68,0,.87.34,1.22Z"/><path class="cls-5" d="M300.51,455.65l1.26.71Z"/><path class="cls-3" d="M241.89,76.82l3.86-.77c.47-1.62,1.91-1.19,3-1.42,4.35-3.81,10-4.93,15-7.45,0,0,.6,1,.91,1.53,1.86-.67,3.75-1.26,5.56-2,2.57-1.13,3.84-2.54.19-3.95-1.67-.65-1.57-1.54-.6-2.56,3.43-3.6,2.42-7.49.87-11.43a69.44,69.44,0,0,0-15.12,8.62c-2.67,6.15-5.54,7.15-10.52,3.66-3.41-2.38-4.06-5.92-1.59-9,2.25-2.83,4.57-5.6,6.87-8.38.74-.89,1.74-1.71.36-2.86-5.16,4.16-9.35,9.3-14,14-1.62,3.39-3.1,7-8,6,3.69,2.56,4.31,6.57,5.11,10.54a9.84,9.84,0,0,0,2.85,4.54A7.51,7.51,0,0,1,241.89,76.82Z"/><path class="cls-5" d="M236.8,54.73c4.62-4.71,8.81-9.85,14-14,1.07-3.37,3.72-5.55,6-8,.34-2.67.69-5.35,1-8,0-.33,0-.65,0-1-2.21-.31-3.74-1.69-5.15-3.26-4.47,2.76-6.31,7.82-9.9,11.38-2.48,2.45-5,4.32-8.62,3.8-1.86,6,1.69,12,.23,18.14C234.12,54.76,235.87,54.61,236.8,54.73Z"/><path class="cls-2" d="M256.79,32.72c-2.3,2.45-5,4.63-6,8,1.38,1.15.38,2-.36,2.86-2.3,2.78-4.62,5.55-6.87,8.38-2.47,3.12-1.82,6.66,1.59,9,5,3.49,7.85,2.49,10.52-3.66-1.58.07-2.73-.38-2.72-2.24-.12-1.6-.29-3.23,2.08-3.21l0,.06c.14-3.76,2.8-6.16,4.94-8.74s3.08-5.76,4-8.69c.29-1-4.44-.43-6.58-1.72A1.24,1.24,0,0,0,256.79,32.72Z"/><path class="cls-8" d="M257.79,23.72c0,.33,0,.65,0,1,1.55-.09,2.87,1.64,4.64.26,2.25-1.75,7.12-.77,7.82,1.89.59,2.27,1.92,1.76,3.19,2.07,1.77-.87,2.46-2.54,3.18-4.2-3-.27-4.05-3.65-6.87-4.35-1.1-.27-1-1.53-.79-2.51a2.21,2.21,0,0,1,2.45-1.9,35.93,35.93,0,0,1,3.81.71c-2.77-7.73-9-11.06-16.38-13l-1.33-.17-1.78.18c0,.4-.05.8-.08,1.2a3.86,3.86,0,0,0,1,2.95c1.58-.13,3,0,3.08,2.08a10.54,10.54,0,0,1,1.95,4.81c1.7,1.8,1.47,3.91.45,5.78-1.12,2-2.88.12-4.35.25Z"/><path class="cls-2" d="M236.8,54.73c-.93-.12-2.68,0-2.45-.95,1.46-6.1-2.09-12.09-.23-18.14-3.59-4-2.87-9.11-3.39-13.89-2.59-.2-3.66,2.57-5.92,3-1.4,3.16-.65,5.52,2.22,7.59a6.54,6.54,0,0,1,1.15,10c-1.51,1.74-1.6,3.21-.56,4.85,2.08,3.28.73,5.53-1.93,7.52.06,2.49,3,3.47,3.11,5.93C233.7,61.69,235.18,58.12,236.8,54.73Z"/><path class="cls-6" d="M273.48,28.92c-1.27-.31-2.6.2-3.19-2.07-.7-2.66-5.57-3.64-7.82-1.89-1.77,1.38-3.09-.35-4.64-.26-.35,2.67-.7,5.35-1,8a1.24,1.24,0,0,1,.48.08c2.14,1.29,6.87.76,6.58,1.72-.87,2.93-1.82,6.12-4,8.69s-4.8,5-4.94,8.74A199.86,199.86,0,0,0,273.48,28.92Z"/><path class="cls-10" d="M226.88,1.22c-2.4,2.86-6,1.51-9,2.61s-7.14.39-8.25,4.82l5.13,1.09,3-1.11c2.62-3.4,6.65-2,10-2.9.75-1,1.87-.89,2.94-.92,3,.57,4.08,1.69,1.11,4a7.25,7.25,0,0,1-3,3c-.3,2.61-3,4.19-3,6.93,1.57,1,3.35,1,5.13,1.07,3.67-1.87,4.64-5.75,6.58-8.9-2.39-.3-3.23-1.51-1.91-3.65,2.37-3.86,0-4.81-3.16-5.3-1.25-.19-2.64.08-3.66-1Z"/><path class="cls-7" d="M228.84.94c1,1.09,2.41.82,3.66,1,3.19.49,5.53,1.44,3.16,5.3-1.32,2.14-.48,3.35,1.91,3.65,2.21-2.61,5.52-5.64,4-8.8s-5.84-1.84-9-2C231.29.07,229.9-.15,228.84.94Z"/><path class="cls-10" d="M275.26,16.67a35.93,35.93,0,0,0-3.81-.71,2.21,2.21,0,0,0-2.45,1.9c-.23,1-.31,2.24.79,2.51,2.82.7,3.85,4.08,6.87,4.35C280.63,21.26,276.3,19.25,275.26,16.67Z"/><path class="cls-7" d="M261.69,14.7a10.54,10.54,0,0,0-1.95-4.81c-2.38,1.32-3.25.39-3.08-2.08a3.87,3.87,0,0,1-1-3l-.88-1.45c-.8-.53-2.09-.19-1.62.48,3.15,4.43,1.19,8.67-.07,13l1.22-.21c.59-.72,1.19-.79,1.78,0Z"/><path class="cls-4" d="M261.69,14.7l-5.58,2h-1.77l-1.22.21c-.1.63-.21,1.26-.31,1.88l2,0c1.44,0,2.82.1,3,2h0c1.47-.13,3.23,1.79,4.35-.25C263.16,18.61,263.39,16.5,261.69,14.7Z"/><path class="cls-4" d="M231,19.8c-1.78,0-3.56-.06-5.13-1.07a5,5,0,0,0-3.11,4,2,2,0,0,0,2.06,2.05c2.26-.44,3.33-3.21,5.92-3Z"/><path class="cls-7" d="M304.33,28.15c3.6.65,5.8-1.17,7.36-4.15C307.4,22.14,306.62,26.48,304.33,28.15Z"/><path class="cls-6" d="M254.82,18.71l-2,0c-.06.58-.11,1.15-.17,1.72,1.41,1.57,2.94,2.95,5.15,3.26v-3h0C256.32,20.74,254.91,20.7,254.82,18.71Z"/><path class="cls-6" d="M255,51.89c-2.37,0-2.2,1.61-2.08,3.21C254.2,54.41,254.52,53.09,255,51.89Z"/><path class="cls-4" d="M254.81,3.4l.88,1.45c0-.39.06-.79.08-1.19Z"/><path class="cls-7" d="M257.55,3.48l1.33.17C258.5,3.07,258.06,3,257.55,3.48Z"/><path class="cls-1" d="M277.25,268.75c-2.79-9.86-3-20.19-5.47-30.11l-1.27,1.26c1.82,20.34,5.33,40.47,8,60.7H280c.21-1.91.46-3.79,3-4a103.32,103.32,0,0,1-3.69-10.18c-1.63-6.47-1.35-6.71,4.7-8.48-.89-1.49-2.56-1.23-3.88-1.76C276.38,274.72,277.43,271.5,277.25,268.75Z"/><path class="cls-8" d="M262.75,184.67l-1.5.08c.14,2.29.29,4.57.43,6.85,2.47,7.53,2.1,15.66,4.86,23.13l1.1-2c.23-3.38-1.73-6.6-.76-10Q264.83,193.67,262.75,184.67Z"/><path class="cls-10" d="M289.72,266.51c-1.7-3.23,2.78-4.82,2.07-7.78-5.05,1.37-6.9,6.56-10.93,9.15.35,1.87-1.51,4.07.84,5.64,2.37-1,5.7.24,7.16-3l-6.63.86c2.27-2.2,3.35-4.91,6.54-4.75A7.52,7.52,0,0,0,289.72,266.51Z"/><path class="cls-5" d="M267.64,212.69l-1.1,2c1,8.43,1.61,16.94,4,25.17l1.27-1.26Z"/><path class="cls-7" d="M281.7,273.52c-2.35-1.57-.49-3.77-.84-5.64l-3.61.86c.18,2.76-.87,6,2.79,7.44A3.17,3.17,0,0,1,281.7,273.52Z"/><path class="cls-10" d="M293,257.72c4.78-.38,5.1-.65,3.7-3.12C294.66,254.65,293.79,256.12,293,257.72Z"/><path class="cls-4" d="M254.48,88.38a54.8,54.8,0,0,0,20.59-1.6c-7.15-3-15.47-1-22.32-5.13a5.2,5.2,0,0,0,0,.88C253.35,84.47,255.08,86.09,254.48,88.38Z"/><path class="cls-9" d="M243.94,82.5c-1.07.15-2.89-1.36-3,.94,0,1.85.27,3.94,2.19,5A9.75,9.75,0,0,0,246,89l2.49-.79c.48-2,3.75-2.26,3-5l-1.69.15C247.56,84.82,245.86,82.94,243.94,82.5Z"/><path class="cls-8" d="M264.75,68.71c-.31-.53-.88-1.55-.91-1.53-5,2.52-10.7,3.64-15,7.45l2.13,1.12Z"/><path class="cls-4" d="M243.94,82.5c1.92.44,3.62,2.32,5.83.91.45-2-2-2.85-2-4.69l-2-.07A3.29,3.29,0,0,0,243.94,82.5Z"/><path class="cls-7" d="M251.46,83.26c.77,2.71-2.5,3-3,5,2,.67,4,.27,6,.15.6-2.29-1.13-3.91-1.71-5.85Z"/><path class="cls-10" d="M245.74,78.65l2,.07,3.16-3-2.13-1.12c-1.13.23-2.57-.2-3,1.42C245.75,76.92,245.75,77.78,245.74,78.65Z"/><path class="cls-6" d="M140,433.57c-1.86,5-3.83,10-7,14.37a.45.45,0,0,1-.28.6l-1,3c1,.45,1.34,2,2.79,1.84,2.28-.22-.59-3,1.51-3.27,1,1.22,1.89,2.36,2.81,3.49l6-1c.82-1.85,2.5-2,4.19-2.13a2.16,2.16,0,0,0-2.14-1.93c-1.54-.12-3.42.84-4.47-.81-.63-1,.59-1.63,1.44-2.11-.15-2.18.51-3.78,2.95-4.1.23-6.18.38-6.3,6.05-4.87,1.41,0,2.83-.08,2.95-2a28.23,28.23,0,0,1-3.19-3.68c-.95-1.58-.66-3,1.64-2.75,6.9.62,8.69-.29,11.65-6.25a2.35,2.35,0,0,1,1.9-1.34l0,0c0-1.44.07-2.82,2-3l0,0a1.9,1.9,0,0,1,2-2l0,0c1.16-2.68,1.09-6.84,6-5l1,0,4-8c.11-1.61.21-3.22.32-4.83l-.44-1.58-2.81.39c-.52,3-2.3,4.18-5.24,3.82-3.44,1.42-7.06,2.47-9.87,5.12l-1.33.9a.51.51,0,0,0-.63.41c-.14,3.59-.65,6.74-5.53,4.49l-.68.76c0,2.08.74,4.83-3.09,3.34C146.9,419.88,144.1,427.19,140,433.57Z"/><path class="cls-5" d="M138.83,453.56c-.92-1.13-1.83-2.27-2.81-3.49-2.1.28.77,3.05-1.51,3.27-1.45.14-1.75-1.39-2.79-1.84a2.83,2.83,0,0,1-.81.2l-.6,1a2.42,2.42,0,0,1-1.37,2l-1,1.79-.63,1.09c-1.89,4.66-5.84,8.26-6.9,13.35a3.34,3.34,0,0,0,2.46,1.61c.1-.79-.25-2,.66-2.18s1.2.9,1.28,1.74a1.92,1.92,0,0,1-1.93,2.35c0,1.33,0,2.66,0,4,2.34,1,2,3.12,2.06,5.07l3.08.06,5.94-.45a4.62,4.62,0,0,0-1.45-3.56c-6-6-5.81-9.4,1.22-13.72,2-1.22,2.94-3.08,2.48-4.27C134.68,457.93,137.43,456.06,138.83,453.56Z"/><path class="cls-1" d="M302.17,328.71l-.24,5.9.16.12c.83.82.55,1.87.6,2.85,1.61,2.23,1.85,5.29,4.25,7l-.06-14c-.46-10.64-.74-21.28-.3-31.92a7,7,0,0,1,0-4.09,19.86,19.86,0,0,1,0-6.92,5.2,5.2,0,0,1,.19-3.95c0-.3-.05-.61-.07-.92l-2-.16h0c-1.76,16.85.46,33.72-.2,50.74C303,332.14,305,329.15,302.17,328.71Z"/><path class="cls-5" d="M283.92,277.93c4.67-1.23,9.33-2.47,13-5.92-.5-2.51-5.2-1.79-4.19-5.46l-3,0a7.52,7.52,0,0,1-1,.15l.09,3.89c-1.46,3.21-4.79,1.93-7.16,3a3.17,3.17,0,0,0-1.66,2.66C281.36,276.7,283,276.44,283.92,277.93Z"/><path class="cls-5" d="M301.93,266.7a8.74,8.74,0,0,0,3.14-3.69c2.53-4.77,2.24-5.28-3.33-5.37-.43,1.29,2.43,3.45-1,3.93-2.07.84-5.18.4-4.95,4C297.48,267.86,300.18,264.58,301.93,266.7Z"/><path class="cls-1" d="M301.93,266.7c-1.75-2.12-4.45,1.16-6.18-1.09l-3,.94c-1,3.67,3.69,2.95,4.19,5.46l1.57-.15C301.45,271.36,301.65,269,301.93,266.7Z"/><path class="cls-6" d="M300.7,261.57c3.47-.48.61-2.64,1-3.93C298.45,258.16,301.12,260.28,300.7,261.57Z"/><path class="cls-1" d="M304.75,282.62v-4.85c-1,1.68-1.35,3.33,0,4.85Z"/><path class="cls-10" d="M182.84,402.61l-4,8c1.72,5.22,2.22,9.43-5.25,10.51-2.54.37-3.73,4.47-6.71,5.5,0,1.32,0,2.64-.05,4,1.56,2.82-.33,6.08,1.15,8.93,1.24,2.39,0,3.61-2.13,4.59-1.42.67-4.69.63-3.19,3.07,1.06,1.73,2,5,5.79,4.11,7.07-1.7,12.07,2.8,17.08,6.64,1.78,1.37,1.81,2.86-1,3.8-2.28.75-4.66-.61-6.73.85.35.67.7,1.34,1,2,2.73,2.09,2.64,5.94,5.13,8.17,6.34-1.06,11.15-5.35,16.75-8l3.2-1.13,1-1c-1.36-4-3.93-1.25-5.53-.61a76.73,76.73,0,0,0-9.56,5.16c-1.41.83-2.66,2-4.75.32,3.86-2.24,6.6-5.82,10.95-7,2.21-.58,1.29-1.81.85-3l-1.05-1c-7.88,2.4-9.81-5-14.61-8.11,1.71-1.45,3.75-.32,4.61-2.48,1.59-4,2.37-1.56,3,.56,2.42,0,3.28,2.82,5.56,3,1.44-3.32,1.61-6.41-1.63-8.88-.07,1.53-.34,3.66-2.34,2.16-5.15-3.85-8.11-9.61-12.77-14.89,4.48.24,6.82,2,8.37,5,.82,1.58,1.38,3.46,3.62,3.65,0-3,1.88-3.32,4.2-3.1-1.79-6.49-3.32-13-1.6-19.76a9.58,9.58,0,0,0-6.47-11.3Z"/><path class="cls-4" d="M183.92,472.73c-2.49-2.23-2.4-6.08-5.13-8.17.11,2.63-1,4.4-3.64,4.93-2.26.45-2.79,1.3-1.24,3.23,1,1.27-.1,1.58-1.09,1.83,0,1.31,0,2.61,0,3.92A24.44,24.44,0,0,0,183.92,472.73Z"/><path class="cls-8" d="M203.87,463.62l-3.2,1.13a111,111,0,0,1,1.12,19.78c.26,2.37-.94,5.47,3,6C205.51,481.53,203.12,472.63,203.87,463.62Z"/><path class="cls-4" d="M303.16,460.5l-.15,2.09A1.28,1.28,0,0,0,303.16,460.5Z"/><path class="cls-10" d="M306.94,344.61c-2.4-1.74-2.64-4.8-4.25-7a2.3,2.3,0,0,1-.6-2.85l-.16-.12c-5.7-8.65-10.21-18-15.22-27l-2,1.17c9.81,18.83,20.17,37.39,28.28,57.07.55,1.33.46,3.64,2.93,3.6Z"/><path class="cls-5" d="M285.53,335.64q-1.33-12.5-2.66-25c-1.92-2.46-.61-5.4-1.19-8.07l-1.73-2h-1.4c.25,14.12,3.88,27.9,4.33,42l.85,2,0,5c1,.73,1,1.81.93,2.88l2.9.08a81.11,81.11,0,0,0-1.75-14A1.76,1.76,0,0,1,285.53,335.64Z"/><path class="cls-8" d="M280,300.6l1.73,2c2.16,1.5,1.93,4.16,3,6.19l2-1.17a17.1,17.1,0,0,0-3.8-11C280.41,296.81,280.16,298.69,280,300.6Z"/><path class="cls-8" d="M292.74,329.58c1.13,4.68,3.44,8.86,5.59,13.11l1.62-.2C297.85,338,296.67,333,292.74,329.58Z"/><path class="cls-5" d="M149,450.4c-1.69.13-3.37.28-4.19,2.13-.24,3.11.56,5.1,4.31,5.09,4,0,5.1,2.51,4.47,6.08-.93,5.28-4.56,7.88-9.91,6.53-3.1-.78-5.72-.81-8.63,1.35,4,2,7.4,3.24,11.87,2.74,3.3-.37,8.5-.75,8.88,5.26.77,1.07,1.91.92,3,.94,1.8-3.37,5-2.92,8-3,2.07,0,4.25.16,3.91-3-1.63-.07-2.77-.14-2.32-2.57.63-3.4,1.19-7.06-4.17-7.67-1.76-.2-2.49-2.66-1.7-4,.91-1.56,2.63-.63,3.87.36a15.1,15.1,0,0,0,8.57,3.64,17.37,17.37,0,0,0-5.69-4.85c-2.36-1.31-5.38-1.85-6.51-4.85l-2.95-1.11c-3.25.4-5.62-1.48-8.09-3.1Z"/><path class="cls-1" d="M155.81,479.58c-.38-6-5.58-5.63-8.88-5.26-4.47.5-7.9-.76-11.87-2.74,2.91-2.16,5.53-2.13,8.63-1.35,5.35,1.35,9-1.25,9.91-6.53.63-3.57-.52-6.1-4.47-6.08-3.75,0-4.55-2-4.31-5.09l-6,1c-1.4,2.5-4.15,4.37-2.71,8.09.46,1.19-.5,3.05-2.48,4.27-7,4.32-7.19,7.7-1.22,13.72a4.62,4.62,0,0,1,1.45,3.56l8.95,1.28a16.81,16.81,0,0,1-.11-2.45c.12-1.18-2.61-2.12-.58-3.17,1.29-.66,3.17-1.71,4.65-.6,2.24,1.67,4.71,1.1,7.11,1.33Z"/><path class="cls-6" d="M162.79,454.63c1.13,3,4.15,3.54,6.51,4.85a17.37,17.37,0,0,1,5.69,4.85,15.1,15.1,0,0,1-8.57-3.64c-1.24-1-3-1.92-3.87-.36-.79,1.35-.06,3.81,1.7,4,5.36.61,4.8,4.27,4.17,7.67-.45,2.43.69,2.5,2.32,2.57.68-.94,1.37-1.06,2.08,0,1-.25,2.12-.56,1.09-1.83-1.55-1.93-1-2.78,1.24-3.23,2.62-.53,3.75-2.3,3.64-4.93-.34-.67-.69-1.34-1-2C172.72,460,168.91,455.14,162.79,454.63Z"/><path class="cls-10" d="M142.82,484.48l-8.95-1.28-5.94.45c0,1-.06,1.91-.08,2.87l8,0a15.51,15.51,0,0,0,9.55,2c2.39-.17,2.27-1.36,1.45-3C145.43,485.43,143.87,485.9,142.82,484.48Z"/><path class="cls-5" d="M142.82,484.48c1.05,1.42,2.61.95,4,1.09,1-2.35,2.15-4.34,5.21-4.11,1.15.09,1.65-.84,1.86-1.87-2.4-.23-4.87.34-7.11-1.33-1.48-1.11-3.36-.06-4.65.6-2,1.05.7,2,.58,3.17A16.81,16.81,0,0,0,142.82,484.48Z"/><path class="cls-6" d="M166.83,477.56c-3,0-6.22-.41-8,3C161.09,481.08,164.37,479.87,166.83,477.56Z"/><path class="cls-4" d="M196.83,457.53c.44,1.2,1.36,2.43-.85,3-4.35,1.14-7.09,4.72-10.95,7,2.09,1.7,3.34.51,4.75-.32a76.73,76.73,0,0,1,9.56-5.16c1.6-.64,4.17-3.41,5.53.61l4.87-2.2c.32-2.37,3.08-5.08-1-6.83h-2c-1.54,1.37-1.79.19-2-1h0c-.49-.27-1.34-.47-1.41-.83-.21-1,.75-1,1.45-1.17,1.57-1.43.78-3.33,1-5l-2-2-1.08.13c0,2.16.78,4.6-1.92,5.89,0,1.46,1.42,3.25-1,4.07C199.88,455.74,199.89,457.79,196.83,457.53Z"/><path class="cls-8" d="M208.78,453.6c4,1.75,1.28,4.46,1,6.83l3.06.11c.67-1.39,1.22-2.91,3.07-3.16-.86-2.67,2.7-2.56,2.87-4.59l-2.64-2.37-2.3-.88C214.4,453.71,210,451.69,208.78,453.6Z"/><path class="cls-8" d="M300.77,483.55c0,.67,0,1.35,0,2,.75,1.05,1.87.95,2.95,1C303.5,484.81,304.65,481.73,300.77,483.55Z"/><path class="cls-8" d="M127.85,486.52c0-1,.05-1.91.08-2.87l-3.08-.06C125,487.61,125.06,487.69,127.85,486.52Z"/><path class="cls-6" d="M122.83,474.53a1.92,1.92,0,0,0,1.93-2.35c-.08-.84-.36-1.93-1.28-1.74s-.56,1.39-.66,2.18C122.82,473.26,122.82,473.89,122.83,474.53Z"/><path class="cls-2" d="M169.93,281.7c.27-.63,1-.72,1.6-.08s-.27,3,1.77,1.82c1.38-.77,2.92-2.11,2.24-4-.84-2.32.17-3.36,2-4.21,3-1.36,2.43-6,6.54-6.65,1.5-.22,3-1,4.7-1,4,4.56,9,8.61,7,15.84-1,3.77,3.06,1.59,3.88,3.24-4.19,5.74-9.68,10-15.67,13.65-1.55.95-3.27,1.64-4.4,3.17l-3.87,2-3.38,1.32-1.57-.21h0c2.62-4.92.7-8.67-4.62-7.58-4.67,1-5.28-1.48-6.37-4.41C160.81,288.46,167.76,287,169.93,281.7Zm8.31-.13c-.3,2-.22,4.23-1.72,6.08-1.37,1.69-.07,2.89,1.28,4.11s2.92,2.2,4.23.64a132.23,132.23,0,0,0,9.2-12c1.1-1.68-2.3-6.4-4.51-6.24C184.4,276.82,179,276.28,178.24,281.57Z"/><path class="cls-10" d="M184.81,336.6l-1.38.35a2.27,2.27,0,0,1-2.71,1.25c-2.15,1.44-4.05,3.08-4.39,5.87.83,4,5.82.21,6.95,3.68-4.91,2.91-7.73,7-7.53,12.88v0a15.11,15.11,0,0,0,5.14-3.43c.58-6.87,6.87-8.76,11-12.54,2.66-2.44,4.85.51,7.27.76a7.51,7.51,0,0,0,1.48-.15c.84-2,2.73-1.53,4.28-1.87,3-1.91,5.17-5.46,9.51-4.37a2.86,2.86,0,0,0,2.48-2c-1.68-2.74-4.77-2.43-7.28-3.1-1.93-.52-2.41-1.06-1.7-2.79-3.87-.64-7.22,2.2-11.07,1.67l-1.33.24C192.48,335.77,188.63,336.16,184.81,336.6Z"/><path class="cls-7" d="M175.75,360.63c-.2-5.86,2.62-10,7.53-12.88-1.13-3.47-6.12.34-6.95-3.68-2.72,2.37-2.52,5.78-3.21,8.88-.45,2-.52,4.19-2.3,5.67a3.17,3.17,0,0,0,.12.74Z"/><path class="cls-5" d="M170.94,359.36a3.17,3.17,0,0,1-.12-.74L165.05,356C165.53,359.74,167.16,361.44,170.94,359.36Z"/><path class="cls-2" d="M167.81,306.62l.12,2.55,1.95-1.05.87-.54,0,0c0-.31,0-.63,0-.94h-3Z"/><path class="cls-13" d="M180.72,338.2a2.27,2.27,0,0,0,2.71-1.25l-2.6-.32C180.79,337.15,180.76,337.68,180.72,338.2Z"/><path class="cls-14" d="M148.71,322.3a2.49,2.49,0,0,0-1.32,2.19C148.51,324.17,148.74,323.31,148.71,322.3Z"/><path class="cls-3" d="M170.75,307.58l-.87.54a2.39,2.39,0,0,0,.83.23C170.72,308.09,170.73,307.84,170.75,307.58Z"/><path class="cls-7" d="M174.46,386.61c-.76-7-3-13.91-2.55-21.08,10.9,3.57,11.07,3.81,9.84,14.6a4.17,4.17,0,0,0,0,.5,1.58,1.58,0,0,0-.23.93,6.12,6.12,0,0,0-1.45,5.06l-.15,10c-.52,3-2.3,4.18-5.24,3.82C175.56,395.79,175,391.23,174.46,386.61Zm2.75-8.18a2.09,2.09,0,0,0,1.69.53,1.75,1.75,0,0,0,.75-1.56c-1.25-3-2.05-6.44-5.91-8A9.62,9.62,0,0,0,177.21,378.43Z"/><path class="cls-8" d="M157.31,411.33c4.88,2.25,5.39-.9,5.53-4.49C160.4,407.59,158.8,409.4,157.31,411.33Z"/><path class="cls-8" d="M153.54,415.43c3.83,1.49,3.11-1.26,3.09-3.34A6.27,6.27,0,0,0,153.54,415.43Z"/><path class="cls-8" d="M163.47,406.43l1.33-.9Z"/><path class="cls-5" d="M79.82,329.6c.49-2.51,2.48-2.81,4.49-3,3.64-.3,4.09-2.13,2.51-5-2.83-5.38-4-11.33-5.94-17,0-.33,0-.66,0-1-3.26,1.23-2.08,3.69-1.41,5.78.45,1.39,1.61,2.53,2.2,3.89s2.06,2.47,1.17,4.06a2.37,2.37,0,0,1-2.63,1c-1.7-.47-1.8-2.13-2.33-3.52-2.08-5.4-3.31-11.06-5.36-16.5-1.78-4.73-3.9-1.85-5.79-1.12-1.35.52-.81,2.36-.83,3.65,0,1.71-.07,3.3-2,4.18s-2.65-.09-3.47-1.6c-.53-1-1.71-.82-2.72-.64-5.22.93-7.49,4.09-6.51,9.65-2.64-1.71-4.33.41-6.38,1.14a1.8,1.8,0,0,1-2,1.93l0,1.23c1.86,2,6,1.73,5.78,5.76,1.92,1.74,4.39,1.37,6.67,1.8,1.42.27,3.05.58,3.36,2.46.22,1.34-.63,2.17-1.53,2.94-1.43,1.22-2.43.08-3.5-.67-3.05-2.13-5-1.47-6.5,2-2.72,6.45-2.85,6.41-8.59,2.59-4.31-2.86-6-2.19-6.59,3-.22,2.06-1.6,3.08-2.47,4.57s-4.25,1.59-2.55,4.42c4.17.11,7.61-3.72,12-2.19,1.06-1.15,2.12-2.27,3.92-1.88h0a2.29,2.29,0,0,1,1.76-2.09q14.06-5.13,28.06-10.35a7.06,7.06,0,0,1,6.18.43C79.19,329.58,79.51,329.59,79.82,329.6Z"/><path class="cls-8" d="M78.87,329.59a7.06,7.06,0,0,0-6.18-.43q-14,5.22-28.06,10.35a2.29,2.29,0,0,0-1.76,2.09c6-1.5,12.14-2.48,17.84-4.69,4.32-1.67,9.25-.42,13.14-3.32C74.54,331,79.3,333.56,78.87,329.59Z"/><path class="cls-5" d="M71.84,367.58a23,23,0,0,0,.45,4.41,3.1,3.1,0,0,0,2.91,2.35c1.64,0,1.5-1.43,1.78-2.51a16.53,16.53,0,0,1,2.89-6.25c-.2-4.72,2.14-9.35.23-15.05C75.8,355.89,74,361.82,71.84,367.58Z"/><path class="cls-5" d="M51.86,376.59c-.1,2,.71,3,2.87,3,2.94,0,5.12-1.29,6.17-3.94a64.8,64.8,0,0,0,2-7.07c.2-1.08.4-2.16.81-4.44-3.43,4.07-5.4,8.13-9.82,9.43l-1,2Z"/><path class="cls-4" d="M50.87,384.57l-.12,1C51.42,385.32,51.54,385,50.87,384.57Z"/><path class="cls-4" d="M39,343.47c-4.42-1.53-7.86,2.3-12,2.19a11.89,11.89,0,0,1-12.7,4c-2.93-1-3.62.42-5.29,1,.09,3.61-3.32,5.74-3.84,9.09,2.58-.38,3.5-4.3,6.79-3.18l0,0c0-.72,0-1.43,0-2.15a2.89,2.89,0,0,1,3.1-2.43c.17,0,.53.44.52.66-.06,1.45-1.15,1.76-2.31,1.93l-.18,2c2.48,2.52-1.51,3.87-1.08,6,1,1.1,1.45.27,2.25-.41,2.88-2.46,5.16-5.82,9.28-6.51,2.38-2.27,4-5.45,7.5-6.37,1.21-3.36,5.85-.19,7-3.67Z"/><path class="cls-8" d="M39,343.47l-1.06,2.17c3,.25,3.66-2.27,5-4.05C41.08,341.2,40,342.32,39,343.47Z"/><path class="cls-6" d="M51.9,345.62c.61-.12,1.32-.14,1.43-.95,0-.16-.37-.55-.54-.53-.81.1-.83.81-.95,1.43Z"/><path class="cls-2" d="M137.84,279.63c-.72,3.86-5.12,5.26-6,9,.23,1.56.85,1.59,1.76.44,5.26-6.71,12.5-10.29,21.3-13.54-2.27,3.45-4.74,5.07-7.16,6.81a30.94,30.94,0,0,0-9.89,10.73c-.63,1.22-1.45,3.25.17,3.13,2.76-.22,3.16,6.1,6.66,2.13.54-.61.84-1.38,1.75-1.59,5.36-1.26,6.37-1.76,8.4-4.12,3.63-6.88,6.7-14.09,12-20,1.76-3.42,2.87-7.34,6.88-9l.15-3-1,0c-.76,1.06-1.91,1-3,1-.2.78-.23,2.13-.63,2.26-5.11,1.59-8.2,7.55-14.41,6.69a8.64,8.64,0,0,0-3.27.8c-5,2.07-8.95,5.79-13.69,8.22Z"/><path class="cls-6" d="M166.79,272.63c-5.27,5.9-8.34,13.11-12,20,1.56.92,2.92,2.36,5,2,1-6.16,7.94-7.66,10.11-12.92.27-.63,1-.72,1.6-.08s-.27,3,1.77,1.82c1.38-.77,2.92-2.11,2.24-4-.84-2.32.17-3.36,2-4.21,3-1.36,2.43-6,6.54-6.65,1.5-.22,3-1,4.7-1,0-1,0-2,0-3h0c-1.44,0-2.83-.06-3-2v-2h-3c-1.06,1.13-.38,3.55-2.64,3.72-1,.08-1.19-.94-1.36-1.76-1.36.61-2.29,2.09-4,2C172.49,267.65,170.53,271,166.79,272.63Z"/><path class="cls-10" d="M42.9,399.56c4.41,3.27,5.25-.89,6.47-3.38s.94-4.65-2.63-4.73l-1.86,1.13Z"/><path class="cls-6" d="M51.86,376.59l1-1C52.39,375.81,51.1,375.19,51.86,376.59Z"/><path class="cls-8" d="M45.26,322.13c-5-3.17-9.65-.61-14.4.66-1.54,6.08-.92,6.78,6,6.8.53-4.78,2-8.45,8-7A2.18,2.18,0,0,0,45.26,322.13Z"/><path class="cls-4" d="M44.89,322.62c-6-1.48-7.47,2.19-8,7l2,0,3-.06A12.17,12.17,0,0,0,44.89,322.62Z"/><path class="cls-8" d="M41.83,329.57l-3,.06c.8,1.18,1.53,2.93,3.16,2.41C43.24,331.66,42,330.42,41.83,329.57Z"/><path class="cls-5" d="M192.88,377.24c7.69,4.58,14.77,10,22,15.29a2.18,2.18,0,0,1,2,1h.73A18.2,18.2,0,0,1,218.7,387a290.58,290.58,0,0,0-29.9-18.35,7.28,7.28,0,0,0-1,4.12l2.35,2.88.38-.05C191.65,375.65,192.63,375.92,192.88,377.24Z"/><path class="cls-8" d="M182.72,396.2c1.39-1.86,1.2-4,1.1-6.14a13.57,13.57,0,0,1,2.18-8.37l-2.12-.13-1.07,0h0c-.11,2.12-.27,4.21-2.75,5l-.15,10Z"/><path class="cls-4" d="M190.15,375.62l-2.35-2.88-2.89-.6C186.4,374.28,187.58,375.92,190.15,375.62Z"/><path class="cls-4" d="M192.88,377.24c-.25-1.32-1.23-1.59-2.35-1.67.07.63.16,1.25.24,1.88Z"/><path class="cls-5" d="M143.5,349.12c.12.06.24.19.35.17s.21-.15.31-.23Z"/><path class="cls-6" d="M128.58,343c0,.11.08.3.12.3a1.24,1.24,0,0,0,.36-.11c0-.11-.07-.3-.11-.3A1.3,1.3,0,0,0,128.58,343Z"/><path class="cls-8" d="M181.74,380.63a1.58,1.58,0,0,0-.23.93l1.3,0h0c0-.34,0-.68,0-1Z"/><path class="cls-4" d="M182.8,380.57c0,.33,0,.67,0,1l1.07,0Z"/><path class="cls-6" d="M44.84,313.6c2-.73,3.74-2.85,6.38-1.14-1-5.56,1.29-8.72,6.51-9.65,1-.18,2.19-.34,2.72.64.82,1.51,1.59,2.47,3.47,1.6s1.93-2.47,2-4.18c0-1.29-.52-3.13.83-3.65,1.89-.73,4-3.61,5.79,1.12,2,5.44,3.28,11.1,5.36,16.5.53,1.39.63,3.05,2.33,3.52a2.37,2.37,0,0,0,2.63-1c.89-1.59-.62-2.77-1.17-4.06s-1.75-2.5-2.2-3.89c-.67-2.09-1.85-4.55,1.41-5.78a7.56,7.56,0,0,1-.78-5.26c1-5.24.41-5.9-4.83-6.07a22,22,0,0,1-3.37-.64c-1.11,1.94-2.95,2.63-5,3-6.37-.17-11.47,2.77-15.39,7.32a10.32,10.32,0,0,1-7.64,3.66l-1,0c.08,1.65,2.51,2.94.36,5C42.27,311.62,43.63,313,44.84,313.6Z"/><path class="cls-6" d="M172.85,260.65l1,0a21,21,0,0,0,6.05-4.11c-.64-3.29.8-6.77-.88-10-8.57-.27-17.16-.82-25.21,3.1l-.82,0c-.86,1.18-1.18,2.94-3.14,2.94h0c.08,2,1.86,1.92,3.48,2.83-6.91,1.45-10.06,6.76-13.49,12,4.13-2.14,8.61-2.93,13.05-3.86C159.31,261.13,165.92,259.82,172.85,260.65Z"/><path class="cls-8" d="M172.85,260.65c-6.93-.83-13.54.48-20,2.93a3.37,3.37,0,0,1-2.65,3.11c-6.31,2.19-10.25,6.72-12.38,12.94,4.74-2.43,8.71-6.15,13.69-8.22a8.64,8.64,0,0,1,3.27-.8c3.29-5.88,9.13-7.47,15-8.95C170.94,261.63,172.09,261.71,172.85,260.65Z"/><path class="cls-6" d="M149.75,250.67a2.17,2.17,0,0,0-2,1l2.1.94h0C149.8,252,149.77,251.33,149.75,250.67Z"/><path class="cls-2" d="M39.87,391.57l-.38.21.39-.2Z"/><path class="cls-6" d="M80.88,304.59c1.93,5.7,3.11,11.65,5.94,17,0-1.67,0-3.33.05-5C85.48,312.31,86,307,80.88,304.59Z"/><path class="cls-8" d="M44.84,313.6c-1.21-.65-2.57-2-1.6-2.94,2.15-2.1-.28-3.39-.36-5H41.83l-1.94,1c.06,1.7-.22,3.22-2,4-2.21,1.73-5,2.9-6,5.88l10,.09c.23-.45-.39-1.7,1-1A1.8,1.8,0,0,0,44.84,313.6Z"/><path class="cls-4" d="M41.83,305.61h1.05l1,0c1-2.8,5.18-4,4.06-7.9C45.07,299.7,42.42,301.86,41.83,305.61Z"/><path class="cls-4" d="M37.86,310.6c1.81-.75,2.09-2.27,2-4C38.09,307.38,37.83,308.91,37.86,310.6Z"/><path class="cls-4" d="M49.87,296.66c1.56,1.4,1.78.18,2-1A2.09,2.09,0,0,0,49.87,296.66Z"/><path class="cls-6" d="M42.87,315.53c-1.39-.66-.77.59-1,1l1,.19C42.86,316.35,42.86,315.94,42.87,315.53Z"/><path class="cls-6" d="M11,374.47c2.89-7.1,8.36-12.49,12.46-18.79-4.12.69-6.4,4.05-9.28,6.51-.8.68-1.25,1.51-2.25.41l-2.77,1.11-2.19,3c-.89,4.63-3.27,9.05-2,14C7.24,378.91,10,377.58,11,374.47Z"/><path class="cls-10" d="M9.11,363.71l2.77-1.11c-.43-2.14,3.56-3.49,1.08-6H11.85l0,0C10.68,358.84,8.46,360.72,9.11,363.71Z"/><path class="cls-6" d="M95.85,364.59l-.38.2.38-.21Z"/><path class="cls-1" d="M225.12,78.71c-7.54,0-9.93,1.71-12.12,8.76-1,3.3-2.39,6.52-2.4,10.1,0,1.26-1,2.66.49,3.56a4.09,4.09,0,0,0,4.7-.14c5.81-4.35,11.56-8.77,17.31-13.19,1.26-1,2.35-2.54,1.36-3.85-1.49-2-2-5.17-5.36-5.23C227.77,78.7,226.44,78.72,225.12,78.71Z"/><path class="cls-1" d="M222,58.57c-2.67-2.63-6.05-1.68-9.21-1.83-.16,3.6-2.06,5.6-5.61,6-1.28.13-2.16.51-2.36,1.88,0,1.12.22,2.29-.79,3.14a.72.72,0,0,1,.24.73c3.59.42,6.67,1.43,7.69,5.55.56,2.26,2.38,2.81,4.61,2.75,3.62-.09,7.07-1.27,10.75-1.14,3.29.12.75-2.84,1.64-4.11-.75-4-2.85-7.45-5.14-10.76a2.16,2.16,0,0,1-1.09-2Z"/><path class="cls-3" d="M192.79,68.56l-2.14-.34c-1.87,2.13-3.88-.53-5.8.17-4.52,3.47-9.83,1.92-14.83,2.38-1.77.16-4.42-1.18-5,1.77-.45,2.41,2,2.81,3.54,3.52,11,5.09,22.67,5,34.78,3.74C195.56,79.75,195,73.44,192.79,68.56Z"/><path class="cls-10" d="M222,58.57l.73.21a2,2,0,0,1,1.09,2c2.29,3.31,4.39,6.71,5.14,10.76,3.25,3.84,4.76,8.7,7.5,12.85.63,1,.74,2.23,2.17,2.42a11.36,11.36,0,0,1,1.86-7.19c-2.84.31-3.79-1.26-3.75-3.8a9.84,9.84,0,0,1-2.85-4.54c-.8-4-1.42-8-5.11-10.54-.11-2.46-3.05-3.44-3.11-5.93-3.13-6.12-7.74-11.41-10-18a6.21,6.21,0,0,0-3.8-1C214.59,43.66,219.79,50.46,222,58.57Z"/><path class="cls-1" d="M154.68,63.41c-.78-2-1.71-4.7-3.88-4.57-2.36.16-2.32,3.34-2.65,5.14a25.56,25.56,0,0,0,3.46,19c-.3-4.37.5-8.76-1.63-13.07C148,65.82,149.21,64.49,154.68,63.41Z"/><path class="cls-9" d="M184.85,68.39c1.92-.7,3.93,2,5.8-.17a20.1,20.1,0,0,0-12.71-.16Z"/><path class="cls-4" d="M156.05,94.58c2.57-.33,4.33,2.08,6.81,2-1.17-3.29-3.72-4.14-6.88-3.91l-.29,1A7.12,7.12,0,0,1,156.05,94.58Z"/><path class="cls-1" d="M151.53,82.91a6.33,6.33,0,0,0,2.05,3.89C155.13,84.33,154.18,83.17,151.53,82.91Z"/><path class="cls-4" d="M213.81,131.41a6.12,6.12,0,0,0,5,.27A3.94,3.94,0,0,0,213.81,131.41Z"/><path class="cls-10" d="M244.57,114c.34-1.5-.4-2.16-1.79-2.32l-.75,2.38Z"/><path class="cls-9" d="M204.29,68.45a.72.72,0,0,0-.24-.73H204A.85.85,0,0,0,204.29,68.45Z"/><path class="cls-10" d="M241.24,116.19l.54-1.5A1.16,1.16,0,0,0,241.24,116.19Z"/><path class="cls-4" d="M222.81,197.59l-.95.29a4.28,4.28,0,0,1-4.21,1.76l.12-.06c.07,1.19-.68,1.21-1.54,1.09-2.59,2.67-6.92,1.18-9.45,4,.57,1.34,1.82,1.71,3,2.26.93.43.36,2,.06,1.8-1.77-1-3.76-.21-5.37-.83-1-.4.47-2,.25-3.11a5.66,5.66,0,0,0-4,1.89c.77.6,1.09,1.65.37,2.11-4.6,2.94-4.18,9-7.77,12.53-.61.6-2.36,2.61.44,3.37l1,0a7,7,0,0,1,2.78-4.56c1-.91,2.88-.77,2.94-2.85.13-5.27,4.9-5.22,8.13-6.14,1.48-.42,5.42-.4,5.16,3.6a5.11,5.11,0,0,0,1,.06c1.32-.61,0-2.48,1.25-2.93,5.71-2.12,7.3-7.5,9.82-12.16l-1-1.88Z"/><path class="cls-5" d="M224.81,197.77l1,1.88c4.1,0,5.17,2.48,5,6a5.9,5.9,0,0,1,.28,5.69,15.19,15.19,0,0,0-1.3,7.27c1.13.35,2.53,1.79,2.94-.74-1.22-1.52-.63-3-.05-4.58,2.15-6,1.51-11.35-3.93-15.45l-.95-.29Z"/><path class="cls-12" d="M224.81,197.77l3-.2a3.55,3.55,0,0,0-5,0Z"/><path class="cls-4" d="M211.91,35.75a6.21,6.21,0,0,1,3.8,1c1.46-1.74,1.78-3.22-.92-4-3.75-1.35-4.69-4.79-6-8-2.63-3.18-2.86-5.85.9-8.64,2.12-1.56,4.67-3.24,5.08-6.37l-5.13-1.09c-4.11,3.44-7.26,7.3-5.89,13.19.22,2.42,2.35,4.27,2.06,6.85C209,30.09,209.71,33.55,211.91,35.75Z"/><path class="cls-3" d="M205.84,28.69c.29-2.58-1.84-4.43-2.06-6.85l-2.95,0-1.11,5,.2,2C201.9,29.2,203.89,30.26,205.84,28.69Z"/><path class="cls-10" d="M199.92,28.77c-.06-.66-.13-1.32-.2-2-2.95-.32-6.74.79-7-4.13-2.35.16-4.86-.49-7.09,1.38,1.49,1.51,4.72.55,5,3.52Z"/><path class="cls-4" d="M192.76,22.66c.22,4.92,4,3.81,7,4.13l1.11-5C198.1,21.71,195.35,21.46,192.76,22.66Z"/><path class="cls-6" d="M150.73,51.73c0,.69.05,1.38.07,2.08,5.41,1.85,10.86,3.58,16.71,3.12l5.38-.31a2.46,2.46,0,0,1,3.88.05l4.07-.07,0-3.84c-5.57-2.63-11.59-4-17.21-6.63-3.58-1.66-6.71,2.47-9.83,4.4-.65.4-1.16,1.06-2,1.18Z"/><path class="cls-5" d="M180.82,52.76c0,1.28,0,2.56,0,3.84,2.65.46,5.49-.7,8,.93A47.4,47.4,0,0,1,203,63.3l1.26,1.22.29.07h.3c.2-1.37,1.08-1.75,2.36-1.88,3.55-.36,5.45-2.36,5.61-6a73.9,73.9,0,0,0-16-2C191.32,55.24,186.26,52.47,180.82,52.76Z"/><path class="cls-10" d="M188.85,57.53c-2.52-1.63-5.36-.47-8-.93l-4.07.07-3.88-.05-5.38.31C174.57,58.74,181.73,57.49,188.85,57.53Z"/><path class="cls-9" d="M204.25,64.52,203,63.3A1.33,1.33,0,0,0,204.25,64.52Z"/><path class="cls-5" d="M217.77,199.58c-1.27-.7-1.16.54-1.54,1.09-2.59,2.67-6.92,1.18-9.45,4l-2,.12a5.66,5.66,0,0,0-4,1.89c-5.68.65-10.68,3.28-15.84,5.42-1.09.45-2.43,1.06-3.27.09-1.43-1.66,2.21-1.24,1-3.58h-7.89c-1.34-1.56-2.63.28-3.95.06l0,0c.06-1,0-2.55,1-2.52,4.88.12,9.68-2.29,14.58-.58,5.26,1.82,9.71.12,12.25-4.73.3-.59.76-1,.54-1.76-.41-1.37-3.8-2.25-1.56-3.77,2.75-1.85,4.66-4.68,7.64-6.12.85-.41,1.56.21,2.12.87s1.59,1.63,1.84.73c1.11-4.06,5.35-3,7.63-5.07-.42,2.81.54,5.7-.93,8.51-1,2,1.07,1.19,1.88,1.51.29,1.34-1.74,2.57-.19,4Zm-6.47-2.49c1.09.27,1.38-.6,1.39-1.51,0-1.06-.32-2.09-1.42-2.37s-1.36.59-1.38,1.51S210.18,196.81,211.3,197.09Zm-9.68,4.15c-1,.95.23,1.21.95,1.33a4.74,4.74,0,0,0,1.39-.26C203.37,201.28,202.32,200.58,201.62,201.24Z"/><path class="cls-8" d="M200.78,206.65c-5.68.65-10.68,3.28-15.84,5.42-1.09.45-2.43,1.06-3.27.09-1.43-1.66,2.21-1.24,1-3.58h-7.89c.56,1.07,4.14,1.58.5,3.44-1.7.87-2.28,2.77-2.49,4.66,6.43-1.38,12.82-3.08,20.68-3.42-2.53,2-2,4.83-4.71,5.36-1.16,2.52,3.85,4.54.79,7-2.24,1.78-3.66,4.71-7,5.13-2.25.29-1.25,1.75-.8,2.93,1.06-.37,2.13-1.35,3.15.07l3.83-.09c-.58-4.25,4.76-5.18,5-9-2.8-.76-1-2.77-.44-3.37,3.59-3.58,3.17-9.59,7.77-12.53C201.87,208.3,201.55,207.25,200.78,206.65Z"/><path class="cls-5" d="M188.8,218.61c2.67-.53,2.18-3.35,4.71-5.36-7.86.34-14.25,2-20.68,3.42h0c-.33.67-.67,1.33-1,2,.43,1,1.31,2.21.17,3.16-3.1,2.61-1.31,3.85,1.94,4.73l-5.09,4.09c0,.67,0,1.33,0,2,.5,0,1.18.12,1.46-.14,4.67-4.36,10.5-7.31,14.63-12.34C185.77,219.13,186.61,216.82,188.8,218.61Z"/><path class="cls-4" d="M149.8,244.63c.16,1.5-.06,3.9,2.31,1.38a26.75,26.75,0,0,0,2.75-4.38c1.24-3.25,2.63-6.44,3-9.94l-.09-1.12A42.65,42.65,0,0,0,149.8,244.63Z"/><path class="cls-4" d="M163.6,207.58c-1.46.13-3,.08-3.31,1.64.21,2.79,4.45-1.92,3.54,2.45,2.68-.23,5.68.26,7-3l0,0C168.41,208.37,165.79,209.48,163.6,207.58Z"/><path class="cls-8" d="M171.83,218.66c.33-.67.67-1.33,1-2-3.86-.26-5.13,3.07-8.37,5.8C168.64,222.69,169.61,219.47,171.83,218.66Z"/><path class="cls-8" d="M157.81,230.57l.09,1.12c2.57-.76,3.15-2.87,4.64-6.09C159.48,227.24,158,228.36,157.81,230.57Z"/><path class="cls-8" d="M164.08,224.25l-.12-.34a1.25,1.25,0,0,0-.37.15s.07.22.11.33Z"/><path class="cls-10" d="M258.48,192c1.89,2.72,1.74,6.12,1.87,9,.49,11.65,3.61,22.91,4.54,34.47,1.25,1.94.77,4.16,1,6.26.43,3.56-1.23,7.24.65,10.71,1.59,1.12,1.15,2.86,1.35,4.41,1.6,3.78,1.82,7.77,1.85,11.78-.21,1.75.65,3.73-1.16,5.11.85,5.54,4.8,10.13,4.9,15.9-.69,4,.71,7.9.58,11.88l.45,3.05c.27,4.83.63,9.72,2.23,14.25a9.63,9.63,0,0,1,.14,6.54c.3,1.26.67,2.51.9,3.79,1.13,6.12.89,12.47,3,18.44l2-3.06.12-1.95c-.45-14.11-4.08-27.89-4.33-42-2.71-20.23-6.22-40.36-8-60.7-2.36-8.23-2.93-16.74-4-25.17-2.76-7.47-2.39-15.6-4.86-23.13-2.08.12-1.35-2.29-2.65-3Z"/><path class="cls-10" d="M259.62,176.78c.14-1.13.29-2.28-.8-3.09A3.55,3.55,0,0,0,259.62,176.78Z"/><path class="cls-6" d="M163.6,207.58c2.19,1.9,4.81.79,7.24,1,.06-1,0-2.55,1-2.52,4.88.12,9.68-2.29,14.58-.58,5.26,1.82,9.71.12,12.25-4.73.3-.59.76-1,.54-1.76-.41-1.37-3.8-2.25-1.56-3.77,2.75-1.85,4.66-4.68,7.64-6.12.85-.41,1.56.21,2.12.87s1.59,1.63,1.84.73c1.11-4.06,5.35-3,7.63-5.07,2.85-4.7,2.13-6.35-3.2-6.4-1.74,0-2.35-1.8-3.92-1.62-1,.61-1.93,1.66-3,1.76-10.77,1-18.7,8.29-28.26,12.07.35.57.43.93.65,1,1.74.88,4.87-1.2,5.37,2,.41,2.65-2,3.84-4,5.11a45,45,0,0,1-16.68,6Z"/><path class="cls-7" d="M194.87,127.62a2.58,2.58,0,0,0,3,.87A3.08,3.08,0,0,0,194.87,127.62Z"/><path class="cls-7" d="M193.46,127l1.39.58Z"/><path class="cls-6" d="M188.8,218.61c-2.19-1.79-3,.52-3.87,1.55-4.13,5-10,8-14.63,12.34-.28.26-1,.1-1.46.14-1.79,1.76-2.83,4-4.16,6.1-.74,1.17,0,4.41-3.7,2.74-1.43-.64-1.16,1.93-.16,3.16a23.62,23.62,0,0,0,11-4c1.28-5.27,7.21-3.88,10-7-.45-1.18-1.45-2.64.8-2.93,3.32-.42,4.74-3.35,7-5.13C192.65,223.15,187.64,221.13,188.8,218.61Z"/><path class="cls-4" d="M171.79,240.61a23.62,23.62,0,0,1-11,4c-1.95,2.23-7,.09-7,5,8.05-3.92,16.64-3.37,25.21-3.1-.26-2-2.31-1.91-3.43-2.9C173.84,243.22,172.09,242.8,171.79,240.61Z"/><path class="cls-4" d="M149.75,250.67c0,.66.05,1.32.07,2,2,0,2.28-1.76,3.14-2.94C151.44,248.51,150.65,249.77,149.75,250.67Z"/><path class="cls-15" d="M145.74,251.65a4.78,4.78,0,0,0-.08.75c0,.06.28.1.44.14Z"/><path class="cls-10" d="M145.86,229.64a5.19,5.19,0,0,0-.23.62c0,.1.05.22.07.34a7.5,7.5,0,0,0,.49-.66S146,229.74,145.86,229.64Z"/><path class="cls-3" d="M248.79,119.68l.16.36-.18-.34Z"/><path class="cls-8" d="M236.76,75.78c0,2.54.91,4.11,3.75,3.8l1.38-2.76A7.51,7.51,0,0,0,236.76,75.78Z"/><path class="cls-4" d="M291.08,379.69a1.7,1.7,0,0,1-.53.24c-2.71,1-.92,4.24-2.78,5.68.47,2.36,1.78,4.74-.12,7.06.65,3.65.53,7.44,2,10.93,2.4-1.31-.55-5.23,2.94-6C293.85,391.47,291.35,385.68,291.08,379.69Z"/><path class="cls-10" d="M287.65,392.67c1.9-2.32.59-4.7.12-7.06,0-1.33-.07-2.66-.1-4-2-.47-2.44-1.44-1-3,0-.63-.07-1.27-.1-1.9l-2.85.94-.81,1c.06,1,.13,1.94.19,2.92a3.34,3.34,0,0,1,.59,3.17c.11,1.27.23,2.53.35,3.8.12.48.25,1,.38,1.44.07.9.14,1.79.2,2.68Z"/><path class="cls-9" d="M285.88,416.48l.42,1.11Z"/><path class="cls-7" d="M300,406.46c-1.69,4.61-.78,9.45-1.27,14.17-.27,2.69.1,5.56-1.9,7.83.35,4.22,1.77,8.12,3.2,13.3,1.49-4.92.05-8.81,1.63-12.33C301.31,421.76,302.67,414,300,406.46Z"/><path class="cls-9" d="M303.45,394.59l-.73,1.78C303.71,396.09,303.74,395.4,303.45,394.59Z"/><path class="cls-1" d="M272.57,470.56c.06.68.13,1.35.19,2,.51-.3,1.41-.55,1.45-.91C274.34,470.56,273.31,470.68,272.57,470.56Z"/><path class="cls-1" d="M258.78,431.53l2,.05c0-1,0-2,0-3-1.46-3.36.86-5.12,3-7-.69-1.75-2.57-3.6.45-5q1.85-6.88,3.7-13.77l0-3.2c-.47.13-1.15.11-1.38.42-1.19,1.63-1.73,4.34-4.61,3.32s-2.64-3.86-3.09-6.19a4.46,4.46,0,0,1,1-3.21c1.43-2.29,1.31-3.81-1.83-4.57-2.09-.5-4.65-1-5.24-3.79-3.08-.47-6,.72-9,1-.49,2.06-1.44,2.56-3,.91-3.71.41-6.25,3.65-9.93,4.11,0,.31,0,.63-.05.94-1.92,2.81-5,3.33-8,4l-1,1c-.55,4.19-3.13,7.44-5.06,11l0,2c1.52,2.13,4,3.41,5,6,2.4,1.38,2.75,4.09,4,6.19,5.68,0,11.32,1.41,17.07-.41,4.07-1.3,7.78,0,9.9,4.21a5.79,5.79,0,0,1,.82.12c2.37,1,4.8,1.85,5.16,4.91Z"/><path class="cls-6" d="M271.94,414.63l3.63,15.85,2.5,1.59c-.34-6.1-2.89-11.66-4.33-17.5Z"/><path class="cls-4" d="M252.7,441.61c-2-2-4.06-1.28-5.59.32-3,3.14-6.43,6.06-7.88,10.41a6.62,6.62,0,0,0,5.51-3.73c2-4.26,5.28-4.35,9-4.07C253.4,443.56,253.05,442.58,252.7,441.61Z"/><path class="cls-10" d="M274.33,457.48c.08-.11.23-.24.21-.34s-.19-.18-.29-.27c-.08.12-.23.24-.22.34S274.22,457.39,274.33,457.48Z"/><path class="cls-10" d="M276.18,459.12l-1.1-.49c.12.41.25.81.37,1.22Z"/><path class="cls-8" d="M258.8,431.55c-.36-3.06-2.79-3.95-5.16-4.91.73,1.75.38,4.05,2.57,5.06Z"/><path class="cls-5" d="M260.76,431.56l1,1.05Z"/><path class="cls-4" d="M256.66,7.81c-.17,2.47.7,3.4,3.08,2.08C259.68,7.77,258.24,7.68,256.66,7.81Z"/><path class="cls-3" d="M214.79,32.73c2.7.79,2.38,2.27.92,4,2.24,6.62,6.85,11.91,10,18,2.66-2,4-4.24,1.93-7.52-1-1.64-1-3.11.56-4.85a6.54,6.54,0,0,0-1.15-10c-2.87-2.07-3.62-4.43-2.22-7.59a2,2,0,0,1-2.06-2.05C218.89,25.09,217.94,29.79,214.79,32.73Z"/><path class="cls-2" d="M214.79,32.73c3.15-2.94,4.1-7.64,8-10a5,5,0,0,1,3.11-4c0-2.74,2.7-4.32,3-6.93-.39-.3-.75-.78-1.18-.85-2.61-.43-16,7.89-16.79,10.43a18.1,18.1,0,0,0-.25,2c-.2,1-1,1.24-1.82,1.41C210.1,27.94,211,31.38,214.79,32.73Z"/><path class="cls-3" d="M208.82,24.75c.83-.17,1.62-.45,1.82-1.41a18.1,18.1,0,0,1,.25-2c.81-2.54,14.18-10.86,16.79-10.43.43.07.79.55,1.18.85a7.25,7.25,0,0,0,3-3l-1.11-3.95c-1.07,0-2.19-.11-2.94.92-2.85,2.64-5.74,5.1-10,2.9l-3,1.11c-.41,3.13-3,4.81-5.08,6.37C206,18.9,206.19,21.57,208.82,24.75Z"/><path class="cls-4" d="M217.79,8.63c4.25,2.2,7.14-.26,10-2.9C224.44,6.66,220.41,5.23,217.79,8.63Z"/><path class="cls-4" d="M230.72,4.81l1.11,4C234.8,6.5,233.76,5.38,230.72,4.81Z"/><path class="cls-8" d="M254.34,16.65h1.77C255.53,15.86,254.93,15.93,254.34,16.65Z"/><path class="cls-8" d="M254.82,18.71c.09,2,1.5,2,3,2C257.64,18.81,256.26,18.72,254.82,18.71Z"/><path class="cls-4" d="M288.86,270.55l-.09-3.89c-3.19-.16-4.27,2.55-6.54,4.75Z"/><path class="cls-8" d="M166.81,430.56c0-1.32,0-2.64.05-4l.93-6a2.35,2.35,0,0,0-1.9,1.34c-3,6-4.75,6.87-11.65,6.25-2.3-.21-2.59,1.17-1.64,2.75a28.23,28.23,0,0,0,3.19,3.68c1.37-1.19,1.88-4.69,4.07-3.29,2.42,1.55.32,4.39-.81,6.07s-2.62,2.91-2.2,5.15l2,1c2.34-.32,6.4.79,3.24-4a1.79,1.79,0,0,1,.62-2.24C164.92,435.5,165.19,432.62,166.81,430.56Z"/><path class="cls-10" d="M158.88,443.52l-2-1c-1.73.17-3.22-.16-4-1.92-2,.32-3.9,1.35-6,.87-2.44.32-3.1,1.92-2.95,4.1a2.92,2.92,0,0,1,3,2.92A2.16,2.16,0,0,1,149,450.4l2.75,0c0-.31,0-.63,0-.94.19-1.93,1.34-2.74,3.19-3S158.49,445.71,158.88,443.52Z"/><path class="cls-4" d="M167.79,420.55l-.93,6c3-1,4.17-5.12,6.71-5.49,7.47-1.08,7-5.29,5.25-10.51l-1,0a12.41,12.41,0,0,1-6,5l0,0a1.82,1.82,0,0,1-2,2l0,0c0,1.46,0,2.85-2,3Z"/><path class="cls-4" d="M152.81,440.58c.82,1.76,2.31,2.09,4,1.92-.42-2.24,1.09-3.49,2.2-5.15s3.23-4.52.81-6.07c-2.19-1.4-2.7,2.1-4.07,3.29-.12,1.93-1.54,2-2.95,2Z"/><path class="cls-8" d="M152.81,440.58l0-4c-5.67-1.43-5.82-1.31-6.05,4.87C148.91,441.93,150.81,440.9,152.81,440.58Z"/><path class="cls-8" d="M171.8,415.53a12.41,12.41,0,0,0,6-5C172.89,408.69,173,412.85,171.8,415.53Z"/><path class="cls-4" d="M146.87,448.47a2.92,2.92,0,0,0-3-2.92c-.85.48-2.07,1.12-1.44,2.11C143.45,449.31,145.33,448.35,146.87,448.47Z"/><path class="cls-8" d="M185.88,398.23l-2.72-.45c-.11,1.61-.21,3.22-.32,4.83l2.91-.15C185.79,401.05,185.84,399.64,185.88,398.23Z"/><path class="cls-8" d="M167.81,420.53c2-.12,2-1.51,2-3C167.88,417.71,167.79,419.09,167.81,420.53Z"/><path class="cls-8" d="M169.81,417.54a1.82,1.82,0,0,0,2-2A1.9,1.9,0,0,0,169.81,417.54Z"/><path class="cls-4" d="M302.09,334.73a2.3,2.3,0,0,0,.6,2.85C302.64,336.6,302.92,335.55,302.09,334.73Z"/><path class="cls-4" d="M158.88,443.52c-.39,2.19-2.1,2.74-3.9,3s-3,1.06-3.19,3c3,.82,6.57.3,8.05,4l2.95,1.11c6.12.51,9.93,5.36,15,7.92,2.07-1.46,4.45-.1,6.73-.85,2.84-.94,2.81-2.43,1-3.8-5-3.84-10-8.34-17.08-6.64-3.81.92-4.73-2.38-5.79-4.11-1.5-2.44,1.77-2.4,3.19-3.07,2.11-1,3.37-2.2,2.13-4.59-1.48-2.85.41-6.11-1.15-8.93-1.62,2.06-1.89,4.94-4.07,6.69a1.79,1.79,0,0,0-.62,2.24C165.28,444.31,161.22,443.2,158.88,443.52Z"/><path class="cls-4" d="M185.88,398.23c0,1.41-.09,2.82-.13,4.23a9.58,9.58,0,0,1,6.47,11.3c-1.72,6.79-.19,13.27,1.6,19.76,1,.71,1.39,2.2,2.94,2.12a14,14,0,0,0-.81-5.24c-.51-1.89-2.25-3.85-.14-5.84,0-.65-.05-1.3-.08-2-3-1.92-3.23-4,.43-4.89,2.47-.64,2.77-2,2.64-3.88a18.87,18.87,0,0,1,1.08-7.27c-.78-1.59-2.25-3-1.06-5C194.9,398.88,190.37,398.65,185.88,398.23Z"/><path class="cls-4" d="M188.81,446.54c-.66-2.12-1.44-4.56-3-.56-.86,2.16-2.9,1-4.61,2.48,4.8,3.13,6.73,10.51,14.61,8.11C193.85,453,190.09,450.61,188.81,446.54Z"/><path class="cls-7" d="M196.76,435.64c-1.55.08-2-1.41-2.94-2.12-2.32-.22-4.22.14-4.2,3.1l1.17,2c1.26.07,2,.68,1.87,2l.08.09c3.24,2.47,3.07,5.56,1.64,8.88,1,2.44,4.09,2,5.4,4,2.46-.82,1.08-2.61,1-4.07-4.43-2.73-4.55-6.64-3-11C197.65,437.51,197.87,436.33,196.76,435.64Z"/><path class="cls-4" d="M190.79,438.6l-1.17-2c-2.24-.19-2.8-2.07-3.62-3.65-1.55-3-3.89-4.76-8.37-5,4.66,5.28,7.62,11,12.77,14.89,2,1.5,2.27-.63,2.34-2.16l-.08-.09A1.89,1.89,0,0,1,190.79,438.6Z"/><path class="cls-8" d="M199.78,453.62c-1.31-2-4.42-1.6-5.4-4-2.29-.22-3.15-3.05-5.57-3,1.28,4.07,5,6.41,7,10l1.05,1C199.89,457.79,199.88,455.74,199.78,453.62Z"/><path class="cls-6" d="M287.67,381.62c0,1.33.07,2.66.1,4,1.86-1.44.07-4.66,2.78-5.68-.07-2-.14-4.05-.22-6.08-1.05-1.67-.47-3.47-.43-5.24-.25-2-.51-4.05-.76-6.08l-.21-1.91-1.41-8.05-2.9-.08-.09.06c.08,4.14.22,8.28.19,12.42,0,1.69.79,3.79-1.62,4.7l.17,1.76c3.11.49,3.51,2.68,3.29,5.26,0,.63.07,1.27.1,1.9C287.9,379.3,287.77,380.46,287.67,381.62Z"/><path class="cls-6" d="M285.53,335.64a1.76,1.76,0,0,0,.24,3Z"/><path class="cls-4" d="M282.76,344.56c-.65,1-1.3,2-2,3.06.06.65.11,1.29.16,1.94l2.73.05c0-1.66,0-3.32,0-5Z"/><path class="cls-10" d="M283.69,349.61l-2.73-.05c.08,1,.15,2.06.22,3.09l3.35-.1.09-.06C284.65,351.42,284.73,350.34,283.69,349.61Z"/><path class="cls-6" d="M282.76,344.56l1,.06-.85-2Z"/><path class="cls-6" d="M159.84,453.52c-1.48-3.74-5.1-3.22-8.05-4,0,.31,0,.63,0,.94C154.22,452,156.59,453.92,159.84,453.52Z"/><path class="cls-1" d="M195.73,422.6c0,.66.05,1.31.08,2,4.37,4.82,3,11.66,6,17h0a1.91,1.91,0,0,1,2,2l2,2a1.94,1.94,0,0,0,2-2l-1-10a108,108,0,0,0-5.61-9.77C200,422.15,198.46,418.63,195.73,422.6Z"/><path class="cls-10" d="M197.81,438.55c-1.54,4.36-1.42,8.27,3,11,2.7-1.29,1.88-3.73,1.92-5.89-.3-.71-.61-1.41-.92-2.12h0Z"/><path class="cls-6" d="M207.85,443.55a1.94,1.94,0,0,1-2,2c-.23,1.7.56,3.6-1,5,0,.66,0,1.33,0,2h0a2.12,2.12,0,0,1,2,1h2c1.22-1.91,5.62.11,5-4.06h0c-1.7.06-3.25-.19-4-2l-.18-2Z"/><path class="cls-8" d="M204.77,452.57c0-.67,0-1.34,0-2-.7.14-1.66.14-1.45,1.17C203.43,452.1,204.28,452.3,204.77,452.57Z"/><path class="cls-8" d="M206.8,453.6a2.12,2.12,0,0,0-2-1C205,453.79,205.26,455,206.8,453.6Z"/><path class="cls-6" d="M201.82,441.54c.31.71.62,1.41.92,2.12l1.08-.13A1.91,1.91,0,0,0,201.82,441.54Z"/><path class="cls-10" d="M209.64,445.54l.18,2c1.64.06,3.2.28,4,2h0l2.3.88c-.32-2.24,1.45-3.68,2.1-5.55-1.62-.67-3.2-1.42-4.85-2C210.89,442,209.73,443.06,209.64,445.54Z"/><path class="cls-3" d="M188.81,264.63c0,1,0,2,0,3,4,4.56,9,8.61,7,15.84-1,3.77,3.06,1.59,3.88,3.24l2.11.84c0-1.12-.14-2.31,1.09-3-1.1-1.82-.42-3.48.48-5.12,3.6-6.48,3.62-13.7,4.3-20.79l-2.92,1-2,0A3.12,3.12,0,0,1,201,262.7,16.36,16.36,0,0,1,188.81,264.63Z"/><path class="cls-5" d="M186.72,274.11c-2.32,2.71-7.7,2.17-8.48,7.46-.3,2-.22,4.23-1.72,6.08-1.37,1.69-.07,2.89,1.28,4.11s2.92,2.2,4.23.64a132.23,132.23,0,0,0,9.2-12C192.33,278.67,188.93,274,186.72,274.11Z"/><path class="cls-3" d="M170.82,306.62c0,.31,0,.63,0,.94l1.6-.73Z"/><path class="cls-5" d="M212.37,304.42a84.55,84.55,0,0,1,8.24,15.05,36.33,36.33,0,0,1,4.54,10.62l1.61,2.48a7.61,7.61,0,0,1,1.24,4.54,10.22,10.22,0,0,1,2.75,6.5c2,5.24,8.68,22.23,10.43,27.54.66,2,1.83,3,3.51,2.43,2-.73.59-2.42.19-3.64-1.47-4.51-7.59-20.8-9.12-25.3-1.66-3.66-5.5-7.46,1.26-10.76-4.48.52-7-1-7.85-5q-2.28-5.13-4.58-10.25l-8.93-16c-4.44-5.89-7.81-12.53-12.75-18.07-1.23.68-1.06,1.87-1.09,3l7.44,11.92a8.47,8.47,0,0,1,2.53,4.14Z"/><path class="cls-13" d="M195.5,333c-3.6-1.68-6.24,2.42-9.7,1.61a2.13,2.13,0,0,0-1,2C188.63,336.16,192.48,335.77,195.5,333Z"/><path class="cls-12" d="M206.8,301.61l-.37.21.37-.21Z"/><path class="cls-8" d="M180.88,357.16c4.29-.56,6.78-4.61,10.85-5.61,1.39-2.33,3.25-1.67,5.14-.8.81-2.14,4.52-2.31,3.74-5.52a7.51,7.51,0,0,1-1.48.15c-2.42-.25-4.61-3.2-7.27-.76C187.75,348.4,181.46,350.29,180.88,357.16Z"/><path class="cls-6" d="M204.89,343.36c2.21,1.05,4.71,1.74,5.66,4.42l2-.38c-2.09-3.39.12-5.85,1.84-8.41C210.06,337.9,207.85,341.45,204.89,343.36Z"/><path class="cls-6" d="M216.88,337l1.76-.83c.11-.92.22-1.84.32-2.75-1.94-3-5.84-.8-8.06-3.06l-3,.75c-.71,1.73-.23,2.27,1.7,2.79C212.11,334.53,215.2,334.22,216.88,337Z"/><path class="cls-10" d="M173.74,369.35a9.62,9.62,0,0,0,3.47,9.08,2.09,2.09,0,0,0,1.69.53,1.75,1.75,0,0,0,.75-1.56C178.4,374.38,177.6,371,173.74,369.35Z"/><path class="cls-4" d="M182.81,381.58l-1.3,0a6.12,6.12,0,0,0-1.45,5.06C182.54,385.79,182.7,383.7,182.81,381.58Z"/><path class="cls-10" d="M13.14,354.59c1.16-.17,2.25-.48,2.31-1.93,0-.22-.35-.67-.52-.66a2.89,2.89,0,0,0-3.1,2.43Z"/><path class="cls-7" d="M13.14,354.59l-1.31-.16c0,.72,0,1.43,0,2.15H13Z"/><path class="cls-4" d="M179.87,256.52a21,21,0,0,1-6.05,4.11c0,1-.1,2-.14,3l1.13,1c1.71.08,2.64-1.4,4-2,1.09-1.16,1.5-3.68,4-2h3c.32-2.69,3.61-3,4.51-5.14-1.46-1.81-3.52.53-4.71-1.24C183.76,255.16,183.66,260.54,179.87,256.52Z"/><path class="cls-6" d="M169.84,261.66c-5.91,1.48-11.75,3.07-15,8.95,6.21.86,9.3-5.1,14.41-6.69C169.61,263.79,169.64,262.44,169.84,261.66Z"/><path class="cls-8" d="M174.81,264.62l-1.13-1c-4,1.7-5.13,5.62-6.89,9C170.53,271,172.49,267.65,174.81,264.62Z"/><path class="cls-8" d="M185.61,254.26c1.19,1.77,3.25-.57,4.71,1.24-.9,2.11-4.19,2.45-4.51,5.14v2c1.45,0,2.84.05,3,2h0A16.36,16.36,0,0,0,201,262.7a3.12,3.12,0,0,0,1.82-3.06,9.38,9.38,0,0,1-2.27.89c-1.25.15-2.85,1.86-3.7-.5-.58-1.63-1.84-3.41-.23-5a4.26,4.26,0,0,1,5-1.05,5.76,5.76,0,0,1,3.16,5.66l2.92-1c-.07-1,.19-2.14-.25-2.88C202.35,247.3,192.44,246.65,185.61,254.26Z"/><path class="cls-8" d="M182.81,260.65c-2.5-1.72-2.91.8-4,2,.17.82.32,1.84,1.36,1.76C182.43,264.2,181.75,261.78,182.81,260.65Z"/><path class="cls-3" d="M188.8,264.63c-.15-1.94-1.54-2-3-2C186,264.57,187.36,264.64,188.8,264.63Z"/><path class="cls-7" d="M224.08,368.74c0,.33.13.49.46.46a3.75,3.75,0,0,1,3.68,2.37c.67.16,1.36.27,1.56,1.09l-.07,0c2.35-2.84,2.12-5.66-1.21-7.05-3.88-1.62-6.77-4.28-9.74-7l.05-.08c-.44.84.45,2.63-1.31,2.42-1.25-.15-1.77-1.24-.65-2.41l0,0-1.26.81c-.9.84-1.84.39-2.78.08l-1.37-.65a.71.71,0,0,1-.61-.17l-2,0a2.31,2.31,0,0,1-1.2,2.22c.91,1,1.85,1.87,3.34,1.71.45-.69.66-.29.86.19l-.07-.05c.92-.07,1.77,0,2,1.11l-.08-.05C217.66,364.32,220.86,366.55,224.08,368.74Z"/><path class="cls-8" d="M230.78,392.56c0-.31,0-.63.05-.94,1.8-3.2,2.61-6.5,1-10l-.27-.19c-2.55,2-6.82-.58-8.71,3.23,3.06.11,4.06,1.54,3,4.48a7.43,7.43,0,0,0-.06,2.41A7.85,7.85,0,0,0,230.78,392.56Z"/><path class="cls-4" d="M225.77,391.51a7.38,7.38,0,0,1,.06-2.4c1-2.94,0-4.37-3-4.48-1.59.39-1.93,3-4.12,2.34a18.2,18.2,0,0,0-1.06,6.58c2.07,1.68,3.55-.06,5.2-.88Z"/><path class="cls-8" d="M228.22,371.57a3.75,3.75,0,0,0-3.68-2.37,54.11,54.11,0,0,0,7,12.2l.27.19,1.67-.31c-.82-3.08-3.87-5.18-3.76-8.65l.07,0C228.82,372.93,228.62,372.11,228.22,371.57Z"/><path class="cls-8" d="M224.08,368.74c-3.22-2.19-6.42-4.42-10.4-5.06C216.08,367.55,219.88,368.56,224.08,368.74Z"/><path class="cls-10" d="M202,357.25a.69.69,0,0,1,.57.31l5,3.21a2.31,2.31,0,0,0,1.2-2.22l-3.22-1.85A4,4,0,0,0,202,357.25Z"/><path class="cls-8" d="M213.76,363.73c-.27-1.13-1.12-1.18-2-1.11C212.23,363.3,212.43,364.55,213.76,363.73Z"/><path class="cls-8" d="M211.79,362.67c-.2-.48-.41-.88-.86-.19A5.08,5.08,0,0,0,211.79,362.67Z"/><path class="cls-5" d="M198.82,401.53c-1.19,2,.28,3.44,1.06,5,3.71,1.87,3.47,5.76,4,8.9.53,3.4,1.25,6.34,3.86,8.67,1.6-1.22-.85-3.08,1.16-4.13,2,1.43,4.05,3.06,6.25,4.39,2.49,1.51,2.32,4.42,3.78,7.34,1.23-2.63.57-4.44.45-6.35-.19-3.13-.34-6.47,2.48-8.85-1-2.56-3.52-3.84-5-6-1.45,0-2.83-.07-3-2h0a3.08,3.08,0,0,1-2.9-1.64Z"/><path class="cls-6" d="M210.9,406.93a3.08,3.08,0,0,0,2.9,1.64c1.4-4.59,3.81-8.43,8-11l1-1,0-3.91c-1.65.82-3.13,2.56-5.2.88h-.73l-1.41,1.17c-.37.77-.73,1.55-1.09,2.33.66,2.45.21,4.45-2.31,5.6Z"/><path class="cls-10" d="M212.1,402.65c2.52-1.15,3-3.15,2.31-5.6A7.57,7.57,0,0,0,212.1,402.65Z"/><path class="cls-10" d="M215.5,394.72l1.41-1.17a2.18,2.18,0,0,0-2-1Z"/><path class="cls-2" d="M223.84,60.74a2,2,0,0,0-1.09-2A2.16,2.16,0,0,0,223.84,60.74Z"/><path class="cls-5" d="M243.61,236c1.41,4,4.43,7.18,5.34,11.39h-.06l.78,1.2.27.09V249l1.21,2q2.91,5.11,5.8,10.24l6.8,11.44c1.46-3.5-.59-6.67-1-10-5.21-8.5-10.45-17-15.61-25.52a7,7,0,0,0-2-2.69Z"/><path class="cls-9" d="M262.75,262.67c.4,3.32,2.45,6.49,1,10q1,3,2,5.94c3.6,1.92,3.94,5.64,5,9l0,.37,2.72,1.72c-.1-5.77-4.05-10.36-4.9-15.9-2.09-7-4.6-13.89-2-21.3-1.88-3.47-.22-7.15-.65-10.71-.25-2.1.23-4.32-1-6.26C265.71,244.68,262.83,253.56,262.75,262.67Z"/><path class="cls-6" d="M243.61,236l1.53-1.56a84.45,84.45,0,0,0-12.43-16.57c-.41,2.53-1.81,1.09-2.94.74l-1,1,.08,2.13c2.59-.72,3.91.86,5,2.79A36.66,36.66,0,0,0,243.61,236Z"/><path class="cls-1" d="M228.75,219.62l1-1a15.19,15.19,0,0,1,1.3-7.27,5.9,5.9,0,0,0-.28-5.69c-2.22.93-2,3.25-2.86,5-2.84,6-9,7.91-13.17,4.09a5.11,5.11,0,0,1-1-.06l-3,2c-2.09,2.6-5.45,4.25-6,8-.69,3,2.1,7.38-3.08,8.47-4.67,1-5.5,3.85-4.83,7.87l1.92-.31c.7-2.65,2.19-2.43,4-1.08l2-.65c2.08-2.93,4.72-4.58,8.46-3.7l.16-.1c-.67-3.38,1.93-2.17,3.46-2.47h0c.47-2.39,1.47-4.14,4.37-3.55l.06-.07a.84.84,0,0,1,.94-1h0c-.47-2.38,1.13-2.34,2.71-2.31l0,0C224.46,222.64,224.84,220,228.75,219.62Z"/><path class="cls-6" d="M214.76,214.74c4.16,3.82,10.33,1.88,13.17-4.09.83-1.73.64-4.05,2.86-5,.21-3.54-.86-6-5-6-2.52,4.66-4.11,10-9.82,12.16C214.8,212.26,216.08,214.13,214.76,214.74Z"/><path class="cls-8" d="M210.78,216.64l3-2c.26-4-3.68-4-5.16-3.6-3.23.92-8,.87-8.13,6.14-.06,2.08-1.92,1.94-2.94,2.85a7,7,0,0,0-2.78,4.56c2.58-.39,4.21-2.46,6.37-3.58C204.29,219.42,206.65,216.07,210.78,216.64Z"/><path class="cls-6" d="M210.78,216.64c-4.13-.57-6.49,2.78-9.62,4.41-2.16,1.12-3.79,3.19-6.37,3.58l-1,0c-.27,3.78-5.61,4.71-5,9,.74-.29,1.8-.36,2.16-.91,3.29-5,8.36-6.87,13.85-8.07C205.33,220.89,208.69,219.24,210.78,216.64Z"/><path class="cls-8" d="M206.78,204.64l-2,.12c.22,1.12-1.27,2.71-.25,3.11,1.61.62,3.6-.18,5.37.83.3.17.87-1.37-.06-1.8C208.6,206.35,207.35,206,206.78,204.64Z"/><path class="cls-12" d="M217.77,199.58c-1.27-.7-1.16.54-1.54,1.09C217.09,200.79,217.84,200.77,217.77,199.58Z"/><path class="cls-5" d="M172.89,56.62l3.88.05A2.46,2.46,0,0,0,172.89,56.62Z"/><path class="cls-6" d="M209.88,194.72c0,1.06.3,2.09,1.42,2.37s1.38-.6,1.39-1.51c0-1.06-.32-2.09-1.42-2.37S209.91,193.8,209.88,194.72Z"/><path class="cls-6" d="M204,202.31c-.59-1-1.64-1.73-2.34-1.07-1,.95.23,1.21.95,1.33A4.74,4.74,0,0,0,204,202.31Z"/><path class="cls-5" d="M204.8,224.64c-5.49,1.2-10.56,3.06-13.85,8.07-.36.55-1.42.62-2.16.91l-3.83.09a7.62,7.62,0,0,0-.14.94,1.84,1.84,0,0,1-2,1.95h0c0,1.48-.56,2.55-2.14,2.85l-.81,1.8,10.94,0,1.1-.67c.69-.93,1.33-.82,1.94.08a3.84,3.84,0,0,1,.08.76l3-.41c-.67-4,.16-6.89,4.83-7.87C206.9,232,204.11,227.61,204.8,224.64Z"/><path class="cls-10" d="M184.82,234.65a7.62,7.62,0,0,1,.14-.94c-1-1.42-2.09-.44-3.15-.07-2.81,3.09-8.74,1.7-10,7,.3,2.19,2.05,2.61,3.77,3,.81-1.87,2.84-1.62,4.26-2.41l.81-1.8c.15-1.37.32-2.72,2.14-2.85h0A1.88,1.88,0,0,1,184.82,234.65Z"/><path class="cls-8" d="M266.56,252.47c-2.56,7.41-.05,14.33,2,21.3,1.81-1.38.95-3.36,1.16-5.11-2-3.71-2.15-7.71-1.85-11.78C267.71,255.33,268.15,253.59,266.56,252.47Z"/><path class="cls-9" d="M267.91,256.88c-.3,4.07-.15,8.07,1.85,11.78C269.73,264.65,269.51,260.66,267.91,256.88Z"/><path class="cls-4" d="M271.94,414.63l1.8-.06q-.6-4-1.19-8l-.46-1.63c-.17-.77-.33-1.54-.5-2.31l-1.95-4-1.72,1,0,3.2c3,1.41,1.64,4.54,2.62,6.76A34.35,34.35,0,0,1,271.94,414.63Z"/><path class="cls-5" d="M267.92,399.59l1.72-1c-.13-1.69-.27-3.39-.4-5.08-.77-1.72-.94-3.39.38-4.95l1-3.68c-2.11-.8-1.78-2.64-1.84-4.3h0c-4.23,3.61-9.32,4.31-14.62,4.4a4.28,4.28,0,0,0-1.37.59c.59,2.83,3.15,3.29,5.24,3.79,3.14.76,3.26,2.28,1.83,4.57a4.46,4.46,0,0,0-1,3.21c.45,2.33.27,5.19,3.09,6.19s3.42-1.69,4.61-3.32C266.77,399.7,267.45,399.72,267.92,399.59Z"/><path class="cls-5" d="M279.64,357.71l-1-.59c-.86.53-2,1.26-1.2,2.26,1.65,2,.6,3.61-.19,5.44a24.45,24.45,0,0,1-9.48,10.81,8,8,0,0,1,1,4.95h0c1.86.83,2.06,2.45,2,4.2,5.15-2.43,8.26-6.74,10.72-11.64A40.31,40.31,0,0,0,279.64,357.71Z"/><path class="cls-7" d="M279.64,357.71a40.31,40.31,0,0,1,1.83,15.43l1.18.59.62-2.3-.18-1.76c-1.22-3.91,1.1-8.34-1.76-12Z"/><path class="cls-4" d="M283.27,371.43l-.62,2.3c.07,1.26.14,2.51.22,3.77a2.42,2.42,0,0,1,.84.13l2.85-.94C286.78,374.11,286.38,371.92,283.27,371.43Z"/><path class="cls-6" d="M270.75,384.78c.08-1.75-.12-3.37-2-4.2.06,1.66-.27,3.5,1.84,4.3Z"/><path class="cls-4" d="M269.62,388.56c-1.32,1.56-1.15,3.23-.38,4.95C269.37,391.86,269.49,390.21,269.62,388.56Z"/><path class="cls-7" d="M283.68,384.72a3.34,3.34,0,0,0-.59-3.17A3,3,0,0,0,283.68,384.72Z"/><path class="cls-16" d="M281.76,392.57l.71-1c-1.11-.29-.45.67-.7,1Z"/><path class="cls-7" d="M284.41,390c-.13-.48-.26-1-.38-1.44C284.16,389,284.28,389.48,284.41,390Z"/><path class="cls-7" d="M283.71,377.63a2.42,2.42,0,0,0-.84-.13l0,1.13Z"/><path class="cls-4" d="M287.67,381.62c.1-1.16.23-2.32-1-3C285.23,380.18,285.71,381.15,287.67,381.62Z"/><path class="cls-6" d="M268.77,380.58a8,8,0,0,0-1-4.95,25.12,25.12,0,0,0-19.53-6c-2.29,2.39-4.8,1-7.78.07.7,2.76.27,5-2,6.31-1.93,1.1-2.25,3.12-3.09,4.86.49,1.87.58,4,3.66,2.89,2.13-.75,2.89.74,2.76,2.73l2.08.07c3-.31,5.9-1.5,9-1a4.28,4.28,0,0,1,1.37-.59C259.45,384.89,264.54,384.19,268.77,380.58Z"/><path class="cls-6" d="M221.81,416.53c-2.82,2.38-2.67,5.72-2.48,8.85.12,1.91.78,3.72-.45,6.35-1.46-2.92-1.29-5.83-3.78-7.34-2.2-1.33-4.23-3-6.25-4.39-2,1.05.44,2.91-1.16,4.13-2.61-2.33-3.33-5.27-3.86-8.67-.48-3.14-.24-7-4-8.9a18.87,18.87,0,0,0-1.08,7.27c.13,1.92-.17,3.24-2.64,3.88-3.66.94-3.47,3-.43,4.89,2.73-4,4.31-.45,5.46,1.19a108,108,0,0,1,5.61,9.77c4.44.29,3.17,6.14,7.31,7.17,1.52-3-1.37-4.7-2-7a58.17,58.17,0,0,1-1-7.49c3.27,3,5.29,7,5.35,10.68.07,4.18,2,3.64,4.41,3.67,4.53-5.16,5.26-11.37,5-17.87C224.56,420.62,224.21,417.91,221.81,416.53Z"/><path class="cls-4" d="M241.72,386.53c.13-2-.63-3.48-2.76-2.73-3.08,1.08-3.17-1-3.66-2.89l-1.83.37-1.67.31c1.64,3.53.83,6.83-1,10,3.68-.46,6.22-3.7,9.93-4.11Z"/><path class="cls-5" d="M221.8,397.58c-4.19,2.56-6.6,6.4-8,11h0l3,0C218.67,405,221.25,401.77,221.8,397.58Z"/><path class="cls-5" d="M222.84,392.67l0,3.91c3-.69,6.05-1.21,8-4a7.85,7.85,0,0,1-5-1Z"/><path class="cls-5" d="M241.72,386.53l-1,1c1.6,1.65,2.55,1.15,3-.91Z"/><path class="cls-6" d="M216.74,408.58l-3,0c.15,1.93,1.53,2,3,2Z"/><path class="cls-8" d="M220.87,440.59c-2.44,0-4.34.51-4.41-3.67-.06-3.67-2.08-7.65-5.35-10.68a58.17,58.17,0,0,0,1,7.49c.6,2.3,3.49,4,2,7-4.14-1-2.87-6.88-7.31-7.17l1,10,1.79,2c.09-2.48,1.25-3.56,3.71-2.68,1.65.59,3.23,1.34,4.85,2C219.42,443.65,220.61,442.41,220.87,440.59Z"/><path class="cls-6" d="M197.81,438.55l4,3c-3-5.32-1.63-12.16-6-17-2.11,2-.37,3.95.14,5.84a14,14,0,0,1,.81,5.24C197.87,436.33,197.65,437.51,197.81,438.55Z"/><path class="cls-10" d="M190.79,438.6a1.89,1.89,0,0,0,1.87,2C192.74,439.28,192.05,438.67,190.79,438.6Z"/><path class="cls-4" d="M281.33,357.66c2.86,3.67.54,8.1,1.76,12,2.42-.91,1.62-3,1.63-4.7,0-4.14-.11-8.28-.19-12.42l-3.35.1Z"/><path class="cls-8" d="M213.8,449.54c-.78-1.75-2.34-2-4-2C210.55,449.35,212.1,449.6,213.8,449.54Z"/><path class="cls-4" d="M204.77,259.61a5.76,5.76,0,0,0-3.16-5.66,4.26,4.26,0,0,0-5,1.05c-1.61,1.62-.35,3.4.23,5,.85,2.36,2.45.65,3.7.5a9.38,9.38,0,0,0,2.27-.89Z"/><path class="cls-9" d="M210.9,330.32c2.22,2.26,6.12.08,8.06,3.06,2.8,1.65,5.33.7,7.8-.81l-1.61-2.48c-3,1.21-6.07.5-9.08,0C214.29,329.81,212.58,328.91,210.9,330.32Z"/><path class="cls-10" d="M226.76,332.57c-2.47,1.51-5,2.46-7.8.81-.1.91-.21,1.83-.32,2.75l9.36,1A7.61,7.61,0,0,0,226.76,332.57Z"/><path class="cls-10" d="M218.76,358.61c.69-4.74-3.4-7.14-5.2-10.65l-1-.56-2,.38c.11.59.22,1.18.34,1.76,1.09,1.61,3,2.73,3,5l0,0c1.65.84,2.95,1.94,3,4l0,0h2Z"/><path class="cls-13" d="M210.8,358.59c-.84-3.13-3.34-1.66-5.23-1.89l3.22,1.85Z"/><path class="cls-13" d="M218.81,358.53h-2c-1.12,1.17-.6,2.26.65,2.41C219.26,361.16,218.37,359.37,218.81,358.53Z"/><path class="cls-13" d="M228.22,371.57c.4.54.6,1.36,1.56,1.09C229.58,371.84,228.89,371.73,228.22,371.57Z"/><path class="cls-13" d="M212.78,359.41l-1.37-.65Z"/><path class="cls-5" d="M213.22,235.24c-3.74-.88-6.38.77-8.46,3.7A16.2,16.2,0,0,0,213.22,235.24Z"/><path class="cls-5" d="M228.75,219.62c-3.91.41-4.29,3-3.87,6.15a9.69,9.69,0,0,0,4-4C228.8,221,228.78,220.33,228.75,219.62Z"/><path class="cls-5" d="M221.19,229.13c-2.9-.59-3.9,1.16-4.37,3.55A9.34,9.34,0,0,0,221.19,229.13Z"/><path class="cls-5" d="M202.79,239.59c-1.79-1.35-3.28-1.57-4,1.08A6,6,0,0,0,202.79,239.59Z"/><path class="cls-5" d="M216.84,232.67c-1.53.3-4.13-.91-3.46,2.47Z"/><path class="cls-5" d="M224.91,225.73c-1.58,0-3.18-.07-2.71,2.31A5.33,5.33,0,0,0,224.91,225.73Z"/><path class="cls-10" d="M191.86,240.55l-1.1.67a4,4,0,0,0,3.12.17,3.84,3.84,0,0,0-.08-.76Z"/><path class="cls-5" d="M222.19,228.05a.84.84,0,0,0-.94,1Z"/><path class="cls-11" d="M248.89,247.41l.78,1.2Z"/><path class="cls-10" d="M265.76,278.6c-1.5,4.48.33,7.78,5,9C269.7,284.24,269.36,280.52,265.76,278.6Z"/><path class="cls-8" d="M182.77,236.6c-1.82.13-2,1.48-2.14,2.85C182.21,239.15,182.75,238.08,182.77,236.6Z"/><path class="cls-8" d="M184.82,234.65a1.88,1.88,0,0,0-2,1.95A1.84,1.84,0,0,0,184.82,234.65Z"/><path class="cls-1" d="M191.86,240.55l1.94.08C193.19,239.73,192.55,239.62,191.86,240.55Z"/><path class="cls-1" d="M253.64,362.2c-2.36,2.09-4.62,4.25-5.42,7.47a25.11,25.11,0,0,1,19.52,6,24.45,24.45,0,0,0,9.48-10.81c.79-1.83,1.84-3.44.19-5.44-.82-1,.34-1.73,1.2-2.26a2.71,2.71,0,0,0-1.68-1.92c-1.72,2.77-3.38,5.58-5.18,8.3s-4.35,3.28-5.61.09c-2.17-5.51-3.08-1.11-4.47.24-1.09,1.05-.26,4.06-3.36,3.09C255.85,366.14,253.48,365.48,253.64,362.2Z"/><path class="cls-5" d="M253.64,362.2c-.16,3.28,2.21,3.94,4.67,4.72,3.1,1,2.27-2,3.36-3.09,1.39-1.35,2.3-5.75,4.47-.24,1.26,3.19,3.83,2.6,5.61-.09s3.46-5.53,5.18-8.3c-5.79-6.47-5.79-6.47-14-1.3-1.93,2.24-5.19,2.78-6.83,5.39,1.11.72,2.89.66,3.07,2.83l-4.77-.66C253.84,361.42,253.61,361.67,253.64,362.2Z"/><path class="cls-1" d="M254.38,361.46l4.77.66c-.18-2.17-2-2.11-3.07-2.83Z"/></svg>