<svg id="Layer_1" data-name="Layer 1" xmlns="http://www.w3.org/2000/svg" viewBox="0 0 316.75 493.53"><defs><style>.cls-1{fill:#123012;}.cls-2{fill:#1c4819;}.cls-3{fill:#27541c;}.cls-4{fill:#405d36;}.cls-5{fill:#1b391c;}.cls-6{fill:#264723;}.cls-7{fill:#7d915f;}.cls-8{fill:#33512c;}.cls-9{fill:#c3beab;}.cls-10{fill:#526b44;}.cls-11{fill:#e4e2dd;}.cls-12{fill:#deded6;}.cls-13{fill:#d3d2c5;}.cls-14{fill:#ecebe9;}.cls-15{fill:#eae9e5;}.cls-16{fill:#dad8d0;}</style></defs><path class="cls-1" d="M41,493.53H19a26.22,26.22,0,0,1,.69-7.8l.11-2.09.21-7.1c.32-.35,1.2-.54.34-1.22L20,476.53c-3.2-.73-.93-2.43-.62-3.73.48-2,1.88-4.2-1.34-5.25-.16-2.94,1.9-5.09,2.66-7.68.31-1,3-1.91.58-3.43-1-4.74-3.45.12-5-.79l-1.26.71,0,.19-2,0a11.71,11.71,0,0,1-10-4.51c-1.3-1.62-1.08-3,.35-4.33,3.37-3.15,3.53-3.8,2-8.28a7.44,7.44,0,0,0-.41-.91c0-3.55.09-7.1.13-10.65q1.62-28.74,3.23-57.47c1.61-2.14-.68-5.82,3.38-7.56-2.39,12.18-1.63,24.08-1.65,36,0,1.71-1.26,4.77,1.33,4.95,2.22.16,1.2-2.94,1.75-4.55.06-.16.41-.21.85-.42,0,6.95-.16,13.76.06,20.56.14,4.42-1,8.95.81,13.27l1.05,14.73c-.77,1.73.51,1.9,1.62,2,2.06.11,4.12.07,6.19.09,4.58-.16,9.38,1.23,14.4-2-3.2-1.31-5.82-.6-8.32-.89.07-1.34,1.2-1.82,2-2.61,6-5.84,12.85-10.77,18.13-17.35A1.89,1.89,0,0,0,51,424.65l0,0c3.12-.34,2.94,1.89,3,3.9-2.36,3.39-5.09,6.61-5.13,11.07-1,1.68-2.09,3.33-3,5.07-.48.95-2.21,2.2-.17,3.08,1.51.65,3.46,1.48,4.45-1.1,1.26-3.3,3.22-6.34,3.61-9.95,0-.7,0-1.41,0-2.11l1.09-.1c1-.65,1.95-1.29,2.93-1.93L59,433.6l.43,2.21-.28-.15c-1.75,1-1.07,2.67-1.08,4.14l-.23,2.75c-4.65-.16-5.42,3.52-5.24,6.57.14,2.57,3.08,1,4.81,1.21l3.47,0c4.78,2.55,10.1,3.16,15.28,4.27l1,1.89-5.31,1.15-9-2c-1.18-.52-2.33-1.26-3.73-.88L56,454.11c-2.25-1.13-3.51-.53-4.42,1.94a20.52,20.52,0,0,1-6.38,9.52c-.67.58-1,2.31-2.31.76.53-1.37,1.05-2.75,1.59-4.12,1.25-3.11,3.76-7.58.35-9.16-4.86-2.25-5.33,3.3-6.74,6.48a6.91,6.91,0,0,0-2.12,5c-1.68,2.5-3.57,4.91-3.6,8.79,2.45-2,4.43-4,7-2.08-3,6-10.48,7.33-13.41,13.9a7.37,7.37,0,0,0,6.81-2.42A16.79,16.79,0,0,1,44,477.5c4.25,1.66,8.29,5.23,13.14,1.45,5,.43,8.71-.81,8.79-6.87,0-2.34,1.28-4.39,2.37-6.42.71-1.31,1.57-2.55.5-4.06A3.34,3.34,0,0,0,72,460.53a4.77,4.77,0,0,1,4.69,2.29c1.4,2.23,3.08,2.46,5.42,1.72,2.9-.93,1.55-3.24,1.9-5l4-.09c1.35,1.52,1.78.56,2.06-.77l10.88-1.28a9.33,9.33,0,0,1-2.9,8,30.09,30.09,0,0,0-5.31,7,4.83,4.83,0,0,0,1.8,6.5c2.89,1.66,2.88-2,3.64-3.31,2.24-3.85,3.94-8,5.85-12.08,2.79.08,5.81,1.45,4.5,4.16-2.28,4.71-1.18,9.36-1.44,14-.27,5-.09,5-5.23,6,1.92,1.79,4.72,2.8,4.18,5.79H73c-.94-1.7-1.85-3.42-2.83-5.1-5.76-9.79-3.23-7.87-14-5.55-.13,0-.23.23-.35.34-1.91.4-3.74.82-5.2,2.39A53.64,53.64,0,0,1,41,493.53Zm-6.09-38.07c-3,.63-4.46,3.25-6.31,5.29A2,2,0,0,0,29,463.8c1.33.93,2.28,0,2.74-1.09,1-2.42,3.33-4.23,3.27-7.12.22-.35.45-.7.65-1.07a3.59,3.59,0,0,0-.33-.25Z"/><path class="cls-2" d="M13,28.7a10.09,10.09,0,0,1,2.8.8Q30.92,39.05,46,48.72c-1.55,3.94-2.56,7.83.87,11.43,1,1,1.07,1.91-.6,2.56-3.65,1.41-2.38,2.82.19,3.95,1.81.79,3.7,1.38,5.56,2l13.83,7,3.16,3c0,1.84-2.46,2.65-2,4.69l-1.69-.15L64,82.53a5.2,5.2,0,0,0,0-.88c.08-2.79-.34-4.89-3.9-3-1.17.62-2.39,1.26-3.79.69a9,9,0,0,0-9,1.27c-6.06,4.34-12.89,4.54-19.89,4.1C20.91,84.29,20.06,83.33,20,77c-.07-4.36,0-8.52,2.75-12.35C24,63,24.9,60.5,21.59,59c-4.91-2.3-11.49-.41-15-6C3.08,56.06,2.09,51.75,0,50.72v-17a11,11,0,0,0,2.22-.52C2,28.63,4.51,31.48,6.07,31.72,9,32.16,12.53,33.91,13,28.7Z"/><path class="cls-3" d="M0,50.72c2.09,1,3.08,5.34,6.56,2.19,3.54,5.63,10.12,3.74,15,6,3.31,1.55,2.37,4,1.13,5.73C20,68.51,19.9,72.67,20,77c.09,6.3.94,7.26,7.45,7.67,7,.44,13.83.24,19.89-4.1a9,9,0,0,1,9-1.27c1.4.57,2.62-.07,3.79-.69,3.56-1.88,4,.22,3.9,3-6.85,4.14-15.17,2.14-22.32,5.13a54.8,54.8,0,0,0,20.59,1.6c2,.12,4,.52,6-.15l2.49.79.07,2.51-1.75,1.54c-.54,0-.79.22-.76.75l-.23.23c-.54,0-.8.23-.76.77l-.24.25c-.53,0-.78.21-.73.75l-.26.3-.77.7-.25.2c-.53,0-.78.19-.65.74l-5.38,5.14a2.54,2.54,0,0,0-2.4,1.6.62.62,0,0,0-.63.32c-9.33,4.38-18.72,4-28.15.31l-1-.37a10.79,10.79,0,0,0-4.94-2.92l-1.29-1A2.92,2.92,0,0,0,18,98.76l0,0a2.14,2.14,0,0,0-2-1.91l-.05,0a1.9,1.9,0,0,0-1.95-1.84.57.57,0,0,0-.51-.48c-.38-.4-.77-.79-1.16-1.18l-.84-.82L10.23,91.3l-1.8-1.86L0,77.71Z"/><path class="cls-4" d="M0,238.64c4.36,2.3,7.75,5.83,11.45,9,1.89,1.61,3.67,3.28,6.32,3.45-.37,1.89,1.82,2.16,2.25,3.55-1.4,2.47-1.08,2.74,3.7,3.12l1.24,1c-.71,3,3.77,4.55,2.07,7.78l-3,0-3-.94c.23-3.64-2.88-3.2-4.95-4-.42-1.29,2.25-3.41-1-3.93-5.57.09-5.86.6-3.33,5.37a8.74,8.74,0,0,0,3.14,3.69c.28,2.3.48,4.66,3.46,5.16a8,8,0,0,0-2.14,4.86c-.24,5.29-.69,10.56-.83,15.84-.32,12.05-.5,24.1-.73,36.15-2.78.44-.78,3.43-2.39,4.65-.66-17,1.56-33.89-.2-50.74,1.36-1.52,1-3.17,0-4.85v4.85l-2,.17c-1.88-1.79,0-3.36.4-4.94.34-1.39,1.26-2.52,1.28-4.17,0-2.58-.47-4.17-3.43-4.08-2.55.07-5.25-.17-5.27,3.54a26.72,26.72,0,0,0,.23,5.45c.7,3.48-.12,6.17-3.24,8v-40c3.22,1.83,4.29,5.37,6.38,8.09,1.2,1.58,2.39,2.52,4.05,1.12,2.25-1.92-.42-2.41-1.28-3.09A5.93,5.93,0,0,1,7,249.65a10.13,10.13,0,0,0-7-7Z"/><path class="cls-5" d="M172.92,493.53h-49c0-2.94,1.27-4.67,4.29-5,2.35-.24,4.85-.61,5.5-3.31.71-2.92-1.7-4.24-3.51-6-2.61-2.49-6.61-2.1-9-4.75-.63-.69-.8-2-2.08-1.61-1.45.45-1,1.85-1.19,2.95-.41,3.08.57,6.66-3,8.67a111,111,0,0,1,1.12-19.78c5.6,2.63,10.41,6.92,16.75,8a24.44,24.44,0,0,0,11.11,5.74c.41.5.73,1.35,1.24,1.47,8.73,2.2,16.09,7.59,24.56,10.36C171.45,490.86,172.88,491.45,172.92,493.53Z"/><path class="cls-5" d="M18,467.55c3.22,1.05,1.82,3.24,1.34,5.25-.31,1.3-2.58,3,.62,3.73h0l-.21,7.1L16,483.53c.08-2.4-.14-5.62-2.83-5.43-4.52.32-5.87-2.94-8-5.38C3.66,471,2.61,468.85,0,468.54v-30H5a7.44,7.44,0,0,1,.41.91c1.53,4.48,1.37,5.13-2,8.28C2,449.07,1.74,450.44,3,452.06a11.71,11.71,0,0,0,10,4.51l.72,2-.13,1.93a1.28,1.28,0,0,0,.14,2.09l.15.25c.08,3.12.27,6.2,3.42,8C18.43,469.83,17.82,468.61,18,467.55Z"/><path class="cls-6" d="M115,484.53c3.55-2,2.57-5.59,3-8.67.15-1.1-.26-2.5,1.19-2.95,1.28-.39,1.45.92,2.08,1.61,2.4,2.65,6.4,2.26,9,4.75,1.81,1.73,4.22,3.05,3.51,6-.65,2.7-3.15,3.07-5.5,3.31-3,.31-4.34,2-4.29,5H112c0-1,0-2,0-3C115.9,490,114.7,486.9,115,484.53Z"/><path class="cls-7" d="M0,369.58a1.47,1.47,0,0,1,.85-.14c2.47,0,2.38-2.27,2.93-3.6,8.11-19.68,18.47-38.24,28.28-57.07,1.08-2,.85-4.69,3-6.19-.58,2.67.73,5.61-1.19,8.07-1.31.61-1.65,1.81-2.17,3.06-2.27,5.43-4.39,10.94-7.7,15.87C20.08,333,18.9,338,16.8,342.49A129.53,129.53,0,0,0,8,363.07c-2.24,6.45-5.41,12.64-6,19.6-1.49,1.3,1.28,4.38-2,4.91Z"/><path class="cls-8" d="M172.92,493.53c0-2.08-1.47-2.67-3.18-3.23-8.47-2.77-15.83-8.16-24.56-10.36-.51-.12-.83-1-1.24-1.47,0-1.31,0-2.61,0-3.92.71-1,1.4-.91,2.08,0-.34,3.14,1.84,3,3.91,3,2.46,2.31,5.74,3.52,8,3,1.09,0,2.23.13,3-.94h1.92c.21,1,.71,2,1.86,1.87,3.06-.23,4.25,1.76,5.21,4.11-.82,1.63-.94,2.82,1.45,3a15.51,15.51,0,0,0,9.55-2c.32,2.5,2.6,2.79,4.3,3.51s3,1.39,2.69,3.46Z"/><path class="cls-5" d="M112,490.53v3h-6c.54-3-2.26-4-4.18-5.79,5.14-1,5-1,5.23-6,.26-4.66-.84-9.31,1.44-14,1.31-2.71-1.71-4.08-4.5-4.16,0-1,0-2,0-3l3.06-.11,4.86,2.2,1,1C113.63,472.63,111.24,481.53,112,490.53Z"/><path class="cls-5" d="M7.16,286.17A8.82,8.82,0,0,1,0,287.62v-1c3.12-1.86,3.94-4.55,3.24-8A26.72,26.72,0,0,1,3,273.14c0-3.71,2.72-3.47,5.27-3.54,3-.09,3.46,1.5,3.43,4.08,0,1.65-.94,2.78-1.28,4.17-.39,1.58-2.28,3.15-.4,4.93,0,.31,0,.62-.07.92C8.24,283.64,8,285.22,7.16,286.17Z"/><path class="cls-6" d="M0,468.54c2.61.31,3.66,2.46,5.17,4.18,2.13,2.44,3.48,5.7,8,5.38,2.69-.19,2.91,3,2.83,5.43l0,0c-3.88-1.82-2.73,1.26-2.94,3l-.2,3c-2.48-.28-3.36-2-4.48-4-2.24-4-3.94-8.59-8.36-11Z"/><path class="cls-6" d="M187.92,493.53c.26-2.07-1-2.75-2.69-3.46s-4-1-4.3-3.51l8,0c2.79,1.17,2.87,1.09,3-2.93,0-1.95-.28-4,2.06-5.07,1.62.3,1.85,1,.78,2.28s-.89,2.62.43,3.8c2.68,2.42,2.81,5.65,2.74,8.93Z"/><path class="cls-5" d="M0,474.54c4.42,2.42,6.12,7,8.36,11,1.12,2,2,3.76,4.48,4l.15,3.94H8c-2-3.08-4.26-5.89-8-7Z"/><path class="cls-4" d="M197.91,493.53c.07-3.28-.06-6.51-2.74-8.93-1.32-1.18-1.56-2.45-.43-3.8s.84-2-.78-2.28c0-1.33,0-2.66,0-4v-1.91a3.34,3.34,0,0,0,2.46-1.61l1.31,1.63a6.26,6.26,0,0,0,.86,4l.37,1.87a2.5,2.5,0,0,0,.75,2.65c.16.89.31,1.78.47,2.66.59,3.23,1.17,6.46,1.76,9.68Z"/><path class="cls-8" d="M13,28.7c-.47,5.21-4,3.46-6.93,3C4.51,31.48,2,28.63,2.22,33.21A11,11,0,0,1,0,33.73v-7C1.55,25.56,2.86,24,5.07,24c1.55,3,3.75,4.8,7.35,4.15A.64.64,0,0,1,13,28.7Z"/><path class="cls-6" d="M0,242.64a10.13,10.13,0,0,1,7,7,5.93,5.93,0,0,0,2.19,3.11c.86.68,3.53,1.17,1.28,3.09-1.66,1.4-2.85.46-4-1.12C4.29,252,3.22,248.47,0,246.64Z"/><path class="cls-4" d="M13,493.53l-.15-3.94c.06-1,.13-2,.2-3,1.08-.05,2.2.05,3-1l3.69.16a26.22,26.22,0,0,0-.69,7.8Z"/><path class="cls-6" d="M0,427.56a11.19,11.19,0,0,0,5.11.33c0,3.55-.09,7.1-.13,10.65H0v-2c1.74-.3,3.28-1.46,3.21-3s-2.08-.73-3.21-1Z"/><path class="cls-8" d="M0,486.53c3.74,1.11,6,3.92,8,7H7C0,493.53,0,493.53,0,486.53Z"/><path class="cls-9" d="M0,77.71,8.43,89.44c-2.66.39-3-2.18-4.33-3.44s-2-3.1-4.1-3.29Z"/><path class="cls-8" d="M0,432.56c1.13.29,3.13-.64,3.21,1s-1.47,2.68-3.21,3Z"/><path class="cls-6" d="M220,364.56c-4.1-7.11-9.44-13.84-7-22.95a2.5,2.5,0,0,0,.65-2.71l.38-1.29c3.09.81,6.82.13,8.83,3.5,1.53,2.56,2.83,5.25,4.26,7.87,1,1.86,1.9,4.86,4.23,4.2,2.49-.69,3.73-3.47,3.56-6.36-.08-1.32-.3-2.63-.39-3.95-.44-6.46-6.14-9.94-8.61-15.25,3.76.24,7.09,2.86,11.05,2,.31,0,.63,0,.95,0-.43,4,4.33,1.43,5,4-1.62,1.32-.61,2.64,0,4,1.74,4,3.47,8.08,5.2,12.12,3.53,8.25,8.17,15.76,14.81,21.91,0,.66,0,1.31,0,2-4.42-1.3-6.39-5.36-9.82-9.43l.81,4.44c-3.08.44-6-.71-9-1-2.15-5.76-4-11.69-8.26-17.05-1.91,5.7.43,10.33.22,15.05-5.21,2.44-5.32,2.81-1.76,6.72.91,1,1.86,1.89,1.22,3.46s.76,1.75,1.5,2.65c4.33,5.29,10.73,4.45,16.22,6.2,3,1,6,1.74,8.69-1.17,1.26-1.37,2.74-1.06,3.14,1.13-.67.43-.55.75.12,1l.88.92c-.21,1.18.31,2.9-1.93,2.54a20.52,20.52,0,0,0-2.9-.44c-2.15,0-4.58.14-5.74,2-1.39,2.28,1.41,3.2,2.25,4.8.95,1.8,4,2.44,3,5.3C247.93,392.61,235,383.57,224.93,371c3.37-1.46,6.11-3,1.55-6.43a3.42,3.42,0,0,1-1.21-1.54c-.64-1.93-2-3.69-3.85-3.09-2.63.83.25,3.12-.52,4.65h0C220.6,364.56,220.3,364.55,220,364.56Z"/><path class="cls-5" d="M262.88,371.61c-6.64-6.15-11.28-13.66-14.81-21.91-1.73-4-3.46-8.09-5.2-12.12-.58-1.35-1.59-2.67,0-4,3.89,2.9,8.82,1.65,13.14,3.32,5.7,2.21,11.87,3.19,17.84,4.69h0c1.32,1.78,2,4.3,5,4.05,1.14,3.48,5.78.31,7,3.67-4.68.4-5.24,1.44-2.64,5.15a23.49,23.49,0,0,0,3,3.33c3.68,3.58,7.41,7.1,11.12,10.65-2.89.35-5.73-1.61-8.7-.09-.72.37-1.37-.56-1.92-1.21-5.71-6.75-12.82-12.17-18.11-19.31a4.69,4.69,0,0,0-3.66-2.26c-.12-.62-.14-1.33-1-1.43-.17,0-.56.37-.54.53.11.81.82.83,1.43.95.3.75.38,1.75.92,2.22,6.12,5.32,9,13.25,15.18,18.54,1.13,1,.91,2.39.74,3.72-7.8-5.49-12.94-13.71-20.13-20,.22,6.3,3.57,11.22,5.79,16.55-3.22-1.56-5.07-1.1-4.48,3A14.08,14.08,0,0,1,262.88,371.61Z"/><path class="cls-3" d="M191.71,290.63c2,9.94-1.91,17.35-9.91,23-2-.13-2.42-1.71-3.19-3.23-1.22-2.4-3.51-5.15-6-4.19-3.65,1.39-7.57.76-11,2.4-3.09,1.46-5.6,1-8-1.52-1.22-1.29-2.84-3.19-4.65-.46h-3c-2.62-4.92-.7-8.67,4.62-7.58,4.67,1,5.28-1.48,6.37-4.41,2.08.36,3.44-1.08,5-2,2,2.36,3,2.86,8.39,4.12.91.21,1.21,1,1.75,1.59,3.5,4,3.9-2.35,6.66-2.13,1.62.12.8-1.91.17-3.13A30.94,30.94,0,0,0,169,282.34c-2.42-1.74-4.89-3.36-7.16-6.81,8.8,3.25,16,6.83,21.3,13.54.91,1.15,1.53,1.12,1.76-.44C187.51,288.18,188.25,294,191.71,290.63Z"/><path class="cls-2" d="M262.88,371.61a14.08,14.08,0,0,0,0-1.95c-.59-4.13,1.26-4.59,4.48-3,2.88,5,6.38,9.57,8.53,14.95-2,.91-1.89,2.29-1,4s2.2,3.69,2,6h0l-5,1L270,391.45c-.5-2-1.25-3.83-3.13-4.95l-.88-.92-.12-1c-.4-2.19-1.88-2.5-3.14-1.13-2.69,2.91-5.65,2.15-8.69,1.17-5.49-1.75-11.89-.91-16.22-6.2-.74-.9-2.14-1.09-1.5-2.65s-.31-2.46-1.22-3.46c-3.56-3.91-3.45-4.28,1.77-6.72a16.53,16.53,0,0,1,2.89,6.25c.28,1.08.14,2.53,1.78,2.51a3.1,3.1,0,0,0,2.91-2.35,23,23,0,0,0,.45-4.41c3,.3,5.89,1.45,9,1a64.8,64.8,0,0,0,2,7.07c1,2.65,3.23,3.92,6.17,3.94,2.16,0,3-1,2.87-3,.76-1.4-.53-.78-1-1l-1-2Z"/><path class="cls-6" d="M308.86,346.59c1.09.41.17,1.18.29,1.77-.46.77-.9,1.53-1.34,2.29-1.67-.56-2.36-2-5.29-1a11.89,11.89,0,0,1-12.7-4c1.7-2.83-1.71-3-2.55-4.42s-2.25-2.51-2.47-4.57c-.57-5.18-2.28-5.85-6.59-3-5.74,3.82-5.87,3.86-8.59-2.59-1.48-3.51-3.45-4.17-6.5-2-1.07.75-2.07,1.89-3.5.67-.9-.77-1.75-1.6-1.53-2.94.31-1.88,1.94-2.19,3.36-2.46,2.28-.43,4.75-.06,6.67-1.8l3.37-.39a2.18,2.18,0,0,0,.37.49,12.17,12.17,0,0,0,3.06,6.95c-.21.85-1.41,2.09-.19,2.47,1.63.52,2.36-1.23,3.16-2.41l2,0c6.95,0,7.57-.72,6-6.8,2.16.08,4,1.09,6,1.89a39,39,0,0,0,6,10.35c2.74,3.34,4.53,8.74,10,9.53h0C307.69,345.49,307.71,346.31,308.86,346.59Z"/><path class="cls-1" d="M156.93,359l-12.09,6.57c-10.9,3.57-11.07,3.81-9.84,14.6a4.17,4.17,0,0,1,0,.5l-1.06-.06-1.09,1-2.11.13c-1.83-1.14-2.55-3.54-4.77-4.24.08-.63.17-1.25.25-1.88l.37.05c2.57.3,3.75-1.34,5.24-3.48l-2.89.6a7.28,7.28,0,0,0-1-4.12c4-3.25,9.21-4.53,13.06-8v0l4.81-1.27c3.78,2.08,5.41.38,5.89-3.35l10-4.54c1.74,1,3.6,1.57,5.18,0,.66-.67-.74-1.13-.95-1.82l2.19-1.44,3.8-1.63,38.92-14.67c-3.14,4.4-8.5,4.65-12.85,6.74-2,.94-2.47,1.61-1.16,3.32l-4.53,1.84a2.39,2.39,0,0,0-2.39.73Zm16.32-9.84-.66-.06c.1.08.2.22.31.23S173.13,349.18,173.25,349.12ZM188.17,343a1.3,1.3,0,0,0-.37-.11s-.07.19-.11.3a1.24,1.24,0,0,0,.36.11S188.13,343.12,188.17,343Z"/><path class="cls-6" d="M281.69,370.1c.17-1.33.39-2.74-.74-3.72-6.14-5.29-9.06-13.22-15.18-18.54-.54-.47-.62-1.47-.92-2.22l.06-.05a4.69,4.69,0,0,1,3.66,2.26c5.29,7.14,12.4,12.56,18.11,19.31.55.65,1.2,1.58,1.92,1.21,3-1.52,5.81.44,8.7.09a20.26,20.26,0,0,1,4.93,5.06c-1.5.1-2.42,1.12-1.22,2.12,2.94,2.45,2.63,6.44,4.83,9.16-3.4.49-6.84-1.68-10.23.13Z"/><path class="cls-4" d="M235.92,279.58c4.57,0,9,.44,13,2.95q.48,6,1,12.07c-2.05-.34-3.89-1-5-3,.12-2.95-1.66-5.1-3-8.3-1.12,2.1-2.68,3.37-3.13,4.39-1.28,2.85-5.1,2.56-5.87,5.65-1.32,5.24-5.29,9.66-4.76,15.53.08.93-1.07,1.6-2.16,1.75,0-5.24,0-10.48-.07-15.71,0-1.67.68-3.8-2-4.31-.29-1.35,1.73-2.74-.1-4.05q2.24-3.9,4.48-7.8c2.14.47,1.37,2.34,1.68,3.64.71,2.94,2,5.22,5.49,5.36.63-2,.7-3.75-.83-5.49C233.26,280.72,234.48,280,235.92,279.58Z"/><path class="cls-4" d="M182.79,268.11c.66.94,1.33,1.87,2,2.81,3.1,5.58,6.44,11.08,6.77,17.72-3-.14-5.12-1.66-6.8-4.17-1.42-2.14-2.92-4.42-5.85-4.84h0c-2.13-6.22-6.07-10.75-12.38-12.94a3.37,3.37,0,0,1-2.65-3.11c4.44.93,8.92,1.72,13.05,3.86-3.43-5.22-6.58-10.53-13.49-12,1.62-.91,3.4-.87,3.48-2.83l2.1-.94.93,1c-.16,1.37-.09,2.63,1.5,3.19l.87.89,2.15,2.08c.54.59,1.09,1.17,1.64,1.76l1.8,2,2.89,3C181.46,266.49,182.12,267.3,182.79,268.11Z"/><path class="cls-8" d="M148.94,306.62c1.81-2.73,3.43-.83,4.65.46,2.39,2.51,4.9,3,8,1.52,3.44-1.64,7.36-1,11-2.4,2.51-1,4.8,1.79,6,4.19.77,1.52,1.15,3.1,3.19,3.23a28.2,28.2,0,0,1-5.64,6.39,9.3,9.3,0,0,1-1.06-2.71c-.15-2.5-.85-4.29-3.79-3.55-2.79.71-3.52,2.46-2.47,5.21a34.72,34.72,0,0,1,1.13,5.23l-.61.3A2.49,2.49,0,0,0,168,322.3c-3.81-7.07-11.9-7.82-17.67-12-.52-.38-1-.76-1.55-1.15Z"/><path class="cls-8" d="M225.88,327.62c2.47,5.31,8.17,8.79,8.61,15.25.09,1.32.31,2.63.39,3.95.17,2.89-1.07,5.67-3.56,6.36-2.33.66-3.22-2.34-4.23-4.2-1.43-2.62-2.73-5.31-4.26-7.87-2-3.37-5.74-2.69-8.83-3.5,0-.7-.05-1.39-.07-2.09a18.2,18.2,0,0,1,5.93-6.81c1.87.76,3.91,1.46.54,3.15-1.54.77-3.31,1.71-.92,3.44,1.08.79,2,2.92,3.6,1.78a4.43,4.43,0,0,0,1.55-4.44C224.21,330.65,223.35,328.79,225.88,327.62Z"/><path class="cls-8" d="M276.88,391.57c.2-2.28-1-4.1-2-6s-1-3.11,1-4a73,73,0,0,1,8.31,23.09c.79,4.64-2.8,4.55-4.76,4.19-2.88-.53-6.23-.66-8.53-3.1,1.52-1.81,3.36-3.47,3-6.2l-2-7,5-1,.39.2Z"/><path class="cls-8" d="M226,310.65c1.09-.15,2.24-.82,2.16-1.75-.53-5.87,3.44-10.29,4.76-15.53.77-3.09,4.59-2.8,5.87-5.65.45-1,2-2.29,3.13-4.39,1.33,3.2,3.11,5.35,3,8.3a22,22,0,0,1-3.37.64c-5.24.17-5.83.83-4.83,6.07a7.56,7.56,0,0,1-.78,5.26c0,.33,0,.66,0,1-5.15,2.44-4.6,7.72-6,12l-4,4-1.38-7.88A2.24,2.24,0,0,0,226,310.65Z"/><path class="cls-10" d="M259.86,288.7c11.48,6.9,21.79,15.13,29.82,26,.31,1.84,2.08,3.46.66,5.89a9.87,9.87,0,0,0-5.49-4.1c-1-3-3.75-4.15-6-5.88,0-1.69-.23-3.22-2-4l-1.94-1c-.59-3.75-3.24-5.91-6.08-7.93l-2-1a2.09,2.09,0,0,0-2-1h0C264.33,292.5,260.86,291.49,259.86,288.7Z"/><path class="cls-4" d="M273.85,399.56c.41,2.73-1.43,4.39-3,6.2l-9.32-5c1-2.86-2.07-3.5-3-5.3-.84-1.6-3.64-2.52-2.25-4.8,1.16-1.91,3.59-2,5.74-2a20.52,20.52,0,0,1,2.9.44c2.24.36,1.72-1.36,1.93-2.54,1.88,1.12,2.63,2.95,3.13,4.95-3.57.08-3.79,2.36-2.63,4.73S269.44,402.83,273.85,399.56Z"/><path class="cls-8" d="M266.88,296.66l2,1c-1.12,3.9,3,5.1,4.06,7.9a10.32,10.32,0,0,1-7.64-3.66c-3.92-4.55-9-7.49-15.39-7.32l-1-12.07,9,5.3c0,4.67,2.49,7.15,7,7.8h0C265.1,296.84,265.32,298.06,266.88,296.66Z"/><path class="cls-10" d="M291.85,324.68l2-.23c8,4.4,11.27,12.06,14,20.11-5.47-.79-7.26-6.19-10-9.53A39,39,0,0,1,291.85,324.68Z"/><path class="cls-4" d="M225.92,320.6l4-4c0,1.67,0,3.33.05,5-1.58,2.88-1.13,4.71,2.51,5,2,.16,4,.46,4.49,3-4,.88-7.29-1.74-11.05-2-2.53,1.17-1.67,3-1.25,5a4.43,4.43,0,0,1-1.55,4.44c-1.65,1.14-2.52-1-3.6-1.78-2.39-1.73-.62-2.67.92-3.44,3.37-1.69,1.33-2.39-.54-3.15a1.08,1.08,0,0,1,0-.64C223.14,326.6,226.22,325,225.92,320.6Z"/><path class="cls-6" d="M219.85,328.07a1.08,1.08,0,0,0,0,.64,18.2,18.2,0,0,0-5.93,6.81c-5.73,2.05-11.14,5-17.1,6.41-1.31-1.71-.79-2.38,1.16-3.32,4.35-2.09,9.71-2.34,12.85-6.74Z"/><path class="cls-10" d="M226,310.65a2.24,2.24,0,0,1-1.42,2.07,21.3,21.3,0,0,1-3.48-9.18c1.81-4.11.15-9,2.85-12.91,2.66.51,2,2.64,2,4.31C226,300.17,226,305.41,226,310.65Z"/><path class="cls-4" d="M305.84,384.78c-2.2-2.72-1.89-6.71-4.83-9.16-1.2-1-.28-2,1.22-2.12,1.06.79,2.16,1.43,3.57,1,.94,3.11,3.71,4.44,6,6.21-2.22,2.5-5.68,4.94-.39,7.81.14,2.21-.44,4.08-2.52,5.22-.09-2.61-.29-5.18-2.24-7.21Z"/><path class="cls-8" d="M311.44,388.49c-5.29-2.87-1.83-5.31.39-7.81,1.27-4.94-1.11-9.36-2-14,2.82,1.29,3.49,4.82,6.34,6.08Q313.8,380.63,311.44,388.49Z"/><path class="cls-7" d="M316.17,372.77c-2.85-1.26-3.52-4.79-6.34-6.08l-2.19-3c.65-3-1.57-4.87-2.78-7.15,3.29-1.12,4.21,2.8,6.79,3.18l0,.08c.05,1.56.44,2.95,2,3.7C313.54,366.86,318.38,368.87,316.17,372.77Z"/><path class="cls-8" d="M220.9,364.59c.77-1.53-2.11-3.82.52-4.65,1.89-.6,3.21,1.16,3.85,3.09a3.42,3.42,0,0,0,1.21,1.54c4.56,3.39,1.82,5-1.55,6.43-2.71-1.33-3.76-3.93-4.94-6.44.31,0,.61,0,.91,0l.38.21Z"/><path class="cls-4" d="M170,324.19a34.72,34.72,0,0,0-1.13-5.23c-1.05-2.75-.32-4.5,2.47-5.21,2.94-.74,3.64,1.05,3.79,3.55a9.3,9.3,0,0,0,1.06,2.71l.06.34-.25.22c-1.88.1-4.22-.58-3.48,2.94a4.71,4.71,0,0,1-1.45,4.06A5.27,5.27,0,0,1,170,324.19Z"/><path class="cls-7" d="M235.92,279.58c-1.44.43-2.66,1.14-1.29,2.71,1.53,1.74,1.46,3.51.83,5.49-3.52-.14-4.78-2.42-5.49-5.36-.31-1.3.46-3.17-1.68-3.64.38-.81.06-2.82.83-2.37C231.3,277.71,234.57,276.68,235.92,279.58Z"/><path class="cls-8" d="M306.68,386.5c1.95,2,2.15,4.6,2.24,7.21-1,1.58-2.53,3.68-4.07,2.65-2.12-1.44-4.4-3.52-4-6.78C303.64,390.21,305,388,306.68,386.5Z"/><path class="cls-7" d="M306.68,386.5c-1.73,1.45-3,3.71-5.87,3.08a7.83,7.83,0,0,1-5.2-4.67c3.39-1.81,6.83.36,10.23-.13Z"/><path class="cls-8" d="M178.91,279.63c2.93.42,4.43,2.7,5.85,4.84,1.68,2.51,3.77,4,6.8,4.17l.15,2c-3.46,3.36-4.2-2.45-6.79-2C184,284.89,179.63,283.49,178.91,279.63Z"/><path class="cls-8" d="M223.91,290.63c-2.7,3.91-1,8.8-2.85,12.91-1.2-6-1.37-11.82,2.75-17C225.64,287.89,223.62,289.28,223.91,290.63Z"/><path class="cls-5" d="M307.81,350.65c.44-.76.88-1.52,1.34-2.29.39.28.77.57,1.14.86a1.06,1.06,0,0,0,.48,1.39c1,3,2,6,2.93,8.95l-2,.26,0-.08C311.13,356.39,307.72,354.26,307.81,350.65Z"/><path class="cls-4" d="M264.87,295.63c-4.51-.65-7-3.13-7-7.8,1-.39,1.52.14,2,.87C260.86,291.49,264.33,292.5,264.87,295.63Z"/><path class="cls-3" d="M171,327.57a4.71,4.71,0,0,0,1.45-4.06c-.74-3.52,1.6-2.84,3.48-2.94a25.1,25.1,0,0,0-2.35,7.53C171.22,329.43,171.22,329.43,171,327.57Z"/><path class="cls-5" d="M165.93,349.61c.21.69,1.61,1.15.95,1.82-1.58,1.61-3.44,1.09-5.18,0l2.3-1.63Z"/><path class="cls-4" d="M311.69,359.82l2-.26c0,1.32,0,2.64,0,4C312.13,362.77,311.74,361.38,311.69,359.82Z"/><path class="cls-10" d="M308.86,346.59c-1.15-.28-1.17-1.1-1-2Z"/><path class="cls-8" d="M213.62,338.9a2.5,2.5,0,0,1-.65,2.71A2.88,2.88,0,0,1,213.62,338.9Z"/><path class="cls-6" d="M189.91,344.5a2.39,2.39,0,0,1,2.39-.73A1.85,1.85,0,0,1,189.91,344.5Z"/><path class="cls-10" d="M310.77,350.61a1.06,1.06,0,0,1-.48-1.39Z"/><path class="cls-11" d="M294.86,321.6l.22-.36-.2.37Z"/><path class="cls-11" d="M292.87,317.61l.2-.37-.2.37Z"/><path class="cls-2" d="M77.88,121.94l-.71-1.32-1-1.57-.16-.36c-.17-.84-.34-1.67-.52-2.5a1.16,1.16,0,0,0-.54-1.5.63.63,0,0,1-.25-.61L74,111.7c0-6.38-.8-12.88,3.51-18.52.64-.85.2-2.53.26-3.83l.36-2.58c1.43-.19,1.54-1.47,2.17-2.42,2.74-4.15,4.25-9,7.5-12.85.89,1.27-1.65,4.23,1.64,4.11,3.68-.13,7.13,1,10.75,1.14,2.23.06,4-.49,4.61-2.75,1-4.12,4.1-5.13,7.69-5.55a.85.85,0,0,0,.3-.73c3.54,2.89,7.55-.58,11.2.84-2.17,4.88-2.77,11.19-10.59,11.24,12.11,1.26,23.74,1.35,34.78-3.74,1.54-.71,4-1.11,3.54-3.52-.54-3-3.19-1.61-5-1.77-5-.46-10.31,1.09-14.83-2.38l6.91-.33c8.34,1.35,16.47,1.73,23.26-4.65,5.47,1.08,6.71,2.41,4.7,6.49-2.13,4.31-1.33,8.7-1.63,13.07l.08-.06c-2.65.26-3.6,1.42-2.05,3.89.06,2.31-1.9,3.79-2.4,5.87-3.16-.23-5.71.62-6.88,3.91a5.51,5.51,0,0,1-.75.33c-5.5,3.41-11.24,6.24-15,12.08-2.94,4.52-6.79,8.82-13.15,8.75-2.95,0-4.8,1.29-5,4.35-.15,2.69-2,3.12-3.81,2.44-5.58-2-4.84,1.31-4.27,4.69a17.67,17.67,0,0,1-9,2.19,3.94,3.94,0,0,0-5,.27C89.72,131.61,83.53,127.33,77.88,121.94ZM91.63,78.72c-1.32,0-2.65,0-4,0-3.38.06-3.87,3.26-5.36,5.23-1,1.31.1,2.88,1.36,3.85C89.4,92.22,95.15,96.64,101,101a4.09,4.09,0,0,0,4.7.14c1.53-.9.5-2.3.49-3.56,0-3.58-1.38-6.8-2.4-10.1C101.56,80.42,99.17,78.71,91.63,78.72Z"/><path class="cls-7" d="M89.87,1.22c4.43-1.07,8.67.86,13,.85l6.91,2a2.69,2.69,0,0,0,3.13.64l4.56.18,4.34,1.4a1.08,1.08,0,0,0,1.25.94.65.65,0,0,0,.51.14c.45,1.12.91,2.24,1.37,3.36a1.06,1.06,0,0,0,.94,1.29c.32.06.78.3,1,.17,5.66-4.18,10.26-.48,14.85,2.14s10,4.5,14.26,8c1,.79,2.74,1.31,2.11,2.93-.51,1.31-2.13,1.58-3.44,1.54a159.45,159.45,0,0,0-26.73,1.92c-.61-.39-1.22-.78-1.84-1.16.28-3,3.51-2,5-3.52-2.23-1.87-4.74-1.22-7.09-1.38-2.59-1.2-5.34-.95-8.07-.85l-3,0c1.37-5.89-1.78-9.75-5.89-13.19C106,4.22,101.87,5,98.83,3.83S92.27,4.08,89.87,1.22Z"/><path class="cls-3" d="M124.62,30.71a46.62,46.62,0,0,0-2,4.56c-.91,2.95.74,5.12,2.58,7.1s3.66.83,5.81.06c11.56-4.15,23.13-8.25,33.65-14.76l-.08.13,1.21-.83a.57.57,0,0,0,.38.73c0,.66-.05,1.31-.07,2-.73,4-5.61,7.44-1.34,12.06.47.51.3,2-.08,2.85-1.15,2.47-.46,4.78.24,7.13-.84-.12-1.35-.78-2-1.18-3.12-1.93-6.25-6.06-9.83-4.4-5.62,2.6-11.64,4-17.21,6.63-5.44-.29-10.5,2.48-16,2,0-2.16.11-4.28-1.41-6.16-.86-1.07-1-3.4-.27-3.69,5.11-1.91,2.71-6.11,3.33-9.42C122,33.61,122.19,31.37,124.62,30.71Z"/><path class="cls-2" d="M124.62,30.71c-2.43.66-2.66,2.9-3,4.74-.62,3.31,1.78,7.51-3.33,9.42-.78.29-.59,2.62.27,3.69,1.52,1.88,1.41,4,1.41,6.16a73.9,73.9,0,0,0-16,2c-3.16.15-6.54-.8-9.21,1.83,2.23-8.11,7.43-14.91,10.11-22.82,2.21-2.2,2.94-5.66,6.07-7.06,2,1.57,3.94.51,5.92.08l9.26-1.21,1.83,1.16Z"/><path class="cls-6" d="M171.6,238.58q0,3.53,0,7l-4.69-1a42.65,42.65,0,0,0-8-14.06c-.23-2.21-1.67-3.33-4.73-5,1.49,3.22,2.07,5.33,4.64,6.09.41,3.5,1.8,6.69,3,9.94-2.57.26-3.15-1.57-4-3.46-3.75-8.3-4.59-8.86-10-7.53l-5.09-4.09c3.25-.88,5-2.12,1.94-4.73-1.14-.95-.26-2.12.17-3.16,2.22.81,3.19,4,7.37,3.8-3.24-2.73-4.51-6.06-8.37-5.8h0c-.21-1.89-.79-3.79-2.49-4.66-3.64-1.86-.06-2.37.5-3.44,1.34-1.56,2.63.28,3.95.06,1.36,3.3,4.36,2.81,7,3,2.5,6,8.93,7.72,13,12-.14,1-.32,1.94-.43,2.92C165,230.65,168.48,237.36,171.6,238.58Zm-18.93-14.33.38.14c0-.11.15-.29.11-.33a1.25,1.25,0,0,0-.37-.15Z"/><path class="cls-7" d="M66.14,148.68l-.24,1.88c-.3,1.11-.68,2.2-.89,3.33-2.39,12.68-3.74,25.55-6.74,38.13l-.55-3.43c-1.3.72-.57,3.13-2.65,3l.43-6.85a26.81,26.81,0,0,0,1.63-8,3.55,3.55,0,0,0,.8-3.09l1.29-11c1.13-3.59,3.13-7.11.78-10.95a145.17,145.17,0,0,1,5.06-24.86c.31,1-.69,4.36,2,1.11.38-.45,1.55-.24,2.35-.33l.46,1.05a.73.73,0,0,0-.09.75A19.18,19.18,0,0,0,68,138.68l-.15,1.71A17.07,17.07,0,0,0,66.14,148.68Z"/><path class="cls-7" d="M156.92,102.7a2.82,2.82,0,0,0-.36.88c-2.87,5.41-6.94,9.92-10.93,14.49a4.8,4.8,0,0,0-3.08,2.43c-1.55.07-2.49,1.24-3.64,2a4,4,0,0,0-3.48,1.91l-.27-.13-.28.12a5.5,5.5,0,0,0-4.48,2l-2.46.22-1-.49c2.39-2.16,5-4,7.26-6.38,5.67-5.86,9.59-13.27,16.32-18.18a8.18,8.18,0,0,0,2.67-4.69,5.51,5.51,0,0,0,.75-.33c2.48.08,4.24-2.33,6.81-2C159.53,97.33,157,99.42,156.92,102.7Z"/><path class="cls-4" d="M123.72,180.18c5.85,2.45,9.57,8.37,16.18,9.72,2,.41,2.55,2.79,3.06,4.72-1,1.68-3.94.79-4.46,3.68l10.62,1.27c2.8,1.26,4.59,3.66,6.57,5.83l-2.84.27a45,45,0,0,1-16.68-6c-2-1.27-4.4-2.46-4-5.11.5-3.21,3.63-1.13,5.37-2,.22-.11.3-.47.65-1-9.56-3.78-17.49-11.09-28.26-12.07-1-.1-2-1.15-3-1.76l0-2.47c5.08-.22,9.72,1.92,14.61,2.69A2.27,2.27,0,0,0,123.72,180.18Z"/><path class="cls-4" d="M153.14,96.91a8.18,8.18,0,0,1-2.67,4.69c-6.73,4.91-10.65,12.32-16.32,18.18-2.28,2.36-4.87,4.22-7.26,6.38l-3.6.87-1.39.58h0a3.08,3.08,0,0,0-3,.87l-4,1.18-2,.15-1.06-.6c-.57-3.38-1.31-6.74,4.27-4.69,1.84.68,3.66.25,3.81-2.44.17-3.06,2-4.39,5-4.35,6.36.07,10.21-4.23,13.15-8.75C141.9,103.15,147.64,100.32,153.14,96.91Z"/><path class="cls-8" d="M106.93,175.16c0,.83,0,1.65,0,2.47-1.57-.18-2.18,1.61-3.92,1.62-5.32.05-6,1.7-3.2,6.4.42,2.81-.54,5.7.93,8.51,1,2-1.07,1.19-1.88,1.51l-2.84-4.29a.64.64,0,0,0-.32-.71l-4.76-9-.63-2c0-.69,0-1.38,0-2.07l2.78-2.52a15.58,15.58,0,0,1,8.84-.53c.58,1,1.24,1.12,2,.18Z"/><path class="cls-10" d="M152.85,205.67l2.84-.27a53.57,53.57,0,0,1,11.25,11.25l2.81,5.56a3.14,3.14,0,0,0,.71,2.61c0,1,0,1.91,0,2.87-2.76.08-1.93-4-4.6-4-4.05-4.3-10.48-6-13-12-.91-4.37,3.33.34,3.54-2.45-.28-1.56-1.85-1.51-3.31-1.64Z"/><path class="cls-8" d="M147.9,230.64c5.4-1.33,6.24-.77,10,7.53.85,1.89,1.43,3.72,4,3.46a26.75,26.75,0,0,0,2.75,4.38c2.37,2.52,2.15.12,2.31-1.38l4.69,1a5.61,5.61,0,0,1-.55,4.17.7.7,0,0,0-.2.78l.12,1.09-.36.89a2.19,2.19,0,0,0-.7.18l-.93-1a2.17,2.17,0,0,0-2-1c-.9-.9-1.69-2.16-3.21-1l-.82,0c0-4.93-5.09-2.79-7-5,1-1.23,1.27-3.8-.16-3.16-3.75,1.67-3-1.57-3.7-2.74-1.33-2.08-2.37-4.34-4.16-6.1Z"/><path class="cls-4" d="M165,51.71c-.7-2.35-1.39-4.66-.24-7.13.38-.82.55-2.34.08-2.85-4.27-4.62.61-8.1,1.34-12.06l1.37.76.12.37.53,2.06c.19.62.39,1.24.59,1.86.13,2.05-.07,4.17,1.16,6l.38,4-.36,5c-1.69-.09-2.61,1.35-3.92,2Z"/><path class="cls-8" d="M165.9,223.69c2.67,0,1.84,4.08,4.6,4l.39,1.95c-.11.1-.35.28-.33.3a7.5,7.5,0,0,0,.49.66c.28,1,.57,2,.85,3.05l.1,1,.06,4-.46-.11c-3.12-1.22-6.57-7.93-6.13-12C165.58,225.63,165.76,224.67,165.9,223.69Z"/><path class="cls-10" d="M69.46,127.63c-.8.09-2-.12-2.35.33-2.74,3.25-1.74-.09-2-1.11.12-.72.25-1.44.37-2.15.11-.43.23-.85.34-1.28.48-2.72.45-5.57,2-8L68,119.7l-.18.34.16-.36c1.67.25,2-1.66,3.21-2.06l.61,1a.35.35,0,0,0-.09.58C71,122.05,70.2,124.84,69.46,127.63Z"/><path class="cls-10" d="M149.12,199.57,138.5,198.3c.52-2.89,3.48-2,4.46-3.68A15.51,15.51,0,0,1,149.12,199.57Z"/><path class="cls-10" d="M166,51.73c1.31-.66,2.23-2.1,3.92-2l.52,1.05-.75,2.59-3.76.45C166,53.11,166,52.42,166,51.73Z"/><path class="cls-11" d="M121.85,6.3l-4.34-1.4C119.1,4.9,121,4.09,121.85,6.3Z"/><path class="cls-4" d="M103.92,174.76c-.75.94-1.41.78-2-.18A1.57,1.57,0,0,1,103.92,174.76Z"/><path class="cls-12" d="M123.61,7.38a.65.65,0,0,1-.51-.14l.24-1.37C124.22,6.23,123.6,6.86,123.61,7.38Z"/><path class="cls-4" d="M164.23,27.21a1,1,0,0,1,.4.59l.08-.13A.48.48,0,0,1,164.23,27.21Z"/><path class="cls-10" d="M171.49,250.43a2,2,0,0,1-.6.13.7.7,0,0,1,.2-.78A1.34,1.34,0,0,1,171.49,250.43Z"/><path class="cls-12" d="M125.92,12a1.06,1.06,0,0,1-.94-1.29Z"/><path class="cls-12" d="M76.19,119.05l1,1.57A1.52,1.52,0,0,1,76.19,119.05Z"/><path class="cls-3" d="M72.18,114c-.34,1.2-.68,2.4-1,3.6-1.25.4-1.54,2.31-3.21,2.06l0,0-.24-4.32c.48-8,4.17-15.38,4.85-23.35,1.32-1.66,3.54-1.58,5.15-2.68-.06,1.3.38,3-.26,3.83C73.17,98.82,74,105.32,74,111.7,72.58,111.86,71.84,112.52,72.18,114Z"/><path class="cls-7" d="M77.74,89.35c-1.61,1.1-3.83,1-5.15,2.68l-1.76-.5c0-.84,0-1.67-.07-2.51a9.75,9.75,0,0,0,2.82-.58c1.92-1.06,2.24-3.15,2.19-5-.07-2.3-1.89-.79-3-.94A3.29,3.29,0,0,0,71,78.65v-2.6l3.86.77,1.38,2.75a11.41,11.41,0,0,1,1.86,7.2Z"/><path class="cls-9" d="M27.87,105.13c9.43,3.68,18.82,4.07,28.15-.31-2.7,5.13-8.05,4.05-12.25,4.47C38.25,109.83,32.22,110.08,27.87,105.13Z"/><path class="cls-4" d="M57.13,176.78a26.81,26.81,0,0,1-1.63,8l-1.5-.08c.14-1.62.28-3.24.43-4.85l2.31-10.32a1.14,1.14,0,0,0,.2-.91c.09-.65.18-1.3.28-2,1-.9.82-2,.66-3.16a.74.74,0,0,1,.13-.79l1.21,0-1.29,11C56.84,174.5,57,175.65,57.13,176.78Z"/><path class="cls-10" d="M59.22,162.66l-1.21,0c0-3.79,1-7.37,2-11C62.35,155.55,60.35,159.07,59.22,162.66Z"/><path class="cls-9" d="M21.93,101.84a10.79,10.79,0,0,1,4.94,2.92C24.59,104.86,22.42,104.77,21.93,101.84Z"/><path class="cls-9" d="M18,98.76a2.92,2.92,0,0,1,2.69,2.1C19.22,100.84,18,100.51,18,98.76Z"/><path class="cls-9" d="M15.92,96.83a2.14,2.14,0,0,1,2,1.91A1.75,1.75,0,0,1,15.92,96.83Z"/><path class="cls-9" d="M56.65,104.5a2.54,2.54,0,0,1,2.4-1.6A1.77,1.77,0,0,1,56.65,104.5Z"/><path class="cls-9" d="M13.92,94.94a1.9,1.9,0,0,1,1.95,1.84A1.76,1.76,0,0,1,13.92,94.94Z"/><path class="cls-10" d="M57.88,163.48c.16,1.13.29,2.26-.66,3.16A4,4,0,0,1,57.88,163.48Z"/><path class="cls-9" d="M64.43,97.76c-.13-.55.12-.77.65-.74Z"/><path class="cls-9" d="M65.33,96.82l.77-.7Z"/><path class="cls-9" d="M66.36,95.82c0-.54.2-.79.73-.75Z"/><path class="cls-9" d="M67.33,94.82c0-.54.22-.8.76-.77Z"/><path class="cls-7" d="M65.77,123.42c-.11.43-.23.85-.34,1.28C65.54,124.27,65.66,123.85,65.77,123.42Z"/><path class="cls-9" d="M10.23,91.3l1.18,1.16A1.1,1.1,0,0,1,10.23,91.3Z"/><path class="cls-9" d="M68.32,93.82c0-.53.22-.78.76-.75Z"/><path class="cls-10" d="M56.94,168.59a1.14,1.14,0,0,1-.2.91C56.81,169.19,56.87,168.89,56.94,168.59Z"/><path class="cls-9" d="M12.25,93.28c.39.39.78.78,1.16,1.18A1.08,1.08,0,0,1,12.25,93.28Z"/><path class="cls-7" d="M23.73,449.41c-2.07,0-4.13,0-6.19-.09-1.11-.06-2.39-.23-1.62-2,3.34.32,4.38-2.09,4.88-4.57,2.61-13,5.18-26,6.27-39.19,1.5-3.49,1.38-7.28,2-10.93l3,0,.27,4.95q-.34,5.87-.7,11.73c-1.31,2.27-.83,4.75-.85,7.17h0l-.42,1.11c-.74,5.09-1.54,10.17-2.2,15.27-.24,1.85-1.66,4.36.08,5.44,1.57,1,2.85-1.75,4.48-2.46,1-.45,2.12-.87,3.17-1.31-1,4-4.33,5.9-7.2,8.21-1.64,1.33-3.58,2.39-3.74,4.84Z"/><path class="cls-6" d="M2.05,382.67c.56-7,3.73-13.15,6-19.6a129.53,129.53,0,0,1,8.78-20.58l1.62.2c-1.42,3.87-3.85,7.68-4.08,11.62-.76,12.71-.7,25.47-.95,38.2l-.09,2.08c-.29.81-.26,1.5.73,1.78,3.39,2.7,1.53,6.81,2.74,10.09-2.69,7.51-1.33,15.3-1.66,23l-.24,3.2c-1.83-4.32-.67-8.85-.81-13.27-.22-6.8-.06-13.61-.06-20.56-.44.21-.79.26-.85.42-.55,1.61.47,4.71-1.75,4.55-2.59-.18-1.33-3.24-1.33-4.95,0-11.88-.74-23.78,1.65-36-4.06,1.74-1.77,5.42-3.38,7.56-2.64,1.88-2.4,5.16-3.74,7.67C3.78,379.64,4,381.76,2.05,382.67Z"/><path class="cls-8" d="M14.87,432.63l.24-3.2c1.58,3.52.14,7.41,1.63,12.33,1.43-5.18,2.85-9.08,3.2-13.3,2-10.21,3-20.56,4.19-30.87,3.49.78.54,4.7,2.94,6-1.09,13.22-3.66,26.21-6.27,39.19-.5,2.48-1.54,4.89-4.88,4.57Z"/><path class="cls-6" d="M42.87,466.33c1.36,1.55,1.64-.18,2.31-.76,1,1.94,1.8,3.82-1,5-.74.12-1.77,0-1.64,1.12.05.36.94.61,1.45.91v4.91a16.79,16.79,0,0,0-11.25,5.23,7.37,7.37,0,0,1-6.81,2.42c2.93-6.57,10.39-7.92,13.41-13.9-2.56-1.95-4.54,0-7,2.08,0-3.88,1.92-6.29,3.6-8.79l2.8-1c-.54,1.49-1.59,3.11.12,4.39C40.84,469.36,41.6,467.05,42.87,466.33Z"/><path class="cls-8" d="M44.18,470.56c2.8-1.17,2-3.05,1-5a20.52,20.52,0,0,0,6.38-9.52c.91-2.47,2.17-3.07,4.42-1.94-1.35,5.43-2.9,10.73-6.41,15.3-1.25,1.62-2.53,4-1.26,6,1.35,2.16,3.87.95,5.92.93a4.63,4.63,0,0,1,2.9,2.64c-4.85,3.78-8.89.21-13.14-1.45v-4.91C44.05,471.91,44.12,471.24,44.18,470.56Z"/><path class="cls-10" d="M25,447.58c.16-2.45,2.1-3.51,3.74-4.84,2.87-2.31,6.19-4.26,7.2-8.21l2.7-2.46,2.5-1.59c3.49-2.24,6.28-5,7.71-9.09.64-1.85,1.31-4.08,3.66-4.83,3,1.42,1.14,3.27.45,5a5.33,5.33,0,0,0-1.93,3l0,0A1.88,1.88,0,0,0,50,426.53c-5.28,6.58-12.14,11.51-18.13,17.35-.82.79-1.95,1.27-2,2.61Z"/><path class="cls-10" d="M77.19,456.47l-1-1.89,2.51-.28L98,452.79c.17,2,3.74,1.92,2.87,4.59l0,0L90,458.68a1.9,1.9,0,0,0-2.06.77l-4,.09C81.51,459,79.87,456.56,77.19,456.47Z"/><path class="cls-6" d="M104,460.54c0,1,0,2,0,3-1.91,4.05-3.61,8.23-5.85,12.08-.76,1.31-.75,5-3.64,3.31a4.83,4.83,0,0,1-1.8-6.5,30.09,30.09,0,0,1,5.31-7,9.33,9.33,0,0,0,2.9-8l0,0C102.73,457.63,103.28,459.15,104,460.54Z"/><path class="cls-3" d="M78.7,454.3l-2.51.28c-5.18-1.11-10.5-1.72-15.28-4.27a12.6,12.6,0,0,1,2.1-5.77c3.72-.28,7-.19,9,4.07a6.62,6.62,0,0,0,5.51,3.73C77.91,453,78.31,453.64,78.7,454.3Z"/><path class="cls-7" d="M54.23,476.31c-2,0-4.57,1.23-5.92-.93-1.27-2,0-4.35,1.26-6,3.51-4.57,5.06-9.87,6.41-15.3l3.16.61c-.68,4.77-1.78,9.48-4.74,13.35C52.17,471,51.78,473.51,54.23,476.31Z"/><path class="cls-7" d="M63,444.54a12.6,12.6,0,0,0-2.1,5.77l-3.47,0c-2.78-2.75,1.19-5.14.43-7.78.08-.92.16-1.84.23-2.75,1.55-1.07,1.25-2.62,1.08-4.14l.28.15c1.31-.41,1.82-1.1.84-2.34.08-.59.17-1.18.24-1.77,2.19-1,1.84-3.31,2.57-5.06a5.79,5.79,0,0,1,.82-.12c.43,4-1,7.76-1.57,11.62-.23,1.43-1.25,3.48,1.69,3.47C63.7,442.58,63.35,443.56,63,444.54Z"/><path class="cls-5" d="M77.19,456.47c2.68.09,4.32,2.48,6.77,3.07-.35,1.76,1,4.07-1.9,5-2.34.74-4,.51-5.42-1.72A4.77,4.77,0,0,0,72,460.53c0-1,0-1.94-.07-2.91Z"/><path class="cls-4" d="M18,467.55c-.2,1.06.41,2.28-.72,3.32-3.15-1.83-3.34-4.91-3.42-8,3.23-1.25,4.08-5.24,7.38-6.4,2.42,1.52-.27,2.39-.58,3.43C19.92,462.46,17.86,464.61,18,467.55Z"/><path class="cls-8" d="M71.88,457.62c0,1,0,1.94.07,2.91a3.34,3.34,0,0,1-3.16,1.07c-3.24-.75-4.21-3.73-5.92-6Z"/><path class="cls-5" d="M25,447.58l4.77-1.09c2.5.29,5.12-.42,8.32.89-5,3.26-9.82,1.87-14.4,2Z"/><path class="cls-8" d="M35,455.59c.06,2.89-2.27,4.7-3.27,7.12-.46,1.12-1.41,2-2.74,1.09a2,2,0,0,1-.45-3.05c1.85-2,3.27-4.66,6.31-5.29Z"/><path class="cls-7" d="M21.26,456.44c-3.3,1.16-4.15,5.15-7.38,6.4l-.14-.25-.15-2.09c0-.64.08-1.29.13-1.93l1.24-2,0-.19,1.26-.71C17.81,456.56,20.3,451.7,21.26,456.44Z"/><path class="cls-5" d="M57.87,442.55c.76,2.64-3.21,5-.43,7.78-1.73-.17-4.67,1.36-4.81-1.21C52.45,446.07,53.22,442.39,57.87,442.55Z"/><path class="cls-6" d="M52.1,436.83A6.84,6.84,0,0,1,49,439.57c0-4.46,2.77-7.68,5.13-11.07l1.84.05c0,1,0,2,0,3l0,0-1,1.05,0,1.85-1.09.1A1.85,1.85,0,0,0,52.1,436.83Z"/><path class="cls-8" d="M56,428.55l-1.84-.05c-.11-2,.07-4.24-3-3.9a5.33,5.33,0,0,1,1.93-3C55.1,423.43,57.42,425.19,56,428.55Z"/><path class="cls-10" d="M41.3,459.85l-2.55,3.66-2.8,1a6.91,6.91,0,0,1,2.12-5l2.5-.41Z"/><path class="cls-6" d="M19.68,485.73,16,485.57c0-.67,0-1.35,0-2l0,0,3.79.11C19.75,484.34,19.72,485,19.68,485.73Z"/><path class="cls-8" d="M55,434.46l0-1.85,1-1.05,0,0,2-.05c0,.34,0,.67,0,1C57,433.17,56,433.81,55,434.46Z"/><path class="cls-8" d="M60.3,433.47c1,1.24.47,1.93-.84,2.34-.14-.74-.29-1.48-.43-2.21Z"/><path class="cls-8" d="M52.1,436.83a1.85,1.85,0,0,1,1.83-2.27c0,.7,0,1.41,0,2.11Z"/><path class="cls-5" d="M59.18,435.66c.17,1.52.47,3.07-1.08,4.14C58.11,438.33,57.43,436.68,59.18,435.66Z"/><path class="cls-5" d="M87.92,459.45a1.9,1.9,0,0,1,2.06-.77C89.7,460,89.27,461,87.92,459.45Z"/><path class="cls-5" d="M60.3,433.47,59,433.6,58,432.53c0-.33,0-.66,0-1l0,0,2.6.15Z"/><path class="cls-4" d="M15,456.55l-1.24,2-.72-2Z"/><path class="cls-8" d="M50,426.53A1.88,1.88,0,0,1,51,424.65,1.89,1.89,0,0,1,50,426.53Z"/><path class="cls-8" d="M34.89,455.46l.47-1.19a3.59,3.59,0,0,1,.33.25c-.2.37-.43.72-.65,1.07Z"/><path class="cls-5" d="M20,476.53l.36-1.21c.86.68,0,.87-.34,1.22Z"/><path class="cls-5" d="M16.24,455.65l-1.26.71Z"/><path class="cls-3" d="M74.86,76.82,71,76.05c-.47-1.62-1.91-1.19-3-1.42-4.35-3.81-10-4.93-15-7.45,0,0-.6,1-.91,1.53-1.86-.67-3.75-1.26-5.56-2-2.57-1.13-3.84-2.54-.19-3.95,1.67-.65,1.57-1.54.6-2.56-3.43-3.6-2.42-7.49-.87-11.43A69.44,69.44,0,0,1,61.1,57.34c2.67,6.15,5.54,7.15,10.52,3.66,3.41-2.38,4.06-5.92,1.59-9-2.25-2.83-4.57-5.6-6.87-8.38-.74-.89-1.74-1.71-.36-2.86,5.16,4.16,9.35,9.3,14,14,1.62,3.39,3.1,7,8,6-3.69,2.56-4.31,6.57-5.11,10.54A9.84,9.84,0,0,1,80,75.78,7.51,7.51,0,0,0,74.86,76.82Z"/><path class="cls-5" d="M80,54.73c-4.62-4.71-8.81-9.85-14-14-1.07-3.37-3.72-5.55-6-8-.34-2.67-.69-5.35-1-8,0-.33,0-.65,0-1,2.21-.31,3.74-1.69,5.15-3.26,4.47,2.76,6.31,7.82,9.9,11.38,2.48,2.45,4.95,4.32,8.62,3.8,1.86,6-1.69,12-.23,18.14C82.63,54.76,80.88,54.61,80,54.73Z"/><path class="cls-2" d="M60,32.72c2.3,2.45,4.95,4.63,6,8-1.38,1.15-.38,2,.36,2.86,2.3,2.78,4.62,5.55,6.87,8.38,2.47,3.12,1.82,6.66-1.59,9-5,3.49-7.85,2.49-10.52-3.66,1.58.07,2.73-.38,2.72-2.24.12-1.6.29-3.23-2.08-3.21l0,.06c-.14-3.76-2.8-6.16-4.94-8.74s-3.08-5.76-4-8.69c-.29-1,4.44-.43,6.58-1.72A1.24,1.24,0,0,1,60,32.72Z"/><path class="cls-8" d="M59,23.72c0,.33,0,.65,0,1-1.55-.09-2.87,1.64-4.64.26-2.25-1.75-7.12-.77-7.82,1.89-.59,2.27-1.92,1.76-3.19,2.07-1.77-.87-2.46-2.54-3.18-4.2,3-.27,4-3.65,6.87-4.35,1.1-.27,1-1.53.79-2.51A2.21,2.21,0,0,0,45.3,16a35.93,35.93,0,0,0-3.81.71c2.77-7.73,9-11.06,16.38-13l1.33-.17L61,3.66c0,.4.05.8.08,1.2a3.86,3.86,0,0,1-1,2.95c-1.58-.13-3,0-3.08,2.08a10.54,10.54,0,0,0-1.95,4.81c-1.7,1.8-1.47,3.91-.45,5.78,1.12,2,2.88.12,4.35.25Z"/><path class="cls-2" d="M80,54.73c.93-.12,2.68,0,2.45-.95-1.46-6.1,2.09-12.09.23-18.14,3.59-4,2.87-9.11,3.39-13.89,2.59-.2,3.66,2.57,5.92,3,1.4,3.16.65,5.52-2.22,7.59a6.54,6.54,0,0,0-1.15,10c1.51,1.74,1.6,3.21.56,4.85-2.08,3.28-.73,5.53,1.93,7.52-.06,2.49-3,3.47-3.11,5.93C83.05,61.69,81.57,58.12,80,54.73Z"/><path class="cls-6" d="M43.27,28.92c1.27-.31,2.6.2,3.19-2.07.7-2.66,5.57-3.64,7.82-1.89,1.77,1.38,3.09-.35,4.64-.26.35,2.67.7,5.35,1,8a1.24,1.24,0,0,0-.48.08c-2.14,1.29-6.87.76-6.58,1.72.87,2.93,1.82,6.12,4,8.69s4.8,5,4.94,8.74A199.86,199.86,0,0,1,43.27,28.92Z"/><path class="cls-10" d="M89.87,1.22c2.4,2.86,6,1.51,9,2.61s7.14.39,8.25,4.82L102,9.74,99,8.63c-2.62-3.4-6.65-2-10-2.9-.75-1-1.87-.89-2.94-.92-3,.57-4.08,1.69-1.11,4a7.25,7.25,0,0,0,3,3c.3,2.61,3,4.19,3,6.93-1.57,1-3.35,1-5.13,1.07-3.67-1.87-4.64-5.75-6.58-8.9,2.39-.3,3.23-1.51,1.91-3.65-2.37-3.86,0-4.81,3.16-5.3,1.25-.19,2.64.08,3.66-1Z"/><path class="cls-7" d="M87.91.94c-1,1.09-2.41.82-3.66,1-3.19.49-5.53,1.44-3.16,5.3,1.32,2.14.48,3.35-1.91,3.65-2.21-2.61-5.51-5.64-4-8.8s5.84-1.84,9-2C85.46.07,86.85-.15,87.91.94Z"/><path class="cls-10" d="M41.49,16.67A35.93,35.93,0,0,1,45.3,16a2.21,2.21,0,0,1,2.45,1.9c.23,1,.31,2.24-.79,2.51-2.82.7-3.85,4.08-6.87,4.35C36.12,21.26,40.45,19.25,41.49,16.67Z"/><path class="cls-7" d="M55.06,14.7A10.54,10.54,0,0,1,57,9.89c2.38,1.32,3.25.39,3.08-2.08a3.87,3.87,0,0,0,1-3l.88-1.45c.8-.53,2.09-.19,1.62.48-3.15,4.43-1.19,8.67.07,13l-1.22-.21c-.59-.72-1.19-.79-1.78,0Z"/><path class="cls-4" d="M55.06,14.7l5.58,2h1.77l1.22.21c.1.63.21,1.26.31,1.88l-2,0c-1.44,0-2.82.1-3,2h0c-1.47-.13-3.23,1.79-4.35-.25C53.59,18.61,53.36,16.5,55.06,14.7Z"/><path class="cls-4" d="M85.76,19.8c1.78,0,3.56-.06,5.13-1.07a5,5,0,0,1,3.11,4,2,2,0,0,1-2.06,2.05c-2.26-.44-3.33-3.21-5.92-3Z"/><path class="cls-7" d="M12.42,28.15C8.82,28.8,6.62,27,5.07,24,9.35,22.14,10.13,26.48,12.42,28.15Z"/><path class="cls-6" d="M61.93,18.71l2,0c.06.58.11,1.15.17,1.72C62.7,22,61.17,23.41,59,23.72v-3h0C60.43,20.74,61.84,20.7,61.93,18.71Z"/><path class="cls-6" d="M61.74,51.89c2.37,0,2.2,1.61,2.08,3.21C62.55,54.41,62.23,53.09,61.74,51.89Z"/><path class="cls-4" d="M61.94,3.4l-.88,1.45c0-.39-.06-.79-.08-1.19Z"/><path class="cls-7" d="M59.2,3.48l-1.33.17C58.25,3.07,58.69,3,59.2,3.48Z"/><path class="cls-1" d="M39.5,268.75c2.79-9.86,3-20.19,5.47-30.11l1.27,1.26c-1.82,20.34-5.33,40.47-8,60.7H36.8c-.21-1.91-.46-3.79-3-4a103.32,103.32,0,0,0,3.69-10.18c1.63-6.47,1.35-6.71-4.7-8.48.89-1.49,2.56-1.23,3.88-1.76C40.37,274.72,39.32,271.5,39.5,268.75Z"/><path class="cls-8" d="M54,184.67l1.5.08c-.14,2.29-.29,4.57-.43,6.85-2.47,7.53-2.1,15.66-4.86,23.13l-1.1-2c-.23-3.38,1.73-6.6.76-10Q51.94,193.67,54,184.67Z"/><path class="cls-10" d="M27,266.51c1.7-3.23-2.78-4.82-2.07-7.78,5.05,1.37,6.9,6.56,10.93,9.15-.35,1.87,1.51,4.07-.84,5.64-2.37-1-5.7.24-7.16-3l6.63.86c-2.27-2.2-3.35-4.91-6.54-4.75A7.52,7.52,0,0,1,27,266.51Z"/><path class="cls-5" d="M49.11,212.69l1.1,2c-1,8.43-1.61,16.94-4,25.17L45,238.64Z"/><path class="cls-7" d="M35.05,273.52c2.35-1.57.49-3.77.84-5.64l3.61.86c-.18,2.76.87,6-2.79,7.44A3.17,3.17,0,0,0,35.05,273.52Z"/><path class="cls-10" d="M23.72,257.72c-4.78-.38-5.1-.65-3.7-3.12C22.09,254.65,23,256.12,23.72,257.72Z"/><path class="cls-4" d="M62.27,88.38a54.8,54.8,0,0,1-20.59-1.6c7.15-3,15.47-1,22.32-5.13a5.2,5.2,0,0,1,0,.88C63.4,84.47,61.67,86.09,62.27,88.38Z"/><path class="cls-9" d="M72.81,82.5c1.07.15,2.89-1.36,3,.94,0,1.85-.27,3.94-2.19,5a9.75,9.75,0,0,1-2.82.58l-2.49-.79c-.47-2-3.75-2.26-3-5l1.69.15C69.19,84.82,70.89,82.94,72.81,82.5Z"/><path class="cls-8" d="M52,68.71c.31-.53.88-1.55.91-1.53,5,2.52,10.7,3.64,15,7.45l-2.13,1.12Z"/><path class="cls-4" d="M72.81,82.5c-1.92.44-3.62,2.32-5.83.91-.45-2,2-2.85,2-4.69l2-.07A3.29,3.29,0,0,1,72.81,82.5Z"/><path class="cls-7" d="M65.29,83.26c-.77,2.71,2.51,3,3,5-2,.67-4,.27-6,.15-.6-2.29,1.13-3.91,1.71-5.85Z"/><path class="cls-10" d="M71,78.65l-2,.07-3.16-3L68,74.63c1.13.23,2.57-.2,3,1.42C71,76.92,71,77.78,71,78.65Z"/><path class="cls-6" d="M176.71,433.57c1.86,5,3.83,10,7,14.37a.45.45,0,0,0,.28.6l1,3c-1,.45-1.34,2-2.79,1.84-2.28-.22.59-3-1.51-3.27-1,1.22-1.89,2.36-2.81,3.49l-6-1c-.82-1.85-2.5-2-4.19-2.13a2.16,2.16,0,0,1,2.14-1.93c1.54-.12,3.42.84,4.47-.81.63-1-.59-1.63-1.44-2.11.15-2.18-.51-3.78-2.95-4.1-.23-6.18-.38-6.3-6.05-4.87-1.41,0-2.83-.08-2.95-2a28.23,28.23,0,0,0,3.19-3.68c.95-1.58.66-3-1.64-2.75-6.9.62-8.69-.29-11.65-6.25a2.35,2.35,0,0,0-1.9-1.34l0,0c0-1.44-.07-2.82-2-3l0,0a1.9,1.9,0,0,0-2-2l0,0c-1.16-2.68-1.09-6.84-6-5l-1,0-4-8c-.11-1.61-.21-3.22-.32-4.83l.44-1.58,2.81.39c.52,3,2.3,4.18,5.24,3.82,3.44,1.42,7.06,2.47,9.87,5.12l1.33.9a.51.51,0,0,1,.63.41c.14,3.59.65,6.74,5.53,4.49l.68.76c0,2.08-.74,4.83,3.09,3.34C169.85,419.88,172.65,427.19,176.71,433.57Z"/><path class="cls-5" d="M177.92,453.56c.92-1.13,1.83-2.27,2.81-3.49,2.1.28-.77,3.05,1.51,3.27,1.45.14,1.75-1.39,2.79-1.84a2.81,2.81,0,0,0,.82.2c.19.35.39.69.59,1a2.42,2.42,0,0,0,1.37,2l1.05,1.79.63,1.09c1.89,4.66,5.84,8.26,6.9,13.35a3.34,3.34,0,0,1-2.46,1.61c-.1-.79.25-2-.66-2.18s-1.2.9-1.28,1.74a1.92,1.92,0,0,0,1.93,2.35c0,1.33,0,2.66,0,4-2.34,1-2,3.12-2.06,5.07l-3.08.06-5.94-.45a4.62,4.62,0,0,1,1.45-3.56c6-6,5.81-9.4-1.22-13.72-2-1.22-2.94-3.08-2.48-4.27C182.07,457.93,179.32,456.06,177.92,453.56Z"/><path class="cls-1" d="M14.58,328.71l.24,5.9-.16.12c-.83.82-.55,1.87-.6,2.85-1.61,2.23-1.85,5.29-4.25,7l.06-14c.46-10.64.74-21.28.3-31.92a7,7,0,0,0,0-4.09,19.86,19.86,0,0,0,0-6.92A5.2,5.2,0,0,0,10,283.7c0-.3,0-.61.07-.92l2-.16h0c1.76,16.85-.46,33.72.2,50.74C13.8,332.14,11.8,329.15,14.58,328.71Z"/><path class="cls-5" d="M32.83,277.93c-4.67-1.23-9.33-2.47-13-5.92.5-2.51,5.2-1.79,4.19-5.46l3,0a7.52,7.52,0,0,0,.95.15l-.09,3.89c1.46,3.21,4.79,1.93,7.16,3a3.17,3.17,0,0,1,1.66,2.66C35.39,276.7,33.72,276.44,32.83,277.93Z"/><path class="cls-5" d="M14.82,266.7A8.74,8.74,0,0,1,11.68,263c-2.53-4.77-2.24-5.28,3.33-5.37.43,1.29-2.43,3.45,1,3.93,2.07.84,5.18.4,4.95,4C19.27,267.86,16.57,264.58,14.82,266.7Z"/><path class="cls-1" d="M14.82,266.7c1.75-2.12,4.45,1.16,6.18-1.09l3,.94c1,3.67-3.69,2.95-4.19,5.46l-1.57-.15C15.3,271.36,15.1,269,14.82,266.7Z"/><path class="cls-6" d="M16.05,261.57c-3.47-.48-.61-2.64-1-3.93C18.3,258.16,15.63,260.28,16.05,261.57Z"/><path class="cls-1" d="M12,282.62v-4.85c1,1.68,1.35,3.33,0,4.85Z"/><path class="cls-10" d="M133.91,402.61l4,8c-1.72,5.22-2.22,9.43,5.25,10.51,2.54.37,3.73,4.47,6.71,5.5,0,1.32,0,2.64.05,4-1.56,2.82.33,6.08-1.15,8.93-1.24,2.39,0,3.61,2.13,4.59,1.42.67,4.69.63,3.19,3.07-1.06,1.73-2,5-5.79,4.11-7.07-1.7-12.07,2.8-17.08,6.64-1.78,1.37-1.81,2.86,1,3.8,2.28.75,4.66-.61,6.73.85-.35.67-.7,1.34-1,2-2.73,2.09-2.64,5.94-5.13,8.17-6.34-1.06-11.15-5.35-16.75-8l-3.2-1.13-1-1c1.36-4,3.93-1.25,5.53-.61a76.73,76.73,0,0,1,9.56,5.16c1.41.83,2.66,2,4.75.32-3.86-2.24-6.6-5.82-11-7-2.21-.58-1.29-1.81-.85-3l1-1c7.88,2.4,9.81-5,14.61-8.11-1.71-1.45-3.75-.32-4.61-2.48-1.59-4-2.37-1.56-3,.56-2.42,0-3.28,2.82-5.56,3-1.44-3.32-1.61-6.41,1.63-8.88.07,1.53.34,3.66,2.34,2.16,5.15-3.85,8.11-9.61,12.77-14.89-4.48.24-6.82,2-8.37,5-.82,1.58-1.38,3.46-3.62,3.65,0-3-1.88-3.32-4.2-3.1,1.79-6.49,3.32-13,1.6-19.76a9.58,9.58,0,0,1,6.47-11.3Z"/><path class="cls-4" d="M132.83,472.73c2.49-2.23,2.4-6.08,5.13-8.17-.11,2.63,1,4.4,3.64,4.93,2.26.45,2.79,1.3,1.24,3.23-1,1.27.1,1.58,1.09,1.83,0,1.31,0,2.61,0,3.92A24.44,24.44,0,0,1,132.83,472.73Z"/><path class="cls-8" d="M112.88,463.62l3.2,1.13A111,111,0,0,0,115,484.53c-.26,2.37.94,5.47-3,6C111.24,481.53,113.63,472.63,112.88,463.62Z"/><path class="cls-4" d="M13.59,460.5l.15,2.09A1.28,1.28,0,0,1,13.59,460.5Z"/><path class="cls-10" d="M9.81,344.61c2.4-1.74,2.64-4.8,4.25-7a2.3,2.3,0,0,0,.6-2.85l.16-.12c5.7-8.65,10.21-18,15.22-27l2,1.17c-9.81,18.83-20.17,37.39-28.28,57.07-.55,1.33-.46,3.64-2.93,3.6Z"/><path class="cls-5" d="M31.22,335.64q1.34-12.5,2.66-25c1.92-2.46.61-5.4,1.19-8.07l1.73-2h1.4c-.25,14.12-3.88,27.9-4.33,42l-.85,2,0,5c-1,.73-1,1.81-.93,2.88l-2.9.08a81.11,81.11,0,0,1,1.75-14C32.18,337.7,32.2,336.71,31.22,335.64Z"/><path class="cls-8" d="M36.8,300.6l-1.73,2c-2.16,1.5-1.93,4.16-3,6.19l-2-1.17a17.1,17.1,0,0,1,3.8-11C36.34,296.81,36.59,298.69,36.8,300.6Z"/><path class="cls-8" d="M24,329.58c-1.13,4.68-3.44,8.86-5.59,13.11l-1.62-.2C18.9,338,20.08,333,24,329.58Z"/><path class="cls-5" d="M167.74,450.4c1.69.13,3.37.28,4.19,2.13.24,3.11-.56,5.1-4.31,5.09-4,0-5.1,2.51-4.47,6.08.93,5.28,4.56,7.88,9.91,6.53,3.1-.78,5.72-.81,8.63,1.35-4,2-7.4,3.24-11.87,2.74-3.3-.37-8.5-.75-8.88,5.26-.77,1.07-1.91.92-3,.94-1.8-3.37-5-2.92-8-3-2.07,0-4.25.16-3.91-3,1.63-.07,2.77-.14,2.32-2.57-.63-3.4-1.19-7.06,4.17-7.67,1.76-.2,2.49-2.66,1.7-4-.91-1.56-2.63-.63-3.87.36a15.1,15.1,0,0,1-8.57,3.64,17.37,17.37,0,0,1,5.69-4.85c2.36-1.31,5.38-1.85,6.51-4.85l2.95-1.11c3.25.4,5.62-1.48,8.09-3.1Z"/><path class="cls-1" d="M160.94,479.58c.38-6,5.58-5.63,8.88-5.26,4.47.5,7.9-.76,11.87-2.74-2.91-2.16-5.53-2.13-8.63-1.35-5.35,1.35-9-1.25-9.91-6.53-.63-3.57.52-6.1,4.47-6.08,3.75,0,4.55-2,4.31-5.09l6,1c1.4,2.5,4.15,4.37,2.71,8.09-.46,1.19.5,3.05,2.48,4.27,7,4.32,7.19,7.7,1.22,13.72a4.62,4.62,0,0,0-1.45,3.56l-8.95,1.28A16.81,16.81,0,0,0,174,482c-.12-1.18,2.61-2.12.58-3.17-1.29-.66-3.17-1.71-4.65-.6-2.24,1.67-4.71,1.1-7.11,1.33Z"/><path class="cls-6" d="M154,454.63c-1.13,3-4.15,3.54-6.51,4.85a17.37,17.37,0,0,0-5.69,4.85,15.1,15.1,0,0,0,8.57-3.64c1.24-1,3-1.92,3.87-.36.79,1.35.06,3.81-1.7,4-5.36.61-4.8,4.27-4.17,7.67.45,2.43-.69,2.5-2.32,2.57-.68-.94-1.37-1.06-2.08,0-1-.25-2.12-.56-1.09-1.83,1.55-1.93,1-2.78-1.24-3.23-2.62-.53-3.75-2.3-3.64-4.93.34-.67.69-1.34,1-2C144,460,147.84,455.14,154,454.63Z"/><path class="cls-10" d="M173.93,484.48l8.95-1.28,5.94.45c0,1,.06,1.91.08,2.87l-8,0a15.51,15.51,0,0,1-9.55,2c-2.39-.17-2.27-1.36-1.45-3C171.32,485.43,172.88,485.9,173.93,484.48Z"/><path class="cls-5" d="M173.93,484.48c-1.05,1.42-2.61.95-4,1.09-1-2.35-2.15-4.34-5.21-4.11-1.15.09-1.65-.84-1.86-1.87,2.4-.23,4.87.34,7.11-1.33,1.48-1.11,3.36-.06,4.65.6,2,1.05-.7,2-.58,3.17A16.81,16.81,0,0,1,173.93,484.48Z"/><path class="cls-6" d="M149.92,477.56c3,0,6.22-.41,8,3C155.66,481.08,152.38,479.87,149.92,477.56Z"/><path class="cls-4" d="M119.92,457.53c-.44,1.2-1.36,2.43.85,3,4.35,1.14,7.09,4.72,11,7-2.09,1.7-3.34.51-4.75-.32a76.73,76.73,0,0,0-9.56-5.16c-1.6-.64-4.17-3.41-5.53.61l-4.87-2.2c-.32-2.37-3.08-5.08,1-6.83h2c1.54,1.37,1.79.19,2-1h0c.49-.27,1.34-.47,1.41-.83.21-1-.75-1-1.45-1.17-1.57-1.43-.78-3.33-1-5l2-2,1.08.13c0,2.16-.78,4.6,1.92,5.89,0,1.46-1.42,3.25,1,4.07C116.87,455.74,116.86,457.79,119.92,457.53Z"/><path class="cls-8" d="M108,453.6c-4,1.75-1.28,4.46-1,6.83l-3.06.11c-.67-1.39-1.22-2.91-3.07-3.16.87-2.67-2.7-2.56-2.87-4.59l2.64-2.37,2.3-.88C102.35,453.71,106.75,451.69,108,453.6Z"/><path class="cls-8" d="M16,483.55c0,.67,0,1.35,0,2-.75,1.05-1.87.95-3,1C13.25,484.81,12.1,481.73,16,483.55Z"/><path class="cls-8" d="M188.9,486.52c0-1-.05-1.91-.08-2.87l3.08-.06C191.77,487.61,191.69,487.69,188.9,486.52Z"/><path class="cls-6" d="M193.92,474.53a1.92,1.92,0,0,1-1.93-2.35c.08-.84.36-1.93,1.28-1.74s.56,1.39.66,2.18C193.93,473.26,193.93,473.89,193.92,474.53Z"/><path class="cls-2" d="M156.93,294.62c-1.09,2.93-1.7,5.37-6.37,4.41-5.32-1.09-7.24,2.66-4.62,7.58h0l-1.57.21L141,305.51l-3.87-2c-1.13-1.53-2.85-2.22-4.4-3.17-6-3.67-11.48-7.91-15.67-13.65.82-1.65,4.92.53,3.88-3.24-2-7.23,3-11.28,7-15.84,1.66,0,3.2.74,4.7,1,4.11.63,3.57,5.29,6.54,6.65,1.87.85,2.88,1.89,2,4.21-.68,1.88.86,3.22,2.24,4,2,1.15,1.18-1.18,1.77-1.82s1.33-.55,1.6.08C149,287,155.94,288.46,156.93,294.62ZM130,274.11c-2.21-.16-5.61,4.56-4.51,6.24a132.23,132.23,0,0,0,9.2,12c1.31,1.56,2.83.6,4.23-.64s2.65-2.42,1.28-4.11c-1.5-1.85-1.42-4.06-1.72-6.08C137.73,276.28,132.35,276.82,130,274.11Z"/><path class="cls-10" d="M131.94,336.6l1.38.35A2.27,2.27,0,0,0,136,338.2c2.15,1.44,4.05,3.08,4.39,5.87-.83,4-5.82.21-6.95,3.68,4.91,2.91,7.73,7,7.53,12.88v0a15.11,15.11,0,0,1-5.14-3.43c-.58-6.87-6.87-8.76-11-12.54-2.66-2.44-4.85.51-7.27.76a7.51,7.51,0,0,1-1.48-.15c-.84-2-2.73-1.53-4.28-1.87-3-1.91-5.17-5.46-9.51-4.37a2.86,2.86,0,0,1-2.48-2c1.68-2.74,4.77-2.43,7.28-3.1,1.93-.52,2.41-1.06,1.7-2.79,3.87-.64,7.22,2.2,11.07,1.67l1.33.24C124.27,335.77,128.12,336.16,131.94,336.6Z"/><path class="cls-7" d="M141,360.63c.2-5.86-2.62-10-7.53-12.88,1.13-3.47,6.12.34,6.95-3.68,2.72,2.37,2.52,5.78,3.21,8.88.45,2,.52,4.19,2.3,5.67a3.17,3.17,0,0,1-.12.74Z"/><path class="cls-5" d="M145.81,359.36a3.17,3.17,0,0,0,.12-.74L151.7,356C151.22,359.74,149.59,361.44,145.81,359.36Z"/><path class="cls-2" d="M148.94,306.62l-.12,2.55-1.95-1.05-.87-.54,0,0c0-.31,0-.63,0-.94h3Z"/><path class="cls-13" d="M136,338.2a2.27,2.27,0,0,1-2.71-1.25l2.6-.32C136,337.15,136,337.68,136,338.2Z"/><path class="cls-14" d="M168,322.3a2.49,2.49,0,0,1,1.32,2.19C168.24,324.17,168,323.31,168,322.3Z"/><path class="cls-3" d="M146,307.58l.87.54a2.39,2.39,0,0,1-.83.23C146,308.09,146,307.84,146,307.58Z"/><path class="cls-7" d="M142.08,400.41c-2.94.36-4.72-.87-5.24-3.82l-.15-10a6.12,6.12,0,0,0-1.45-5.06,1.58,1.58,0,0,0-.23-.93,4.17,4.17,0,0,0,0-.5c-1.23-10.79-1.06-11,9.84-14.6.42,7.17-1.79,14-2.55,21.08C141.78,391.23,141.19,395.79,142.08,400.41Zm.93-31.06c-3.86,1.61-4.66,5-5.9,8a1.72,1.72,0,0,0,.74,1.56,2.08,2.08,0,0,0,1.69-.53A9.62,9.62,0,0,0,143,369.35Z"/><path class="cls-8" d="M159.44,411.33c-4.88,2.25-5.39-.9-5.53-4.49C156.35,407.59,158,409.4,159.44,411.33Z"/><path class="cls-8" d="M163.21,415.43c-3.83,1.49-3.11-1.26-3.09-3.34A6.27,6.27,0,0,1,163.21,415.43Z"/><path class="cls-8" d="M153.28,406.43l-1.33-.9Z"/><path class="cls-5" d="M236.93,329.6c-.49-2.51-2.48-2.81-4.49-3-3.64-.3-4.09-2.13-2.51-5,2.83-5.38,4-11.33,5.94-17,0-.33,0-.66,0-1,3.26,1.23,2.08,3.69,1.41,5.78-.45,1.39-1.61,2.53-2.2,3.89s-2.06,2.47-1.17,4.06a2.37,2.37,0,0,0,2.63,1c1.7-.47,1.8-2.13,2.33-3.52,2.08-5.4,3.31-11.06,5.36-16.5,1.78-4.73,3.9-1.85,5.79-1.12,1.35.52.81,2.36.83,3.65,0,1.71.07,3.3,2,4.18s2.65-.09,3.47-1.6c.53-1,1.71-.82,2.72-.64,5.22.93,7.49,4.09,6.51,9.65,2.64-1.71,4.33.41,6.38,1.14a1.8,1.8,0,0,0,2,1.93l0,1.23c-1.86,2-6,1.73-5.78,5.76-1.92,1.74-4.39,1.37-6.67,1.8-1.42.27-3.05.58-3.36,2.46-.22,1.34.63,2.17,1.53,2.94,1.43,1.22,2.43.08,3.5-.67,3.05-2.13,5-1.47,6.5,2,2.72,6.45,2.85,6.41,8.59,2.59,4.31-2.86,6-2.19,6.59,3,.22,2.06,1.6,3.08,2.47,4.57s4.25,1.59,2.55,4.42c-4.17.11-7.61-3.72-12-2.19-1.06-1.15-2.12-2.27-3.92-1.88h0a2.29,2.29,0,0,0-1.76-2.09q-14.06-5.13-28.06-10.35a7.06,7.06,0,0,0-6.18.43C237.56,329.58,237.24,329.59,236.93,329.6Z"/><path class="cls-8" d="M237.88,329.59a7.06,7.06,0,0,1,6.18-.43q14,5.22,28.06,10.35a2.29,2.29,0,0,1,1.76,2.09c-6-1.5-12.14-2.48-17.84-4.69-4.32-1.67-9.25-.42-13.14-3.32C242.21,331,237.45,333.56,237.88,329.59Z"/><path class="cls-5" d="M244.91,367.58a23,23,0,0,1-.45,4.41,3.1,3.1,0,0,1-2.91,2.35c-1.64,0-1.5-1.43-1.78-2.51a16.53,16.53,0,0,0-2.89-6.25c.2-4.72-2.14-9.35-.23-15.05C241,355.89,242.76,361.82,244.91,367.58Z"/><path class="cls-5" d="M264.89,376.59c.1,2-.71,3-2.87,3-2.94,0-5.12-1.29-6.17-3.94a64.8,64.8,0,0,1-2-7.07c-.2-1.08-.4-2.16-.81-4.44,3.43,4.07,5.4,8.13,9.82,9.43l1,2Z"/><path class="cls-4" d="M265.88,384.57l.12,1C265.33,385.32,265.21,385,265.88,384.57Z"/><path class="cls-4" d="M277.79,343.47c4.42-1.53,7.86,2.3,12,2.19a11.89,11.89,0,0,0,12.7,4c2.93-1,3.62.42,5.29,1-.09,3.61,3.32,5.74,3.84,9.09-2.58-.38-3.5-4.3-6.79-3.18l0,0,0-2.15a2.9,2.9,0,0,0-3.11-2.43c-.17,0-.53.44-.52.66.06,1.45,1.15,1.76,2.31,1.93l.18,2c-2.48,2.52,1.51,3.87,1.08,6-1,1.1-1.45.27-2.25-.41-2.88-2.46-5.16-5.82-9.28-6.51-2.38-2.27-4-5.45-7.5-6.37-1.21-3.36-5.85-.19-7-3.67C278.5,344.91,278.14,344.19,277.79,343.47Z"/><path class="cls-8" d="M277.79,343.47c.35.72.71,1.44,1.06,2.17-3,.25-3.66-2.27-5-4.05C275.67,341.2,276.73,342.32,277.79,343.47Z"/><path class="cls-6" d="M264.85,345.62c-.61-.12-1.32-.14-1.43-.95,0-.16.37-.55.54-.53.81.1.83.81,1,1.43Z"/><path class="cls-2" d="M178.91,279.63c.72,3.86,5.12,5.26,6,9-.23,1.56-.85,1.59-1.76.44-5.26-6.71-12.5-10.29-21.3-13.54,2.27,3.45,4.74,5.07,7.16,6.81a30.94,30.94,0,0,1,9.89,10.73c.63,1.22,1.45,3.25-.17,3.13-2.76-.22-3.16,6.1-6.66,2.13-.54-.61-.84-1.38-1.75-1.59-5.36-1.26-6.37-1.76-8.39-4.12-3.64-6.88-6.71-14.09-12-20-1.76-3.42-2.87-7.34-6.88-9l-.15-3,1,0c.76,1.06,1.91,1,3,1,.2.78.23,2.13.63,2.26,5.11,1.59,8.2,7.55,14.41,6.69a8.64,8.64,0,0,1,3.27.8c5,2.07,8.95,5.79,13.69,8.22Z"/><path class="cls-6" d="M150,272.63c5.27,5.9,8.34,13.11,12,20-1.57.92-2.93,2.36-5,2-1-6.16-7.94-7.66-10.11-12.92-.27-.63-1-.72-1.6-.08s.27,3-1.77,1.82c-1.38-.77-2.92-2.11-2.24-4,.84-2.32-.17-3.36-2-4.21-3-1.36-2.43-6-6.54-6.65-1.5-.22-3-1-4.7-1,0-1,0-2,0-3h0c1.44,0,2.83-.06,3-2v-2h3c1.06,1.13.38,3.55,2.64,3.72,1,.08,1.19-.94,1.36-1.76,1.36.61,2.29,2.09,4,2C144.26,267.65,146.22,271,150,272.63Z"/><path class="cls-10" d="M273.85,399.56c-4.41,3.27-5.25-.89-6.47-3.38s-.94-4.65,2.63-4.73l1.86,1.13Z"/><path class="cls-6" d="M264.89,376.59l-1-1C264.36,375.81,265.65,375.19,264.89,376.59Z"/><path class="cls-8" d="M271.49,322.13c5-3.17,9.65-.61,14.4.66,1.54,6.08.92,6.78-6,6.8-.53-4.78-2-8.45-8-7A2.18,2.18,0,0,1,271.49,322.13Z"/><path class="cls-4" d="M271.86,322.62c6-1.48,7.47,2.19,8,7l-2,0-3-.06A12.17,12.17,0,0,1,271.86,322.62Z"/><path class="cls-8" d="M274.92,329.57l3,.06c-.8,1.18-1.53,2.93-3.16,2.41C273.51,331.66,274.71,330.42,274.92,329.57Z"/><path class="cls-5" d="M123.87,377.24c-7.69,4.58-14.77,10-22,15.29a2.18,2.18,0,0,0-2,1h-.73A18.2,18.2,0,0,0,98.05,387,290.58,290.58,0,0,1,128,368.62a7.28,7.28,0,0,1,1,4.12l-2.35,2.88-.38-.05C125.1,375.65,124.12,375.92,123.87,377.24Z"/><path class="cls-8" d="M134,396.2c-1.39-1.86-1.2-4-1.1-6.14a13.57,13.57,0,0,0-2.18-8.37l2.12-.13,1.07,0h0c.11,2.12.27,4.21,2.75,5l.15,10Z"/><path class="cls-4" d="M126.6,375.62l2.35-2.88,2.89-.6C130.35,374.28,129.17,375.92,126.6,375.62Z"/><path class="cls-4" d="M123.87,377.24c.25-1.32,1.23-1.59,2.35-1.67-.07.63-.16,1.25-.24,1.88Z"/><path class="cls-5" d="M173.25,349.12c-.12.06-.24.19-.35.17s-.21-.15-.31-.23Z"/><path class="cls-6" d="M188.17,343c0,.11-.08.3-.12.3a1.24,1.24,0,0,1-.36-.11c0-.11.07-.3.11-.3A1.3,1.3,0,0,1,188.17,343Z"/><path class="cls-8" d="M135,380.63a1.58,1.58,0,0,1,.23.93l-1.3,0h0c0-.34,0-.68,0-1Z"/><path class="cls-4" d="M134,380.57c0,.33,0,.67,0,1l-1.07,0Z"/><path class="cls-6" d="M271.91,313.6c-2.05-.73-3.74-2.85-6.38-1.14,1-5.56-1.29-8.72-6.51-9.65-1-.18-2.19-.34-2.72.64-.82,1.51-1.59,2.47-3.47,1.6s-1.93-2.47-2-4.18c0-1.29.52-3.13-.83-3.65-1.89-.73-4-3.61-5.79,1.12-2.05,5.44-3.28,11.1-5.36,16.5-.53,1.39-.63,3.05-2.33,3.52a2.37,2.37,0,0,1-2.63-1c-.89-1.59.62-2.77,1.17-4.06s1.75-2.5,2.2-3.89c.67-2.09,1.85-4.55-1.41-5.78a7.56,7.56,0,0,0,.78-5.26c-1-5.24-.41-5.9,4.83-6.07a22,22,0,0,0,3.37-.64c1.11,1.94,2.95,2.63,5,3,6.37-.17,11.47,2.77,15.39,7.32a10.32,10.32,0,0,0,7.64,3.66l1,0c-.08,1.65-2.51,2.94-.36,5C274.48,311.62,273.12,313,271.91,313.6Z"/><path class="cls-6" d="M143.9,260.65l-1,0a21,21,0,0,1-6.05-4.11c.64-3.29-.8-6.77.88-10,8.57-.27,17.16-.82,25.21,3.1l.82,0c.86,1.18,1.18,2.94,3.14,2.94h0c-.08,2-1.86,1.92-3.48,2.83,6.91,1.45,10.06,6.76,13.49,12-4.13-2.14-8.61-2.93-13.05-3.86C157.44,261.13,150.83,259.82,143.9,260.65Z"/><path class="cls-8" d="M143.9,260.65c6.93-.83,13.54.48,20,2.93a3.37,3.37,0,0,0,2.65,3.11c6.31,2.19,10.25,6.72,12.38,12.94-4.74-2.43-8.71-6.15-13.69-8.22a8.64,8.64,0,0,0-3.27-.8c-3.29-5.88-9.13-7.47-15-8.95C145.81,261.63,144.66,261.71,143.9,260.65Z"/><path class="cls-6" d="M167,250.67a2.17,2.17,0,0,1,2,1l-2.1.94h0C167,252,167,251.33,167,250.67Z"/><path class="cls-2" d="M276.88,391.57l.38.21-.39-.2Z"/><path class="cls-6" d="M235.87,304.59c-1.93,5.7-3.11,11.65-5.94,17,0-1.67,0-3.33-.05-5C231.27,312.31,230.72,307,235.87,304.59Z"/><path class="cls-8" d="M271.91,313.6c1.21-.65,2.57-2,1.6-2.94-2.15-2.1.28-3.39.36-5h1.05l1.94,1c-.06,1.7.22,3.22,2,4,2.21,1.73,5,2.9,6,5.88l-10,.09c-.23-.45.39-1.7-1-1A1.8,1.8,0,0,1,271.91,313.6Z"/><path class="cls-4" d="M274.92,305.61h-1.05l-1,0c-1-2.8-5.18-4-4.06-7.9C271.68,299.7,274.33,301.86,274.92,305.61Z"/><path class="cls-4" d="M278.89,310.6c-1.81-.75-2.09-2.27-2-4C278.66,307.38,278.92,308.91,278.89,310.6Z"/><path class="cls-4" d="M266.88,296.66c-1.56,1.4-1.78.18-2-1A2.09,2.09,0,0,1,266.88,296.66Z"/><path class="cls-6" d="M273.88,315.53c1.39-.66.77.59,1,1l-1,.19C273.89,316.35,273.89,315.94,273.88,315.53Z"/><path class="cls-6" d="M305.8,374.47c-2.89-7.1-8.36-12.49-12.46-18.79,4.12.69,6.4,4.05,9.28,6.51.8.68,1.25,1.51,2.25.41l2.77,1.11,2.19,3c.89,4.63,3.27,9.05,2,14C309.51,378.91,306.74,377.58,305.8,374.47Z"/><path class="cls-10" d="M307.64,363.71l-2.77-1.11c.43-2.14-3.56-3.49-1.08-6h1.11l0,0C306.07,358.84,308.29,360.72,307.64,363.71Z"/><path class="cls-6" d="M220.9,364.59l.38.2-.38-.21Z"/><path class="cls-1" d="M91.63,78.71c7.54,0,9.93,1.71,12.12,8.76,1,3.3,2.39,6.52,2.4,10.1,0,1.26,1,2.66-.49,3.56A4.09,4.09,0,0,1,101,101C95.15,96.64,89.4,92.22,83.65,87.8c-1.26-1-2.35-2.54-1.36-3.85,1.49-2,2-5.17,5.36-5.23C89,78.7,90.31,78.72,91.63,78.71Z"/><path class="cls-1" d="M94.73,58.57c2.67-2.63,6-1.68,9.21-1.83.16,3.6,2.06,5.6,5.61,6,1.28.13,2.16.51,2.36,1.88,0,1.12-.22,2.29.79,3.14a.72.72,0,0,0-.24.73c-3.59.42-6.67,1.43-7.69,5.55-.56,2.26-2.38,2.81-4.61,2.75-3.62-.09-7.07-1.27-10.75-1.14-3.29.12-.75-2.84-1.64-4.11.75-4,2.85-7.45,5.14-10.76a2.16,2.16,0,0,0,1.09-2Z"/><path class="cls-3" d="M124,68.56l2.14-.34c1.87,2.13,3.88-.53,5.8.17,4.52,3.47,9.83,1.92,14.83,2.38,1.77.16,4.42-1.18,5,1.77.45,2.41-2,2.81-3.54,3.52-11,5.09-22.67,5-34.78,3.74C121.19,79.75,121.79,73.44,124,68.56Z"/><path class="cls-10" d="M94.73,58.57l-.73.21a2,2,0,0,0-1.09,2c-2.29,3.31-4.39,6.71-5.14,10.76-3.25,3.84-4.76,8.7-7.5,12.85-.63,1-.74,2.23-2.17,2.42a11.36,11.36,0,0,0-1.86-7.19c2.84.31,3.79-1.26,3.75-3.8a9.84,9.84,0,0,0,2.85-4.54c.8-4,1.42-8,5.11-10.54.11-2.46,3-3.44,3.11-5.93,3.13-6.12,7.74-11.41,10-18a6.21,6.21,0,0,1,3.8-1C102.16,43.66,97,50.46,94.73,58.57Z"/><path class="cls-1" d="M162.07,63.41c.78-2,1.71-4.7,3.88-4.57,2.36.16,2.32,3.34,2.65,5.14a25.56,25.56,0,0,1-3.46,19c.3-4.37-.5-8.76,1.63-13.07C168.78,65.82,167.54,64.49,162.07,63.41Z"/><path class="cls-9" d="M131.9,68.39c-1.92-.7-3.93,2-5.8-.17a20.1,20.1,0,0,1,12.71-.16Z"/><path class="cls-4" d="M160.7,94.58c-2.57-.33-4.33,2.08-6.81,2,1.17-3.29,3.72-4.14,6.88-3.91l.29,1A7.12,7.12,0,0,0,160.7,94.58Z"/><path class="cls-1" d="M165.22,82.91a6.33,6.33,0,0,1-2.05,3.89C161.62,84.33,162.57,83.17,165.22,82.91Z"/><path class="cls-4" d="M102.94,131.41a6.12,6.12,0,0,1-5,.27A3.94,3.94,0,0,1,102.94,131.41Z"/><path class="cls-10" d="M72.18,114c-.34-1.5.4-2.16,1.79-2.32l.75,2.38Z"/><path class="cls-9" d="M112.46,68.45a.72.72,0,0,1,.24-.73h.06A.85.85,0,0,1,112.46,68.45Z"/><path class="cls-10" d="M75.51,116.19l-.54-1.5A1.16,1.16,0,0,1,75.51,116.19Z"/><path class="cls-4" d="M93.94,197.59l1,.29a4.28,4.28,0,0,0,4.21,1.76l-.12-.06c-.07,1.19.68,1.21,1.54,1.09,2.59,2.67,6.92,1.18,9.45,4-.57,1.34-1.82,1.71-3,2.26-.93.43-.36,2-.06,1.8,1.77-1,3.76-.21,5.37-.83,1-.4-.47-2-.25-3.11a5.66,5.66,0,0,1,4,1.89c-.77.6-1.09,1.65-.37,2.11,4.6,2.94,4.18,9,7.77,12.53.61.6,2.36,2.61-.44,3.37l-1,0a7,7,0,0,0-2.78-4.56c-1-.91-2.88-.77-2.94-2.85-.13-5.27-4.9-5.22-8.13-6.14-1.48-.42-5.42-.4-5.16,3.6a5.11,5.11,0,0,1-1,.06c-1.32-.61,0-2.48-1.25-2.93-5.71-2.12-7.3-7.5-9.82-12.16l1-1.88Z"/><path class="cls-5" d="M91.94,197.77l-1,1.88c-4.1,0-5.17,2.48-5,6a5.9,5.9,0,0,0-.28,5.69,15.19,15.19,0,0,1,1.3,7.27c-1.13.35-2.53,1.79-2.94-.74,1.22-1.52.63-3,0-4.58-2.15-6-1.51-11.35,3.93-15.45l1-.29Z"/><path class="cls-12" d="M91.94,197.77l-3-.2a3.55,3.55,0,0,1,5,0Z"/><path class="cls-4" d="M104.84,35.75a6.21,6.21,0,0,0-3.8,1c-1.46-1.74-1.78-3.22.92-4,3.75-1.35,4.69-4.79,6-8,2.63-3.18,2.86-5.85-.9-8.64-2.12-1.56-4.67-3.24-5.08-6.37l5.13-1.09c4.11,3.44,7.26,7.3,5.89,13.19-.22,2.42-2.35,4.27-2.06,6.85C107.78,30.09,107.05,33.55,104.84,35.75Z"/><path class="cls-3" d="M110.91,28.69c-.29-2.58,1.84-4.43,2.06-6.85l3,0,1.11,5-.2,2C114.85,29.2,112.86,30.26,110.91,28.69Z"/><path class="cls-10" d="M116.83,28.77c.06-.66.13-1.32.2-2,3-.32,6.74.79,7-4.13,2.35.16,4.86-.49,7.09,1.38-1.49,1.51-4.72.55-5,3.52Z"/><path class="cls-4" d="M124,22.66c-.22,4.92-4,3.81-7,4.13l-1.11-5C118.65,21.71,121.4,21.46,124,22.66Z"/><path class="cls-6" d="M166,51.73c0,.69-.05,1.38-.07,2.08-5.41,1.85-10.86,3.58-16.71,3.12l-5.38-.31a2.46,2.46,0,0,0-3.88.05l-4.07-.07,0-3.84c5.57-2.63,11.59-4,17.21-6.63,3.58-1.66,6.71,2.47,9.83,4.4.65.4,1.16,1.06,2,1.18Z"/><path class="cls-5" d="M135.93,52.76c0,1.28,0,2.56,0,3.84-2.65.46-5.49-.7-8,.93a47.4,47.4,0,0,0-14.14,5.77l-1.26,1.22-.29.07h-.3c-.2-1.37-1.08-1.75-2.36-1.88-3.55-.36-5.45-2.36-5.61-6a73.9,73.9,0,0,1,16-2C125.43,55.24,130.49,52.47,135.93,52.76Z"/><path class="cls-10" d="M127.9,57.53c2.52-1.63,5.36-.47,8-.93l4.07.07,3.88-.05,5.38.31C142.18,58.74,135,57.49,127.9,57.53Z"/><path class="cls-9" d="M112.5,64.52l1.26-1.22A1.33,1.33,0,0,1,112.5,64.52Z"/><path class="cls-5" d="M99.1,199.64c1.55-1.4-.48-2.63-.19-4,.81-.32,2.92.48,1.88-1.51-1.47-2.81-.51-5.7-.93-8.51,2.28,2,6.52,1,7.63,5.07.25.9,1.33-.13,1.84-.73s1.27-1.28,2.12-.87c3,1.44,4.89,4.27,7.64,6.12,2.24,1.52-1.15,2.4-1.56,3.77-.22.74.24,1.17.54,1.76,2.54,4.85,7,6.55,12.25,4.73,4.9-1.71,9.7.7,14.58.58,1,0,.95,1.54,1,2.52l0,0c-1.32.22-2.61-1.62-3.95-.06H134c-1.17,2.34,2.47,1.92,1,3.58-.84,1-2.18.36-3.27-.09-5.16-2.14-10.16-4.77-15.84-5.42a5.66,5.66,0,0,0-4-1.89l-2-.12c-2.53-2.79-6.86-1.3-9.45-4-.38-.55-.27-1.79-1.54-1.09Zm7.76-4.92c0-.92-.29-1.78-1.38-1.51s-1.42,1.31-1.42,2.37c0,.91.3,1.78,1.39,1.51S106.85,195.78,106.86,194.72Zm5.93,7.59a4.74,4.74,0,0,0,1.39.26c.72-.12,2-.38.95-1.33C114.43,200.58,113.38,201.28,112.79,202.31Z"/><path class="cls-8" d="M116,206.65c5.68.65,10.68,3.28,15.84,5.42,1.09.45,2.43,1.06,3.27.09,1.43-1.66-2.21-1.24-1-3.58h7.89c-.56,1.07-4.14,1.58-.5,3.44,1.7.87,2.28,2.77,2.49,4.66-6.43-1.38-12.82-3.08-20.68-3.42,2.53,2,2,4.83,4.71,5.36,1.16,2.52-3.85,4.54-.79,7,2.24,1.78,3.66,4.71,7,5.13,2.25.29,1.25,1.75.8,2.93-1.06-.37-2.13-1.35-3.15.07l-3.83-.09c.58-4.25-4.76-5.18-5-9,2.8-.76,1-2.77.44-3.37-3.59-3.58-3.17-9.59-7.77-12.53C114.88,208.3,115.2,207.25,116,206.65Z"/><path class="cls-5" d="M128,218.61c-2.67-.53-2.18-3.35-4.71-5.36,7.86.34,14.25,2,20.68,3.42h0c.33.67.67,1.33,1,2-.43,1-1.31,2.21-.17,3.16,3.1,2.61,1.31,3.85-1.94,4.73l5.09,4.09c0,.67,0,1.33,0,2-.5,0-1.18.12-1.46-.14-4.67-4.36-10.5-7.31-14.63-12.34C131,219.13,130.14,216.82,128,218.61Z"/><path class="cls-4" d="M167,244.63c-.16,1.5.06,3.9-2.31,1.38a26.75,26.75,0,0,1-2.75-4.38c-1.24-3.25-2.63-6.44-3-9.94l.09-1.12A42.65,42.65,0,0,1,167,244.63Z"/><path class="cls-4" d="M153.15,207.58c1.46.13,3,.08,3.31,1.64-.21,2.79-4.45-1.92-3.54,2.45-2.68-.23-5.68.26-7-3l0,0C148.34,208.37,151,209.48,153.15,207.58Z"/><path class="cls-8" d="M144.92,218.66c-.33-.67-.67-1.33-1-2,3.86-.26,5.13,3.07,8.37,5.8C148.11,222.69,147.14,219.47,144.92,218.66Z"/><path class="cls-8" d="M158.94,230.57l-.09,1.12c-2.57-.76-3.15-2.87-4.64-6.09C157.27,227.24,158.71,228.36,158.94,230.57Z"/><path class="cls-8" d="M152.67,224.25l.12-.34a1.25,1.25,0,0,1,.37.15s-.07.22-.11.33Z"/><path class="cls-10" d="M58.27,192c-1.89,2.72-1.74,6.12-1.87,9-.49,11.65-3.61,22.91-4.54,34.47-1.25,1.94-.77,4.16-1,6.26-.43,3.56,1.23,7.24-.65,10.71-1.59,1.12-1.15,2.86-1.35,4.41-1.6,3.78-1.82,7.77-1.85,11.78.21,1.75-.65,3.73,1.16,5.11-.85,5.54-4.8,10.13-4.9,15.9.69,4-.71,7.9-.58,11.88l-.45,3.05c-.27,4.83-.63,9.72-2.23,14.25a9.63,9.63,0,0,0-.14,6.54c-.3,1.26-.67,2.51-.9,3.79-1.13,6.12-.89,12.47-3,18.44l-2-3.06-.12-1.95c.45-14.11,4.08-27.89,4.33-42,2.71-20.23,6.22-40.36,8-60.7,2.36-8.23,2.93-16.74,4-25.17,2.76-7.47,2.39-15.6,4.86-23.13,2.08.12,1.35-2.29,2.65-3Z"/><path class="cls-10" d="M57.13,176.78c-.14-1.13-.29-2.28.8-3.09A3.55,3.55,0,0,1,57.13,176.78Z"/><path class="cls-6" d="M153.15,207.58c-2.19,1.9-4.81.79-7.24,1-.06-1,0-2.55-1-2.52-4.88.12-9.68-2.29-14.58-.58-5.26,1.82-9.71.12-12.25-4.73-.3-.59-.76-1-.54-1.76.41-1.37,3.8-2.25,1.56-3.77-2.75-1.85-4.66-4.68-7.64-6.12-.85-.41-1.56.21-2.12.87s-1.59,1.63-1.84.73c-1.11-4.06-5.35-3-7.63-5.07-2.85-4.7-2.12-6.35,3.2-6.4,1.74,0,2.35-1.8,3.92-1.62,1,.61,1.93,1.66,3,1.76,10.77,1,18.7,8.29,28.26,12.07-.35.57-.43.93-.65,1-1.74.88-4.87-1.2-5.37,2-.41,2.65,2,3.84,4,5.11a45,45,0,0,0,16.68,6Z"/><path class="cls-7" d="M121.88,127.62a2.58,2.58,0,0,1-3,.87A3.08,3.08,0,0,1,121.88,127.62Z"/><path class="cls-7" d="M123.29,127l-1.39.58Z"/><path class="cls-6" d="M128,218.61c2.19-1.79,3,.52,3.87,1.55,4.13,5,10,8,14.63,12.34.28.26,1,.1,1.46.14,1.79,1.76,2.83,4,4.16,6.1.74,1.17,0,4.41,3.7,2.74,1.43-.64,1.16,1.93.16,3.16a23.62,23.62,0,0,1-11-4c-1.28-5.27-7.21-3.88-10-7,.45-1.18,1.45-2.64-.8-2.93-3.32-.42-4.74-3.35-7-5.13C124.1,223.15,129.11,221.13,128,218.61Z"/><path class="cls-4" d="M145,240.61a23.62,23.62,0,0,0,11,4c1.95,2.23,7,.09,7,5-8.05-3.92-16.64-3.37-25.21-3.1.26-2,2.31-1.91,3.43-2.9C142.91,243.22,144.66,242.8,145,240.61Z"/><path class="cls-4" d="M167,250.67c0,.66-.05,1.32-.07,2-2,0-2.28-1.76-3.14-2.94C165.31,248.51,166.1,249.77,167,250.67Z"/><path class="cls-15" d="M171,251.65a4.78,4.78,0,0,1,.08.75c0,.06-.28.1-.44.14Z"/><path class="cls-10" d="M170.89,229.64a5.19,5.19,0,0,1,.23.62c0,.1-.05.22-.07.34a7.5,7.5,0,0,1-.49-.66S170.78,229.74,170.89,229.64Z"/><path class="cls-3" d="M68,119.68l-.16.36.18-.34Z"/><path class="cls-8" d="M80,75.78c0,2.54-.91,4.11-3.75,3.8l-1.38-2.76A7.51,7.51,0,0,1,80,75.78Z"/><path class="cls-4" d="M25.67,379.69a1.7,1.7,0,0,0,.53.24c2.71,1,.92,4.24,2.78,5.68-.47,2.36-1.78,4.74.13,7.06-.66,3.65-.54,7.44-2,10.93-2.4-1.31.55-5.23-2.94-6C22.9,391.47,25.4,385.68,25.67,379.69Z"/><path class="cls-10" d="M29.11,392.67c-1.91-2.32-.6-4.7-.13-7.06,0-1.33.07-2.66.1-4,2-.47,2.44-1.44,1-3,0-.63.07-1.27.1-1.9l2.85.94.81,1c-.06,1-.13,1.94-.19,2.92a3.34,3.34,0,0,0-.59,3.17c-.11,1.27-.23,2.53-.35,3.8-.12.48-.25,1-.38,1.44-.07.9-.14,1.79-.2,2.68Z"/><path class="cls-9" d="M30.87,416.48l-.42,1.11Z"/><path class="cls-7" d="M16.77,406.46c1.69,4.61.78,9.45,1.27,14.17.27,2.69-.1,5.56,1.9,7.83-.35,4.22-1.77,8.12-3.2,13.3-1.49-4.92,0-8.81-1.63-12.33C15.44,421.76,14.08,414,16.77,406.46Z"/><path class="cls-9" d="M13.3,394.59l.73,1.78C13,396.09,13,395.4,13.3,394.59Z"/><path class="cls-1" d="M44.18,470.56c-.06.68-.13,1.35-.19,2-.51-.3-1.4-.55-1.45-.91C42.41,470.56,43.44,470.68,44.18,470.56Z"/><path class="cls-1" d="M58,431.53l-2,.05c0-1,0-2,0-3,1.46-3.36-.86-5.12-3-7,.69-1.75,2.57-3.6-.45-5q-1.84-6.88-3.7-13.77l0-3.2c.47.13,1.15.11,1.38.42,1.19,1.63,1.73,4.34,4.61,3.32s2.64-3.86,3.09-6.19a4.46,4.46,0,0,0-1-3.21c-1.43-2.29-1.31-3.81,1.83-4.57,2.09-.5,4.65-1,5.24-3.79,3.08-.47,6,.72,9,1,.49,2.06,1.44,2.56,3,.91,3.71.41,6.25,3.65,9.93,4.11,0,.31,0,.63,0,.94,1.92,2.81,5,3.33,8,4l1,1c.55,4.19,3.14,7.44,5.06,11l0,2c-1.52,2.13-4,3.41-5,6-2.4,1.38-2.75,4.09-4,6.19-5.68,0-11.32,1.41-17.07-.41-4.07-1.3-7.78,0-9.9,4.21a5.79,5.79,0,0,0-.82.12c-2.37,1-4.8,1.85-5.16,4.91Z"/><path class="cls-6" d="M44.81,414.63l-3.63,15.85-2.5,1.59c.34-6.1,2.89-11.66,4.33-17.5Z"/><path class="cls-4" d="M64.05,441.61c2-2,4.06-1.28,5.59.32,3,3.14,6.43,6.06,7.88,10.41A6.62,6.62,0,0,1,72,448.61c-2-4.26-5.28-4.35-9-4.07C63.35,443.56,63.7,442.58,64.05,441.61Z"/><path class="cls-10" d="M42.42,457.48c-.08-.11-.23-.24-.21-.34s.19-.18.29-.27c.08.12.23.24.22.34S42.53,457.39,42.42,457.48Z"/><path class="cls-10" d="M40.57,459.12l1.1-.49c-.12.41-.25.81-.37,1.22Z"/><path class="cls-8" d="M58,431.55c.36-3.06,2.79-3.95,5.16-4.91-.73,1.75-.38,4.05-2.57,5.06Z"/><path class="cls-5" d="M56,431.56l-1,1.05Z"/><path class="cls-4" d="M60.09,7.81c.17,2.47-.7,3.4-3.08,2.08C57.07,7.77,58.51,7.68,60.09,7.81Z"/><path class="cls-3" d="M102,32.73c-2.7.79-2.38,2.27-.92,4-2.24,6.62-6.85,11.91-10,18-2.66-2-4-4.24-1.93-7.52,1-1.64,1-3.11-.56-4.85a6.54,6.54,0,0,1,1.15-10c2.87-2.07,3.62-4.43,2.22-7.59A2,2,0,0,0,94,22.71C97.86,25.09,98.81,29.79,102,32.73Z"/><path class="cls-2" d="M102,32.73c-3.15-2.94-4.1-7.64-8-10a5,5,0,0,0-3.11-4c0-2.74-2.7-4.32-3-6.93.39-.3.75-.78,1.18-.85,2.61-.43,16,7.89,16.79,10.43a18.1,18.1,0,0,1,.25,2c.2,1,1,1.24,1.82,1.41C106.65,27.94,105.71,31.38,102,32.73Z"/><path class="cls-3" d="M107.93,24.75c-.83-.17-1.62-.45-1.82-1.41a18.1,18.1,0,0,0-.25-2C105.05,18.84,91.68,10.52,89.07,11c-.43.07-.79.55-1.18.85a7.25,7.25,0,0,1-3-3L86,4.81c1.07,0,2.19-.11,2.94.92,2.85,2.64,5.74,5.1,10,2.9l3,1.11c.41,3.13,3,4.81,5.08,6.37C110.79,18.9,110.56,21.57,107.93,24.75Z"/><path class="cls-4" d="M99,8.63c-4.25,2.2-7.14-.26-10-2.9C92.31,6.66,96.34,5.23,99,8.63Z"/><path class="cls-4" d="M86,4.81l-1.11,4C82,6.5,83,5.38,86,4.81Z"/><path class="cls-8" d="M62.41,16.65H60.64C61.22,15.86,61.82,15.93,62.41,16.65Z"/><path class="cls-8" d="M61.93,18.71c-.09,2-1.5,2-3,2C59.11,18.81,60.49,18.72,61.93,18.71Z"/><path class="cls-4" d="M27.89,270.55l.09-3.89c3.19-.16,4.27,2.55,6.54,4.75Z"/><path class="cls-8" d="M149.94,430.56c0-1.32,0-2.64-.05-4l-.93-6a2.35,2.35,0,0,1,1.9,1.34c3,6,4.75,6.87,11.65,6.25,2.3-.21,2.59,1.17,1.64,2.75a28.23,28.23,0,0,1-3.19,3.68c-1.37-1.19-1.88-4.69-4.07-3.29-2.42,1.55-.32,4.39.81,6.07s2.62,2.91,2.2,5.15l-2,1c-2.34-.32-6.4.79-3.24-4a1.79,1.79,0,0,0-.62-2.24C151.83,435.5,151.56,432.62,149.94,430.56Z"/><path class="cls-10" d="M157.87,443.52l2-1c1.73.17,3.22-.16,4-1.92,2,.32,3.9,1.35,6,.87,2.44.32,3.1,1.92,2.95,4.1a2.92,2.92,0,0,0-3,2.92,2.16,2.16,0,0,0-2.14,1.93l-2.75,0c0-.31,0-.63,0-.94-.19-1.93-1.34-2.74-3.19-3S158.26,445.71,157.87,443.52Z"/><path class="cls-4" d="M149,420.55l.93,6c-3-1-4.17-5.12-6.71-5.49-7.47-1.08-7-5.29-5.25-10.51l1,0a12.41,12.41,0,0,0,6,5l0,0a1.82,1.82,0,0,0,2,2l0,0c0,1.46,0,2.85,2,3Z"/><path class="cls-4" d="M163.94,440.58c-.82,1.76-2.31,2.09-4,1.92.42-2.24-1.09-3.49-2.2-5.15s-3.23-4.52-.81-6.07c2.19-1.4,2.7,2.1,4.07,3.29.12,1.93,1.54,2,2.95,2Z"/><path class="cls-8" d="M163.94,440.58l0-4c5.67-1.43,5.82-1.31,6.05,4.87C167.84,441.93,165.94,440.9,163.94,440.58Z"/><path class="cls-8" d="M145,415.53a12.41,12.41,0,0,1-6-5C143.86,408.69,143.79,412.85,145,415.53Z"/><path class="cls-4" d="M169.88,448.47a2.92,2.92,0,0,1,3-2.92c.85.48,2.07,1.12,1.44,2.11C173.3,449.31,171.42,448.35,169.88,448.47Z"/><path class="cls-8" d="M130.87,398.23l2.72-.45c.11,1.61.21,3.22.32,4.83l-2.91-.15C131,401.05,130.91,399.64,130.87,398.23Z"/><path class="cls-8" d="M148.94,420.53c-2-.12-2-1.51-2-3C148.87,417.71,149,419.09,148.94,420.53Z"/><path class="cls-8" d="M146.94,417.54a1.82,1.82,0,0,1-2-2A1.9,1.9,0,0,1,146.94,417.54Z"/><path class="cls-4" d="M14.66,334.73a2.3,2.3,0,0,1-.6,2.85C14.11,336.6,13.83,335.55,14.66,334.73Z"/><path class="cls-4" d="M157.87,443.52c.39,2.19,2.1,2.74,3.9,3s3,1.06,3.19,3c-3,.82-6.57.3-8.05,4L154,454.63c-6.12.51-9.93,5.36-15,7.92-2.07-1.46-4.45-.1-6.73-.85-2.84-.94-2.81-2.43-1-3.8,5-3.84,10-8.34,17.08-6.64,3.81.92,4.73-2.38,5.79-4.11,1.5-2.44-1.77-2.4-3.19-3.07-2.11-1-3.37-2.2-2.13-4.59,1.48-2.85-.41-6.11,1.15-8.93,1.62,2.06,1.89,4.94,4.07,6.69a1.79,1.79,0,0,1,.62,2.24C151.47,444.31,155.53,443.2,157.87,443.52Z"/><path class="cls-4" d="M130.87,398.23c0,1.41.09,2.82.13,4.23a9.58,9.58,0,0,0-6.47,11.3c1.72,6.79.19,13.27-1.6,19.76-1,.71-1.39,2.2-2.94,2.12a14,14,0,0,1,.81-5.24c.51-1.89,2.25-3.85.14-5.84,0-.65,0-1.3.08-2,3-1.92,3.23-4-.43-4.89-2.47-.64-2.77-2-2.63-3.88a19.07,19.07,0,0,0-1.09-7.27c.78-1.59,2.25-3,1.06-5C121.85,398.88,126.38,398.65,130.87,398.23Z"/><path class="cls-4" d="M127.94,446.54c.66-2.12,1.44-4.56,3-.56.86,2.16,2.9,1,4.61,2.48-4.8,3.13-6.73,10.51-14.61,8.11C122.9,453,126.66,450.61,127.94,446.54Z"/><path class="cls-7" d="M120,435.64c1.55.08,2-1.41,2.94-2.12,2.32-.22,4.22.14,4.2,3.1l-1.17,2c-1.26.07-1.95.68-1.87,2l-.08.09c-3.24,2.47-3.07,5.56-1.63,8.88-1,2.44-4.1,2-5.41,4-2.46-.82-1.08-2.61-1-4.07,4.43-2.73,4.55-6.64,3-11C119.1,437.51,118.88,436.33,120,435.64Z"/><path class="cls-4" d="M126,438.6l1.17-2c2.24-.19,2.8-2.07,3.62-3.65,1.55-3,3.89-4.76,8.37-5-4.66,5.28-7.62,11-12.77,14.89-2,1.5-2.27-.63-2.34-2.16l.08-.09A1.89,1.89,0,0,0,126,438.6Z"/><path class="cls-8" d="M117,453.62c1.31-2,4.42-1.6,5.41-4,2.28-.22,3.14-3.05,5.56-3-1.28,4.07-5,6.41-7,10l-1,1C116.86,457.79,116.87,455.74,117,453.62Z"/><path class="cls-6" d="M29.08,381.62c0,1.33-.07,2.66-.1,4-1.86-1.44-.07-4.66-2.78-5.68.07-2,.14-4.05.22-6.08,1-1.67.47-3.47.43-5.24.25-2,.51-4.05.76-6.08l.21-1.91,1.41-8.05,2.9-.08.09.06c-.07,4.14-.22,8.28-.19,12.42,0,1.69-.79,3.79,1.62,4.7l-.17,1.76c-3.11.49-3.51,2.68-3.29,5.26,0,.63-.07,1.27-.1,1.9C28.85,379.3,29,380.46,29.08,381.62Z"/><path class="cls-6" d="M31.22,335.64c1,1.07,1,2.06-.24,3Z"/><path class="cls-4" d="M34,344.56c.65,1,1.3,2,2,3.06-.06.65-.11,1.29-.16,1.94l-2.73.05c0-1.66,0-3.32,0-5Z"/><path class="cls-10" d="M33.06,349.61l2.73-.05c-.08,1-.15,2.06-.22,3.09l-3.35-.1-.09-.06C32.1,351.42,32,350.34,33.06,349.61Z"/><path class="cls-6" d="M34,344.56l-1,.06.85-2Z"/><path class="cls-6" d="M156.91,453.52c1.48-3.74,5.1-3.22,8.05-4,0,.31,0,.63,0,.94C162.53,452,160.16,453.92,156.91,453.52Z"/><path class="cls-1" d="M121,422.6c0,.66,0,1.31-.08,2-4.37,4.82-3,11.66-6,17h0a1.91,1.91,0,0,0-2,2l-2,2a1.94,1.94,0,0,1-2-2l1-10a108,108,0,0,1,5.61-9.77C116.71,422.15,118.29,418.63,121,422.6Z"/><path class="cls-10" d="M118.94,438.55c1.54,4.36,1.42,8.27-3,11-2.7-1.29-1.88-3.73-1.92-5.89.3-.71.61-1.41.92-2.12h0Z"/><path class="cls-6" d="M108.9,443.55a1.94,1.94,0,0,0,2,2c.23,1.7-.56,3.6,1,5,0,.66,0,1.33,0,2h0a2.12,2.12,0,0,0-2,1h-2c-1.22-1.91-5.62.11-5-4.06h0c1.7.06,3.25-.19,4-2l.18-2Z"/><path class="cls-8" d="M112,452.57c0-.67,0-1.34,0-2,.7.14,1.66.14,1.45,1.17C113.32,452.1,112.47,452.3,112,452.57Z"/><path class="cls-8" d="M110,453.6a2.12,2.12,0,0,1,2-1C111.74,453.79,111.49,455,110,453.6Z"/><path class="cls-6" d="M114.93,441.54c-.31.71-.62,1.41-.92,2.12l-1.08-.13A1.91,1.91,0,0,1,114.93,441.54Z"/><path class="cls-10" d="M107.11,445.54l-.18,2c-1.64.06-3.2.28-4,2h0l-2.3.88c.32-2.24-1.45-3.68-2.1-5.55,1.62-.67,3.2-1.42,4.85-2C105.86,442,107,443.06,107.11,445.54Z"/><path class="cls-3" d="M127.94,264.63c0,1,0,2,0,3-4,4.56-9,8.61-7,15.84,1,3.77-3.06,1.59-3.88,3.24l-2.11.84c0-1.12.14-2.31-1.09-3,1.1-1.82.42-3.48-.48-5.12-3.6-6.48-3.62-13.7-4.3-20.79l2.92,1,2,0a3.12,3.12,0,0,0,1.82,3.06A16.36,16.36,0,0,0,127.94,264.63Z"/><path class="cls-5" d="M130,274.11c2.32,2.71,7.7,2.17,8.48,7.46.3,2,.22,4.23,1.72,6.08,1.37,1.69.07,2.89-1.28,4.11s-2.92,2.2-4.23.64a132.23,132.23,0,0,1-9.2-12C124.42,278.67,127.82,274,130,274.11Z"/><path class="cls-3" d="M145.93,306.62c0,.31,0,.63,0,.94l-1.6-.73Z"/><path class="cls-5" d="M104.38,304.42a84.55,84.55,0,0,0-8.24,15.05,36.33,36.33,0,0,0-4.54,10.62L90,332.57a7.61,7.61,0,0,0-1.24,4.54,10.22,10.22,0,0,0-2.75,6.5c-2,5.24-8.68,22.23-10.43,27.54-.66,2-1.83,3-3.51,2.43-2-.73-.59-2.42-.19-3.64,1.47-4.51,7.59-20.8,9.12-25.3,1.66-3.66,5.5-7.46-1.26-10.76,4.48.52,7-1,7.85-5q2.28-5.13,4.58-10.25l8.93-16c4.44-5.89,7.81-12.53,12.75-18.07,1.23.68,1.06,1.87,1.09,3l-7.44,11.92a8.47,8.47,0,0,0-2.53,4.14Z"/><path class="cls-13" d="M121.25,333c3.6-1.68,6.24,2.42,9.7,1.61a2.13,2.13,0,0,1,1,2C128.12,336.16,124.27,335.77,121.25,333Z"/><path class="cls-12" d="M110,301.61l.37.21-.37-.21Z"/><path class="cls-8" d="M135.87,357.16c-4.29-.56-6.78-4.61-10.85-5.61-1.39-2.33-3.25-1.67-5.14-.8-.81-2.14-4.52-2.31-3.74-5.52a7.51,7.51,0,0,0,1.48.15c2.42-.25,4.61-3.2,7.27-.76C129,348.4,135.29,350.29,135.87,357.16Z"/><path class="cls-6" d="M111.86,343.36c-2.21,1.05-4.71,1.74-5.66,4.42l-2-.38c2.09-3.39-.12-5.85-1.84-8.41C106.69,337.9,108.9,341.45,111.86,343.36Z"/><path class="cls-6" d="M99.87,337l-1.76-.83c-.11-.92-.22-1.84-.32-2.75,1.94-3,5.84-.8,8.06-3.06l3,.75c.71,1.73.23,2.27-1.7,2.79C104.64,334.53,101.55,334.22,99.87,337Z"/><path class="cls-10" d="M143,369.35a9.62,9.62,0,0,1-3.47,9.08,2.08,2.08,0,0,1-1.69.53,1.72,1.72,0,0,1-.74-1.56C138.35,374.38,139.15,371,143,369.35Z"/><path class="cls-4" d="M133.94,381.58l1.3,0a6.12,6.12,0,0,1,1.45,5.06C134.21,385.79,134.05,383.7,133.94,381.58Z"/><path class="cls-10" d="M303.61,354.59c-1.16-.17-2.25-.48-2.31-1.93,0-.22.35-.67.52-.66a2.89,2.89,0,0,1,3.1,2.43Z"/><path class="cls-7" d="M303.61,354.59l1.31-.16c0,.72,0,1.43,0,2.15h-1.11Z"/><path class="cls-4" d="M136.88,256.52a21,21,0,0,0,6.05,4.11c0,1,.1,2,.14,3l-1.13,1c-1.71.08-2.64-1.4-4-2-1.09-1.16-1.5-3.68-4-2h-3c-.32-2.69-3.61-3-4.51-5.14,1.46-1.81,3.52.53,4.71-1.24C133,255.16,133.09,260.54,136.88,256.52Z"/><path class="cls-6" d="M146.91,261.66c5.91,1.48,11.75,3.07,15,8.95-6.21.86-9.3-5.1-14.41-6.69C147.14,263.79,147.11,262.44,146.91,261.66Z"/><path class="cls-8" d="M141.94,264.62l1.13-1c4,1.7,5.13,5.62,6.89,9C146.22,271,144.26,267.65,141.94,264.62Z"/><path class="cls-8" d="M131.14,254.26c-1.19,1.77-3.25-.57-4.71,1.24.9,2.11,4.19,2.45,4.51,5.14v2c-1.45,0-2.84.05-3,2h0a16.36,16.36,0,0,1-12.18-1.93,3.12,3.12,0,0,1-1.82-3.06,9.38,9.38,0,0,0,2.27.89c1.25.15,2.85,1.86,3.7-.5.58-1.63,1.84-3.41.23-5a4.26,4.26,0,0,0-5-1.05,5.76,5.76,0,0,0-3.16,5.66l-2.92-1c.07-1-.19-2.14.25-2.88C114.4,247.3,124.31,246.65,131.14,254.26Z"/><path class="cls-8" d="M133.94,260.65c2.5-1.72,2.91.8,4,2-.17.82-.32,1.84-1.36,1.76C134.32,264.2,135,261.78,133.94,260.65Z"/><path class="cls-3" d="M128,264.63c.15-1.94,1.54-2,3-2C130.78,264.57,129.39,264.64,128,264.63Z"/><path class="cls-7" d="M92.67,368.74c0,.33-.13.49-.46.46a3.75,3.75,0,0,0-3.68,2.37c-.67.16-1.36.27-1.56,1.09l.07,0c-2.35-2.84-2.12-5.66,1.21-7.05,3.88-1.62,6.77-4.28,9.74-7l0-.08c.44.84-.45,2.63,1.31,2.42,1.25-.15,1.77-1.24.65-2.41l0,0,1.26.81c.9.84,1.84.39,2.78.08l1.37-.65a.71.71,0,0,0,.61-.17l2,0a2.31,2.31,0,0,0,1.2,2.22c-.91,1-1.85,1.87-3.34,1.71-.45-.69-.66-.29-.86.19l.07-.05c-.92-.07-1.77,0-2,1.11l.08-.05C99.09,364.32,95.89,366.55,92.67,368.74Z"/><path class="cls-8" d="M86,392.56c0-.31,0-.63,0-.94-1.8-3.2-2.61-6.5-1-10l.27-.19c2.55,2,6.82-.58,8.71,3.23-3.06.11-4.06,1.54-3,4.48a7.43,7.43,0,0,1,.06,2.41A7.85,7.85,0,0,1,86,392.56Z"/><path class="cls-4" d="M91,391.51a7.38,7.38,0,0,0-.06-2.4c-1-2.94,0-4.37,3-4.48,1.59.39,1.93,3,4.12,2.34a18.2,18.2,0,0,1,1.06,6.58c-2.07,1.68-3.55-.06-5.2-.88Z"/><path class="cls-8" d="M88.53,371.57a3.75,3.75,0,0,1,3.68-2.37,54.11,54.11,0,0,1-7,12.2l-.27.19-1.67-.31c.82-3.08,3.87-5.18,3.76-8.65l-.07,0C87.93,372.93,88.13,372.11,88.53,371.57Z"/><path class="cls-8" d="M92.67,368.74c3.22-2.19,6.42-4.42,10.4-5.06C100.67,367.55,96.87,368.56,92.67,368.74Z"/><path class="cls-10" d="M114.77,357.25a.69.69,0,0,0-.57.31l-5,3.21a2.31,2.31,0,0,1-1.2-2.22l3.22-1.85A4,4,0,0,1,114.77,357.25Z"/><path class="cls-8" d="M103,363.73c.27-1.13,1.12-1.18,2-1.11C104.52,363.3,104.32,364.55,103,363.73Z"/><path class="cls-8" d="M105,362.67c.2-.48.41-.88.86-.19A5.08,5.08,0,0,1,105,362.67Z"/><path class="cls-5" d="M117.93,401.53c1.19,2-.28,3.44-1.06,5-3.71,1.87-3.47,5.76-4,8.9-.53,3.4-1.25,6.34-3.86,8.67-1.6-1.22.85-3.08-1.16-4.13-2,1.43-4.05,3.06-6.25,4.39-2.49,1.51-2.32,4.42-3.78,7.34-1.23-2.63-.57-4.44-.45-6.35.19-3.13.34-6.47-2.48-8.85,1-2.56,3.52-3.84,5-6,1.45,0,2.83-.07,3-2h0a3.08,3.08,0,0,0,2.9-1.64Z"/><path class="cls-6" d="M105.85,406.93a3.08,3.08,0,0,1-2.9,1.64c-1.4-4.59-3.81-8.43-8-11l-1-1,0-3.91c1.65.82,3.13,2.56,5.2.88h.73l1.41,1.17c.37.77.73,1.55,1.09,2.33-.66,2.45-.21,4.45,2.31,5.6Z"/><path class="cls-10" d="M104.65,402.65c-2.52-1.15-3-3.15-2.31-5.6A7.57,7.57,0,0,1,104.65,402.65Z"/><path class="cls-10" d="M101.25,394.72l-1.41-1.17a2.18,2.18,0,0,1,2-1Z"/><path class="cls-2" d="M92.91,60.74a2,2,0,0,1,1.09-2A2.16,2.16,0,0,1,92.91,60.74Z"/><path class="cls-5" d="M73.14,236c-1.41,4-4.43,7.18-5.34,11.39h.06l-.78,1.2-.26.09V249l-1.21,2q-2.91,5.11-5.8,10.24L53,272.66c-1.46-3.5.59-6.67,1-10,5.21-8.5,10.45-17,15.61-25.52a7.14,7.14,0,0,1,2-2.69Z"/><path class="cls-9" d="M54,262.67c-.4,3.32-2.45,6.49-1,10q-1,3-2,5.94c-3.6,1.92-3.94,5.64-5,9l0,.37-2.72,1.72c.1-5.77,4-10.36,4.9-15.9,2.09-7,4.6-13.89,2-21.3,1.88-3.47.22-7.15.65-10.71.25-2.1-.23-4.32,1-6.26C51,244.68,53.92,253.56,54,262.67Z"/><path class="cls-6" d="M73.14,236l-1.53-1.56A84.45,84.45,0,0,1,84,217.89c.41,2.53,1.81,1.09,2.94.74l1,1-.08,2.13c-2.59-.72-3.91.86-5,2.79A36.66,36.66,0,0,1,73.14,236Z"/><path class="cls-1" d="M88,219.62l-1-1a15.19,15.19,0,0,0-1.3-7.27,5.9,5.9,0,0,1,.28-5.69c2.22.93,2,3.25,2.86,5,2.84,6,9,7.91,13.17,4.09a5.11,5.11,0,0,0,1-.06l3,2c2.09,2.6,5.45,4.25,6,8,.69,3-2.1,7.38,3.08,8.47,4.67,1,5.5,3.85,4.83,7.87l-1.92-.31c-.7-2.65-2.19-2.43-4-1.08l-2-.65c-2.08-2.93-4.72-4.58-8.46-3.7l-.16-.1c.67-3.38-1.93-2.17-3.46-2.47h0c-.47-2.39-1.47-4.14-4.37-3.55l-.06-.07a.84.84,0,0,0-.94-1h0c.47-2.38-1.13-2.34-2.71-2.31l0,0C92.29,222.64,91.91,220,88,219.62Z"/><path class="cls-6" d="M102,214.74c-4.16,3.82-10.33,1.88-13.17-4.09-.83-1.73-.64-4.05-2.86-5-.21-3.54.86-6,5-6,2.52,4.66,4.11,10,9.82,12.16C102,212.26,100.67,214.13,102,214.74Z"/><path class="cls-8" d="M106,216.64l-3-2c-.26-4,3.68-4,5.16-3.6,3.23.92,8,.87,8.13,6.14.06,2.08,1.92,1.94,2.94,2.85a7,7,0,0,1,2.78,4.56c-2.58-.39-4.21-2.46-6.37-3.58C112.46,219.42,110.1,216.07,106,216.64Z"/><path class="cls-6" d="M106,216.64c4.13-.57,6.49,2.78,9.62,4.41,2.16,1.12,3.79,3.19,6.37,3.58l1,0c.27,3.78,5.61,4.71,5,9-.74-.29-1.8-.36-2.16-.91-3.29-5-8.36-6.87-13.85-8.07C111.42,220.89,108.06,219.24,106,216.64Z"/><path class="cls-8" d="M110,204.64l2,.12c-.22,1.12,1.27,2.71.25,3.11-1.61.62-3.6-.18-5.37.83-.3.17-.87-1.37.06-1.8C108.15,206.35,109.4,206,110,204.64Z"/><path class="cls-12" d="M99,199.58c1.27-.7,1.16.54,1.54,1.09C99.66,200.79,98.91,200.77,99,199.58Z"/><path class="cls-5" d="M143.86,56.62l-3.88.05A2.46,2.46,0,0,1,143.86,56.62Z"/><path class="cls-6" d="M106.87,194.72c0,1.06-.3,2.09-1.42,2.37s-1.38-.6-1.39-1.51c0-1.06.32-2.09,1.42-2.37S106.84,193.8,106.87,194.72Z"/><path class="cls-6" d="M112.79,202.31c.59-1,1.64-1.73,2.34-1.07,1,.95-.23,1.21-.95,1.33A4.74,4.74,0,0,1,112.79,202.31Z"/><path class="cls-5" d="M112,224.64c5.49,1.2,10.56,3.06,13.85,8.07.36.55,1.42.62,2.16.91l3.83.09a7.62,7.62,0,0,1,.14.94,1.84,1.84,0,0,0,2,1.95h0c0,1.48.56,2.55,2.14,2.85l.81,1.8-10.94,0-1.1-.67c-.69-.93-1.33-.82-1.94.08a3.84,3.84,0,0,0-.08.76l-3-.41c.67-4-.16-6.89-4.83-7.87C109.85,232,112.64,227.61,112,224.64Z"/><path class="cls-10" d="M131.93,234.65a7.62,7.62,0,0,0-.14-.94c1-1.42,2.09-.44,3.15-.07,2.81,3.09,8.74,1.7,10,7-.3,2.19-2.05,2.61-3.77,3-.81-1.87-2.84-1.62-4.26-2.41l-.81-1.8c-.15-1.37-.32-2.72-2.14-2.85h0A1.88,1.88,0,0,0,131.93,234.65Z"/><path class="cls-8" d="M50.19,252.47c2.56,7.41.05,14.33-2,21.3-1.81-1.38-.95-3.36-1.16-5.11,2-3.71,2.15-7.71,1.85-11.78C49,255.33,48.6,253.59,50.19,252.47Z"/><path class="cls-9" d="M48.84,256.88C49.14,261,49,265,47,268.66,47,264.65,47.24,260.66,48.84,256.88Z"/><path class="cls-4" d="M44.81,414.63l-1.8-.06q.6-4,1.19-8l.46-1.63c.17-.77.33-1.54.5-2.31l2-4,1.72,1,0,3.2c-3,1.41-1.64,4.54-2.62,6.76A34.35,34.35,0,0,0,44.81,414.63Z"/><path class="cls-5" d="M48.83,399.59l-1.72-1c.13-1.69.27-3.39.4-5.08.77-1.72.94-3.39-.38-4.95l-1-3.68c2.11-.8,1.78-2.64,1.84-4.3h0c4.23,3.61,9.32,4.31,14.62,4.4a4.28,4.28,0,0,1,1.37.59c-.59,2.83-3.15,3.29-5.24,3.79-3.14.76-3.26,2.28-1.83,4.57a4.46,4.46,0,0,1,1,3.21c-.45,2.33-.27,5.19-3.09,6.19s-3.42-1.69-4.61-3.32C50,399.7,49.3,399.72,48.83,399.59Z"/><path class="cls-5" d="M37.11,357.71l1-.59c.86.53,2,1.26,1.2,2.26-1.65,2-.6,3.61.19,5.44A24.45,24.45,0,0,0,49,375.63a8,8,0,0,0-1,4.95h0c-1.86.83-2.06,2.45-2,4.2-5.15-2.43-8.26-6.74-10.72-11.64A40.31,40.31,0,0,1,37.11,357.71Z"/><path class="cls-7" d="M37.11,357.71a40.31,40.31,0,0,0-1.83,15.43l-1.18.59-.62-2.3.18-1.76c1.22-3.91-1.1-8.34,1.76-12Z"/><path class="cls-4" d="M33.48,371.43l.62,2.3c-.07,1.26-.14,2.51-.22,3.77a2.42,2.42,0,0,0-.84.13l-2.85-.94C30,374.11,30.37,371.92,33.48,371.43Z"/><path class="cls-6" d="M46,384.78c-.08-1.75.12-3.37,2-4.2-.06,1.66.27,3.5-1.84,4.3Z"/><path class="cls-4" d="M47.13,388.56c1.32,1.56,1.15,3.23.38,4.95C47.38,391.86,47.26,390.21,47.13,388.56Z"/><path class="cls-7" d="M33.07,384.72a3.34,3.34,0,0,1,.59-3.17A3,3,0,0,1,33.07,384.72Z"/><path class="cls-16" d="M35,392.57l-.71-1c1.11-.29.45.67.7,1Z"/><path class="cls-7" d="M32.34,390c.13-.48.26-1,.38-1.44C32.59,389,32.47,389.48,32.34,390Z"/><path class="cls-7" d="M33,377.63a2.42,2.42,0,0,1,.84-.13l0,1.13Z"/><path class="cls-4" d="M29.08,381.62c-.1-1.16-.23-2.32,1-3C31.52,380.18,31,381.15,29.08,381.62Z"/><path class="cls-6" d="M48,380.58a8,8,0,0,1,1-4.95,25.12,25.12,0,0,1,19.53-6c2.29,2.39,4.8,1,7.78.07-.7,2.76-.27,5,2,6.31,1.93,1.1,2.25,3.12,3.09,4.86-.49,1.87-.58,4-3.66,2.89-2.13-.75-2.89.74-2.76,2.73L73,386.6c-3-.31-5.9-1.5-9-1A4.28,4.28,0,0,0,62.6,385C57.3,384.89,52.21,384.19,48,380.58Z"/><path class="cls-6" d="M94.94,416.53c2.82,2.38,2.67,5.72,2.48,8.85-.12,1.91-.78,3.72.45,6.35,1.46-2.92,1.29-5.83,3.78-7.34,2.2-1.33,4.23-3,6.25-4.39,2,1.05-.44,2.91,1.16,4.13,2.61-2.33,3.33-5.27,3.86-8.67.48-3.14.24-7,4-8.9a19.07,19.07,0,0,1,1.09,7.27c-.14,1.92.16,3.24,2.63,3.88,3.66.94,3.47,3,.43,4.89-2.73-4-4.31-.45-5.46,1.19a108,108,0,0,0-5.61,9.77c-4.44.29-3.17,6.14-7.31,7.17-1.52-3,1.37-4.7,2-7a58.17,58.17,0,0,0,1-7.49c-3.27,3-5.29,7-5.35,10.68-.07,4.18-2,3.64-4.41,3.67-4.53-5.16-5.26-11.37-5-17.87C92.19,420.62,92.54,417.91,94.94,416.53Z"/><path class="cls-4" d="M75,386.53c-.13-2,.63-3.48,2.76-2.73,3.08,1.08,3.17-1,3.66-2.89l1.83.37,1.67.31c-1.64,3.53-.83,6.83,1,10-3.68-.46-6.22-3.7-9.93-4.11Z"/><path class="cls-5" d="M95,397.58c4.19,2.56,6.6,6.4,8,11h0l-2.95,0C98.09,405,95.5,401.77,95,397.58Z"/><path class="cls-5" d="M93.91,392.67l0,3.91c-3-.69-6-1.21-8-4a7.85,7.85,0,0,0,5-1Z"/><path class="cls-5" d="M75,386.53l1,1c-1.6,1.65-2.55,1.15-3-.91Z"/><path class="cls-6" d="M100,408.58l2.95,0c-.15,1.93-1.53,2-3,2Z"/><path class="cls-8" d="M95.88,440.59c2.44,0,4.34.51,4.41-3.67.06-3.67,2.08-7.65,5.35-10.68a58.17,58.17,0,0,1-1,7.49c-.6,2.3-3.49,4-2,7,4.14-1,2.87-6.88,7.31-7.17l-1,10-1.79,2c-.09-2.48-1.25-3.56-3.71-2.68-1.65.59-3.23,1.34-4.85,2C97.33,443.65,96.14,442.41,95.88,440.59Z"/><path class="cls-6" d="M118.94,438.55l-4,3c3-5.32,1.63-12.16,6-17,2.11,2,.37,3.95-.14,5.84a14,14,0,0,0-.81,5.24C118.88,436.33,119.1,437.51,118.94,438.55Z"/><path class="cls-10" d="M126,438.6a1.89,1.89,0,0,1-1.87,2C124,439.28,124.7,438.67,126,438.6Z"/><path class="cls-4" d="M35.42,357.66c-2.86,3.67-.54,8.1-1.76,12-2.42-.91-1.62-3-1.63-4.7,0-4.14.12-8.28.19-12.42l3.35.1Z"/><path class="cls-8" d="M103,449.54c.78-1.75,2.34-2,4-2C106.2,449.35,104.65,449.6,103,449.54Z"/><path class="cls-4" d="M112,259.61a5.76,5.76,0,0,1,3.16-5.66,4.26,4.26,0,0,1,5,1.05c1.61,1.62.35,3.4-.23,5-.85,2.36-2.45.65-3.7.5a9.38,9.38,0,0,1-2.27-.89Z"/><path class="cls-9" d="M105.85,330.32c-2.22,2.26-6.12.08-8.06,3.06-2.8,1.65-5.33.7-7.8-.81l1.61-2.48c3,1.21,6.07.5,9.08,0C102.46,329.81,104.17,328.91,105.85,330.32Z"/><path class="cls-10" d="M90,332.57c2.47,1.51,5,2.46,7.8.81.1.91.21,1.83.32,2.75l-9.36,1A7.61,7.61,0,0,1,90,332.57Z"/><path class="cls-10" d="M98,358.61c-.69-4.74,3.4-7.14,5.2-10.65l1-.56,2,.38c-.11.59-.22,1.18-.34,1.76-1.09,1.61-3,2.73-3,5l0,0c-1.65.84-3,1.94-3,4l0,0h-2Z"/><path class="cls-13" d="M106,358.59c.84-3.13,3.34-1.66,5.23-1.89L108,358.55Z"/><path class="cls-13" d="M97.94,358.53h2c1.12,1.17.6,2.26-.65,2.41C97.49,361.16,98.38,359.37,97.94,358.53Z"/><path class="cls-13" d="M88.53,371.57c-.4.54-.6,1.36-1.56,1.09C87.17,371.84,87.86,371.73,88.53,371.57Z"/><path class="cls-13" d="M104,359.41l1.37-.65Z"/><path class="cls-5" d="M103.53,235.24c3.74-.88,6.38.77,8.46,3.7A16.2,16.2,0,0,1,103.53,235.24Z"/><path class="cls-5" d="M88,219.62c3.91.41,4.29,3,3.87,6.15a9.69,9.69,0,0,1-4-4C88,221,88,220.33,88,219.62Z"/><path class="cls-5" d="M95.56,229.13c2.9-.59,3.9,1.16,4.37,3.55A9.34,9.34,0,0,1,95.56,229.13Z"/><path class="cls-5" d="M114,239.59c1.79-1.35,3.28-1.57,4,1.08A6,6,0,0,1,114,239.59Z"/><path class="cls-5" d="M99.91,232.67c1.53.3,4.13-.91,3.46,2.47Z"/><path class="cls-5" d="M91.84,225.73c1.58,0,3.18-.07,2.71,2.31A5.33,5.33,0,0,1,91.84,225.73Z"/><path class="cls-10" d="M124.89,240.55l1.1.67a4,4,0,0,1-3.12.17,3.84,3.84,0,0,1,.08-.76Z"/><path class="cls-5" d="M94.56,228.05a.84.84,0,0,1,.94,1Z"/><path class="cls-11" d="M67.86,247.41l-.78,1.2Z"/><path class="cls-10" d="M51,278.6c1.5,4.48-.33,7.78-5,9C47.05,284.24,47.39,280.52,51,278.6Z"/><path class="cls-8" d="M134,236.6c1.82.13,2,1.48,2.14,2.85C134.54,239.15,134,238.08,134,236.6Z"/><path class="cls-8" d="M131.93,234.65a1.88,1.88,0,0,1,2,1.95A1.84,1.84,0,0,1,131.93,234.65Z"/><path class="cls-1" d="M124.89,240.55l-1.94.08C123.56,239.73,124.2,239.62,124.89,240.55Z"/><path class="cls-1" d="M63.11,362.2c2.36,2.09,4.62,4.25,5.42,7.47a25.11,25.11,0,0,0-19.52,6,24.45,24.45,0,0,1-9.48-10.81c-.79-1.83-1.84-3.44-.19-5.44.82-1-.34-1.73-1.2-2.26a2.71,2.71,0,0,1,1.68-1.92c1.72,2.77,3.38,5.58,5.18,8.3s4.35,3.28,5.61.09c2.17-5.51,3.08-1.11,4.47.24,1.09,1.05.26,4.06,3.36,3.09C60.9,366.14,63.27,365.48,63.11,362.2Z"/><path class="cls-5" d="M63.11,362.2c.16,3.28-2.21,3.94-4.67,4.72-3.1,1-2.27-2-3.36-3.09-1.39-1.35-2.3-5.75-4.47-.24-1.26,3.19-3.83,2.6-5.61-.09s-3.46-5.53-5.18-8.3c5.79-6.47,5.79-6.47,14-1.3,1.93,2.24,5.19,2.78,6.83,5.39-1.11.72-2.89.66-3.07,2.83l4.77-.66C62.91,361.42,63.14,361.67,63.11,362.2Z"/><path class="cls-1" d="M62.37,361.46l-4.77.66c.18-2.17,2-2.11,3.07-2.83Z"/></svg>