<svg id="Layer_1" data-name="Layer 1" xmlns="http://www.w3.org/2000/svg" viewBox="0 0 177 177"><defs><style>.cls-1{fill:#858585;}.cls-2{fill:#fff;}</style></defs><path class="cls-1" d="M163.12,40.9v95.2a88.59,88.59,0,0,1-54.84,38.68V111h23.28c1.11-8.67,2.22-17.27,3.34-26H109.19c0-5.62,0-11.09,0-16.56a30.51,30.51,0,0,1,.26-3.82c.58-4.41,3-7.07,7.39-8A22.27,22.27,0,0,1,121,56.1c4.27-.07,8.55,0,12.82-.06.39,0,.78,0,1.23,0V33.24c-.43-.06-.81-.13-1.2-.16-2.59-.2-5.17-.47-7.76-.57-6.14-.25-12.28-.78-18.39.33-9.39,1.71-16.8,6.32-21.42,14.88a37,37,0,0,0-4.11,17.42c-.08,6.15,0,12.3,0,18.45V85H60.27v26H82.09v65.75a88.5,88.5,0,1,1,81-135.86Z"/><path class="cls-2" d="M177,88.5a88.5,88.5,0,0,1-68.72,86.28V111h23.28c1.11-8.67,2.22-17.27,3.34-26H109.19c0-5.62,0-11.09,0-16.56a30.51,30.51,0,0,1,.26-3.82c.58-4.41,3-7.07,7.39-8A22.27,22.27,0,0,1,121,56.1c4.27-.07,8.55,0,12.82-.06.39,0,.78,0,1.23,0V33.24c-.43-.06-.81-.13-1.2-.16-2.59-.2-5.17-.47-7.76-.57-6.14-.25-12.28-.78-18.39.33-9.39,1.71-16.8,6.32-21.42,14.88a37,37,0,0,0-4.11,17.42c-.08,6.15,0,12.3,0,18.45V85H60.27v26H82.09v65.75A88.51,88.51,0,1,1,177,88.5Z"/></svg>