<svg id="Layer_1" data-name="Layer 1" xmlns="http://www.w3.org/2000/svg" viewBox="0 0 247 247"><defs><style>.cls-1{fill:#fff;fill-rule:evenodd;}</style></defs><g id="Page-1"><g id="Dribbble-Light-Preview"><g id="icons"><path id="instagram-_167_" data-name="instagram-[#167]" class="cls-1" d="M72.62,1.64c-20.09.91-37.51,5.82-51.57,19.82S2.08,53,1.17,72.91C.61,85.32-2.7,179.09,6.88,203.68A62.24,62.24,0,0,0,42.81,239.5c7.81,3,16.73,5.1,29.81,5.7,109.38,5,149.92,2.25,167-41.52,3-7.8,5.12-16.7,5.7-29.75,5-109.66-.81-133.43-19.87-152.47C210.35,6.38,192.56-3.88,72.62,1.64m1,221.51c-12-.54-18.48-2.54-22.81-4.22a40.14,40.14,0,0,1-23.31-23.24C20.21,177,22.63,88.26,23.28,73.9,23.92,59.84,26.77,47,36.69,37.06,49,24.81,64.85,18.8,172.9,23.68c14.1.64,27,3.48,36.93,13.38,12.28,12.25,18.37,28.24,13.41,135.88-.54,11.94-2.54,18.42-4.22,22.75-11.12,28.49-36.69,32.45-145.39,27.46M174.09,58a14.75,14.75,0,1,0,14.74-14.7A14.73,14.73,0,0,0,174.09,58m-113.9,65.4a63.07,63.07,0,1,0,63.07-62.9,63,63,0,0,0-63.07,62.9m22.13,0a40.94,40.94,0,1,1,40.94,40.86,40.89,40.89,0,0,1-40.94-40.86"/></g></g></g></svg>