<svg id="Layer_1" data-name="Layer 1" xmlns="http://www.w3.org/2000/svg" viewBox="0 0 212 212"><defs><style>.cls-1{fill:#fff;fill-rule:evenodd;}</style></defs><path class="cls-1" d="M.09,105.83A106.17,106.17,0,1,1,106.26,212,106.17,106.17,0,0,1,.09,105.83ZM45.72,81.51c32.67-9.92,89.12-8.05,123.34,12.28a9.93,9.93,0,0,0,10.13-17.08C139.8,53.32,77.46,51.12,40,62.5a9.93,9.93,0,0,0,5.77,19Zm110.83,45.1a8.28,8.28,0,1,0,8.67-14.1C132.45,92.37,84.51,86.7,46,98.4a8.28,8.28,0,1,0,4.81,15.84C84.52,104,128,109.08,156.55,126.61ZM155,152.8a6.63,6.63,0,0,1-9.1,2.2c-24.93-15.24-56.31-18.68-93.27-10.24a6.62,6.62,0,1,1-2.94-12.9c40.44-9.24,75.13-5.26,103.11,11.84A6.62,6.62,0,0,1,155,152.8Z"/></svg>