<svg id="Layer_1" data-name="Layer 1" xmlns="http://www.w3.org/2000/svg" viewBox="0 0 236 165"><defs><style>.cls-1{fill:#fff;fill-rule:evenodd;}</style></defs><g id="Page-1"><g id="Dribbble-Light-Preview"><g id="icons"><path id="youtube-_168_" data-name="youtube-[#168]" class="cls-1" d="M95,113V47.24c23.45,11,41.61,21.69,63.09,33.18-17.71,9.83-39.64,20.85-63.09,32.87M225.55,14.38c-4-5.33-10.94-9.47-18.28-10.85C185.7-.56,51.11-.57,29.54,3.53a31.35,31.35,0,0,0-15.63,7.92c-19,17.61-13,112-8.45,127.33,1.92,6.62,4.41,11.39,7.54,14.53a30.29,30.29,0,0,0,15.9,8.27c17.76,3.68,109.28,5.73,178,.55a30.78,30.78,0,0,0,16.35-8.36c17.54-17.54,16.35-117.28,2.3-139.39"/></g></g></g></svg>