<svg id="Layer_1" data-name="Layer 1" xmlns="http://www.w3.org/2000/svg" viewBox="0 0 379.94 161.14"><path d="M198.25,24.2c0-18-11.66-24.2-22.66-24.2C168.22,0,162.83,2.31,159,8.58h-.22V2.09h-17V63.14H160V29.48c0-8.25,3.08-12.32,10.45-12.32,6.71,0,9.57,3.85,9.57,12.1V79.87h0v58.72c0,6.27-1.21,8.69-7.59,8.69h-1.32v13.86h3.3c19.58,0,23.87-7,23.87-23.1V77.66h0Z"/><path d="M241.25,65c18.37,0,32.89-13.53,32.89-32.67,0-18.48-14.52-32.23-32.89-32.23s-32.89,13.53-32.89,32.45C208.36,51.26,222.66,65,241.25,65Zm-.11-47.85c8.58,0,14.74,7.26,14.74,15.4s-6,15.4-14.63,15.4c-8.25,0-14.63-7-14.63-15.4S233.11,17.16,241.14,17.16Z"/><path d="M284.69,63c0,6.27-1.21,8.69-7.59,8.69h-1.32V85.58h3.3c19.58,0,23.87-7,23.87-23.1V2.09H284.69Z"/><path d="M347.05.11c-18.26,0-32.88,13.53-32.88,32.45,0,18.7,14.29,32.45,32.88,32.45,18.37,0,32.89-13.53,32.89-32.67C379.94,13.86,365.42.11,347.05.11Zm0,47.85c-8.25,0-14.63-7-14.63-15.4s6.49-15.4,14.52-15.4c8.58,0,14.74,7.26,14.74,15.4S355.63,48,347.05,48Z"/><path d="M71.06,75.56c-8.36,0-15,4-19.36,10.89C47.85,79.52,42,75.56,34.1,75.56s-13.64,2.87-16.83,8.58h-.22V77.66H0v61H18.26V105.81c0-8.47,3.19-13.09,10.34-13.09,6.27,0,9.13,4.4,9.13,12.32V138.7H56V104.93c0-8,3.19-12.21,10.12-12.21,6.27,0,9.35,3.52,9.35,13.09V138.7H93.71V101C93.71,83.92,84.7,75.56,71.06,75.56Z"/><path d="M136.6,75.67c-18.26,0-32.89,13.53-32.89,32.45,0,18.7,14.3,32.45,32.89,32.45,18.37,0,32.89-13.53,32.89-32.67C169.49,89.42,155,75.67,136.6,75.67Zm0,47.85c-8.25,0-14.63-7-14.63-15.4s6.49-15.4,14.52-15.4c8.58,0,14.74,7.26,14.74,15.4S145.18,123.52,136.6,123.52Z"/><path d="M242.41,75.67c-18.26,0-32.89,13.53-32.89,32.45,0,18.7,14.3,32.45,32.89,32.45,18.37,0,32.88-13.53,32.88-32.67C275.29,89.42,260.78,75.67,242.41,75.67Zm0,47.85c-8.25,0-14.63-7-14.63-15.4s6.49-15.4,14.52-15.4c8.58,0,14.74,7.26,14.74,15.4S251,123.52,242.41,123.52Z"/></svg>